<ttFont>
<head>
    <!-- Most of this table will be recalculated by the compiler -->
    <tableVersion value="1.0"/>
    <fontRevision value="1.23999"/>
    <checkSumAdjustment value="0xee536445"/>
    <magicNumber value="0x5f0f3cf5"/>
    <flags value="00000000 00000011"/>
    <unitsPerEm value="2000"/>
    <created value="Sat Mar 28 06:10:06 2020"/>
    <modified value="Thu May 13 01:32:55 2021"/>
    <xMin value="-80"/>
    <yMin value="-500"/>
    <xMax value="2864"/>
    <yMax value="1900"/>
    <macStyle value="00000000 00000000"/>
    <lowestRecPPEM value="7"/>
    <fontDirectionHint value="2"/>
    <indexToLocFormat value="0"/>
    <glyphDataFormat value="0"/>
  </head>
    <TTGlyph name=".notdef" xMin="223" yMin="-500" xMax="984" yMax="1900">
      <contour>
        <pt x="984" y="-500" on="1"/>
        <pt x="223" y="-500" on="1"/>
        <pt x="223" y="1900" on="1"/>
        <pt x="984" y="1900" on="1"/>
      </contour>
      <contour>
        <pt x="401" y="263" on="1"/>
        <pt x="401" y="-8" on="1"/>
        <pt x="799" y="-8" on="1"/>
        <pt x="799" y="263" on="1"/>
      </contour>
      <contour>
        <pt x="720" y="71" on="1"/>
        <pt x="480" y="71" on="1"/>
        <pt x="480" y="184" on="1"/>
        <pt x="720" y="184" on="1"/>
      </contour>
      <contour>
        <pt x="559" y="678" on="1"/>
        <pt x="559" y="544" on="1"/>
        <pt x="641" y="544" on="1"/>
        <pt x="641" y="599" on="1"/>
        <pt x="720" y="599" on="1"/>
        <pt x="720" y="486" on="1"/>
        <pt x="480" y="486" on="1"/>
        <pt x="480" y="678" on="1"/>
        <pt x="401" y="678" on="1"/>
        <pt x="401" y="407" on="1"/>
        <pt x="799" y="407" on="1"/>
        <pt x="799" y="678" on="1"/>
      </contour>
      <contour>
        <pt x="720" y="971" on="1"/>
        <pt x="720" y="813" on="1"/>
        <pt x="401" y="813" on="1"/>
        <pt x="401" y="731" on="1"/>
        <pt x="799" y="731" on="1"/>
        <pt x="799" y="971" on="1"/>
      </contour>
      <contour>
        <pt x="401" y="1115" on="1"/>
        <pt x="401" y="1036" on="1"/>
        <pt x="559" y="1036" on="1"/>
        <pt x="559" y="947" on="1"/>
        <pt x="401" y="947" on="1"/>
        <pt x="401" y="868" on="1"/>
        <pt x="641" y="868" on="1"/>
        <pt x="641" y="1036" on="1"/>
        <pt x="799" y="1036" on="1"/>
        <pt x="799" y="1115" on="1"/>
      </contour>
      <contour>
        <pt x="559" y="1262" on="1"/>
        <pt x="480" y="1262" on="1"/>
        <pt x="480" y="1348" on="1"/>
        <pt x="559" y="1348" on="1"/>
      </contour>
      <contour>
        <pt x="401" y="1430" on="1"/>
        <pt x="401" y="1180" on="1"/>
        <pt x="799" y="1180" on="1"/>
        <pt x="799" y="1262" on="1"/>
        <pt x="641" y="1262" on="1"/>
        <pt x="641" y="1430" on="1"/>
      </contour>
      <contour>
        <pt x="403" y="1739" on="1"/>
        <pt x="403" y="1660" on="1"/>
        <pt x="559" y="1660" on="1"/>
        <pt x="559" y="1571" on="1"/>
        <pt x="401" y="1571" on="1"/>
        <pt x="401" y="1492" on="1"/>
        <pt x="799" y="1492" on="1"/>
        <pt x="799" y="1571" on="1"/>
        <pt x="641" y="1571" on="1"/>
        <pt x="641" y="1660" on="1"/>
        <pt x="799" y="1660" on="1"/>
        <pt x="799" y="1739" on="1"/>
      </contour>
      <contour>
        <pt x="401" y="-63" on="1"/>
        <pt x="401" y="-142" on="1"/>
        <pt x="569" y="-142" on="1"/>
        <pt x="401" y="-255" on="1"/>
        <pt x="401" y="-334" on="1"/>
        <pt x="799" y="-334" on="1"/>
        <pt x="799" y="-255" on="1"/>
        <pt x="554" y="-255" on="1"/>
        <pt x="722" y="-142" on="1"/>
        <pt x="799" y="-142" on="1"/>
        <pt x="799" y="-63" on="1"/>
      </contour>
    </TTGlyph>
    <TTGlyph name="A" xMin="80" yMin="0" xMax="1434" yMax="1400">
      <contour>
        <pt x="926" y="1400" on="1"/>
        <pt x="1434" y="0" on="1"/>
        <pt x="1116" y="0" on="1"/>
        <pt x="1036" y="220" on="1"/>
        <pt x="478" y="220" on="1"/>
        <pt x="398" y="0" on="1"/>
        <pt x="80" y="0" on="1"/>
        <pt x="588" y="1400" on="1"/>
      </contour>
      <contour>
        <pt x="926" y="520" on="1"/>
        <pt x="756" y="984" on="1"/>
        <pt x="588" y="520" on="1"/>
      </contour>
    </TTGlyph>
    <TTGlyph name="AE" xMin="80" yMin="0" xMax="1610" yMax="1400">
      <contour>
        <pt x="588" y="1400" on="1"/>
        <pt x="1610" y="1400" on="1"/>
        <pt x="1610" y="1100" on="1"/>
        <pt x="1158" y="1100" on="1"/>
        <pt x="1158" y="850" on="1"/>
        <pt x="1514" y="850" on="1"/>
        <pt x="1514" y="550" on="1"/>
        <pt x="1158" y="550" on="1"/>
        <pt x="1158" y="300" on="1"/>
        <pt x="1610" y="300" on="1"/>
        <pt x="1610" y="0" on="1"/>
        <pt x="858" y="0" on="1"/>
        <pt x="858" y="220" on="1"/>
        <pt x="478" y="220" on="1"/>
        <pt x="398" y="0" on="1"/>
        <pt x="80" y="0" on="1"/>
      </contour>
      <contour>
        <pt x="858" y="520" on="1"/>
        <pt x="858" y="1100" on="1"/>
        <pt x="798" y="1100" on="1"/>
        <pt x="588" y="520" on="1"/>
      </contour>
    </TTGlyph>
    <TTGlyph name="Aacute" xMin="80" yMin="0" xMax="1434" yMax="1788">
      <component glyphName="A" x="0" y="0" flags="0x0"/>
      <component glyphName="acutecomb" x="188" y="362" flags="0x4"/>
    </TTGlyph>
    <TTGlyph name="Acircumflex" xMin="80" yMin="0" xMax="1434" yMax="1734">
      <component glyphName="A" x="0" y="0" flags="0x0"/>
      <component glyphName="uni0302" x="106" y="334" flags="0x4"/>
    </TTGlyph>
    <TTGlyph name="Adieresis" xMin="80" yMin="0" xMax="1434" yMax="1774">
      <component glyphName="A" x="0" y="0" flags="0x0"/>
      <component glyphName="uni0308" x="-14" y="350" flags="0x4"/>
    </TTGlyph>
    <TTGlyph name="Agrave" xMin="80" yMin="0" xMax="1434" yMax="1788">
      <component glyphName="A" x="0" y="0" flags="0x0"/>
      <component glyphName="grave" x="128" y="362" flags="0x4"/>
    </TTGlyph>
    <TTGlyph name="Aring" xMin="80" yMin="0" xMax="1434" yMax="1874">
      <component glyphName="A" x="0" y="0" flags="0x0"/>
      <component glyphName="uni030A" x="158" y="392" flags="0x4"/>
    </TTGlyph>
    <TTGlyph name="Atilde" xMin="80" yMin="0" xMax="1434" yMax="1828">
      <component glyphName="A" x="0" y="0" flags="0x0"/>
      <component glyphName="tildecomb" x="103" y="308" flags="0x4"/>
    </TTGlyph>
    <TTGlyph name="B" xMin="120" yMin="0" xMax="1126" yMax="1400">
      <contour>
        <pt x="120" y="1400" on="1"/>
        <pt x="650" y="1400" on="1"/>
        <pt x="765" y="1400" on="0"/>
        <pt x="952" y="1304" on="0"/>
        <pt x="1060" y="1128" on="0"/>
        <pt x="1060" y="1014" on="1"/>
        <pt x="1060" y="964" on="0"/>
        <pt x="1037" y="869" on="0"/>
        <pt x="979" y="788" on="0"/>
        <pt x="930" y="765" on="1"/>
        <pt x="1012" y="745" on="0"/>
        <pt x="1099" y="616" on="0"/>
        <pt x="1126" y="464" on="0"/>
        <pt x="1126" y="382" on="1"/>
        <pt x="1126" y="278" on="0"/>
        <pt x="1012" y="102" on="0"/>
        <pt x="818" y="0" on="0"/>
        <pt x="704" y="0" on="1"/>
        <pt x="120" y="0" on="1"/>
      </contour>
      <contour>
        <pt x="724" y="254" on="0"/>
        <pt x="810" y="303" on="0"/>
        <pt x="860" y="390" on="0"/>
        <pt x="860" y="444" on="1"/>
        <pt x="860" y="490" on="0"/>
        <pt x="809" y="573" on="0"/>
        <pt x="723" y="625" on="0"/>
        <pt x="672" y="625" on="1"/>
        <pt x="420" y="625" on="1"/>
        <pt x="420" y="254" on="1"/>
        <pt x="672" y="254" on="1"/>
      </contour>
      <contour>
        <pt x="654" y="875" on="0"/>
        <pt x="721" y="911" on="0"/>
        <pt x="760" y="976" on="0"/>
        <pt x="760" y="1016" on="1"/>
        <pt x="760" y="1056" on="0"/>
        <pt x="721" y="1114" on="0"/>
        <pt x="655" y="1144" on="0"/>
        <pt x="614" y="1144" on="1"/>
        <pt x="420" y="1144" on="1"/>
        <pt x="420" y="875" on="1"/>
        <pt x="614" y="875" on="1"/>
      </contour>
    </TTGlyph>
    <TTGlyph name="C" xMin="60" yMin="-26" xMax="1298" yMax="1426">
      <contour>
        <pt x="561" y="-26" on="0"/>
        <pt x="245" y="170" on="0"/>
        <pt x="60" y="503" on="0"/>
        <pt x="60" y="700" on="1"/>
        <pt x="60" y="898" on="0"/>
        <pt x="245" y="1231" on="0"/>
        <pt x="561" y="1426" on="0"/>
        <pt x="748" y="1426" on="1"/>
        <pt x="914" y="1426" on="0"/>
        <pt x="1201" y="1272" on="0"/>
        <pt x="1298" y="1138" on="1"/>
        <pt x="1030" y="994" on="1"/>
        <pt x="976" y="1056" on="0"/>
        <pt x="830" y="1126" on="0"/>
        <pt x="748" y="1126" on="1"/>
        <pt x="643" y="1126" on="0"/>
        <pt x="464" y="1012" on="0"/>
        <pt x="360" y="816" on="0"/>
        <pt x="360" y="700" on="1"/>
        <pt x="360" y="585" on="0"/>
        <pt x="465" y="389" on="0"/>
        <pt x="643" y="274" on="0"/>
        <pt x="748" y="274" on="1"/>
        <pt x="830" y="274" on="0"/>
        <pt x="976" y="345" on="0"/>
        <pt x="1030" y="408" on="1"/>
        <pt x="1298" y="262" on="1"/>
        <pt x="1201" y="128" on="0"/>
        <pt x="914" y="-26" on="0"/>
        <pt x="748" y="-26" on="1"/>
      </contour>
    </TTGlyph>
    <TTGlyph name="Ccedilla" xMin="60" yMin="-386" xMax="1298" yMax="1426">
      <component glyphName="C" x="0" y="0" flags="0x0"/>
      <component glyphName="uni0327" x="60" y="-80" flags="0x4"/>
    </TTGlyph>
    <TTGlyph name="D" xMin="120" yMin="0" xMax="1284" yMax="1400">
      <contour>
        <pt x="120" y="1400" on="1"/>
        <pt x="584" y="1400" on="1"/>
        <pt x="774" y="1400" on="0"/>
        <pt x="1095" y="1211" on="0"/>
        <pt x="1284" y="890" on="0"/>
        <pt x="1284" y="700" on="1"/>
        <pt x="1284" y="510" on="0"/>
        <pt x="1095" y="189" on="0"/>
        <pt x="774" y="0" on="0"/>
        <pt x="584" y="0" on="1"/>
        <pt x="120" y="0" on="1"/>
      </contour>
      <contour>
        <pt x="691" y="300" on="0"/>
        <pt x="875" y="407" on="0"/>
        <pt x="984" y="591" on="0"/>
        <pt x="984" y="700" on="1"/>
        <pt x="984" y="808" on="0"/>
        <pt x="875" y="992" on="0"/>
        <pt x="691" y="1100" on="0"/>
        <pt x="584" y="1100" on="1"/>
        <pt x="420" y="1100" on="1"/>
        <pt x="420" y="300" on="1"/>
        <pt x="584" y="300" on="1"/>
      </contour>
    </TTGlyph>
    <TTGlyph name="E" xMin="120" yMin="0" xMax="1012" yMax="1400">
      <contour>
        <pt x="120" y="1400" on="1"/>
        <pt x="1012" y="1400" on="1"/>
        <pt x="1012" y="1100" on="1"/>
        <pt x="420" y="1100" on="1"/>
        <pt x="420" y="900" on="1"/>
        <pt x="876" y="900" on="1"/>
        <pt x="876" y="600" on="1"/>
        <pt x="420" y="600" on="1"/>
        <pt x="420" y="300" on="1"/>
        <pt x="1012" y="300" on="1"/>
        <pt x="1012" y="0" on="1"/>
        <pt x="120" y="0" on="1"/>
      </contour>
    </TTGlyph>
    <TTGlyph name="Eacute" xMin="120" yMin="0" xMax="1012" yMax="1788">
      <component glyphName="E" x="0" y="0" flags="0x0"/>
      <component glyphName="acutecomb" x="-60" y="362" flags="0x4"/>
    </TTGlyph>
    <TTGlyph name="Ecircumflex" xMin="120" yMin="0" xMax="1012" yMax="1734">
      <component glyphName="E" x="0" y="0" flags="0x0"/>
      <component glyphName="uni0302" x="-95" y="334" flags="0x4"/>
    </TTGlyph>
    <TTGlyph name="Edieresis" xMin="120" yMin="0" xMax="1012" yMax="1774">
      <component glyphName="E" x="0" y="0" flags="0x0"/>
      <component glyphName="uni0308" x="-196" y="350" flags="0x4"/>
    </TTGlyph>
    <TTGlyph name="Egrave" xMin="120" yMin="0" xMax="1012" yMax="1788">
      <component glyphName="E" x="0" y="0" flags="0x0"/>
      <component glyphName="grave" x="-100" y="362" flags="0x4"/>
    </TTGlyph>
    <TTGlyph name="Eth" xMin="100" yMin="0" xMax="1402" yMax="1400">
      <contour>
        <pt x="240" y="600" on="1"/>
        <pt x="100" y="600" on="1"/>
        <pt x="100" y="900" on="1"/>
        <pt x="240" y="900" on="1"/>
        <pt x="240" y="1400" on="1"/>
        <pt x="702" y="1400" on="1"/>
        <pt x="892" y="1400" on="0"/>
        <pt x="1213" y="1211" on="0"/>
        <pt x="1402" y="890" on="0"/>
        <pt x="1402" y="700" on="1"/>
        <pt x="1402" y="510" on="0"/>
        <pt x="1213" y="189" on="0"/>
        <pt x="892" y="0" on="0"/>
        <pt x="702" y="0" on="1"/>
        <pt x="240" y="0" on="1"/>
      </contour>
      <contour>
        <pt x="810" y="300" on="0"/>
        <pt x="994" y="408" on="0"/>
        <pt x="1102" y="592" on="0"/>
        <pt x="1102" y="700" on="1"/>
        <pt x="1102" y="808" on="0"/>
        <pt x="994" y="992" on="0"/>
        <pt x="810" y="1100" on="0"/>
        <pt x="702" y="1100" on="1"/>
        <pt x="540" y="1100" on="1"/>
        <pt x="540" y="900" on="1"/>
        <pt x="778" y="900" on="1"/>
        <pt x="778" y="600" on="1"/>
        <pt x="540" y="600" on="1"/>
        <pt x="540" y="300" on="1"/>
        <pt x="702" y="300" on="1"/>
      </contour>
    </TTGlyph>
    <TTGlyph name="Euro" xMin="80" yMin="-43" xMax="1016" yMax="1444">
      <contour>
        <pt x="841" y="-43" on="0"/>
        <pt x="528" y="63" on="0"/>
        <pt x="298" y="301" on="0"/>
        <pt x="244" y="466" on="1"/>
        <pt x="80" y="466" on="1"/>
        <pt x="80" y="666" on="1"/>
        <pt x="208" y="666" on="1"/>
        <pt x="208" y="730" on="1"/>
        <pt x="80" y="730" on="1"/>
        <pt x="80" y="930" on="1"/>
        <pt x="244" y="930" on="1"/>
        <pt x="296" y="1097" on="0"/>
        <pt x="526" y="1337" on="0"/>
        <pt x="842" y="1444" on="0"/>
        <pt x="1016" y="1416" on="1"/>
        <pt x="1016" y="1106" on="1"/>
        <pt x="925" y="1134" on="0"/>
        <pt x="754" y="1107" on="0"/>
        <pt x="615" y="1008" on="0"/>
        <pt x="570" y="930" on="1"/>
        <pt x="808" y="930" on="1"/>
        <pt x="808" y="730" on="1"/>
        <pt x="508" y="730" on="1"/>
        <pt x="510" y="666" on="1"/>
        <pt x="808" y="666" on="1"/>
        <pt x="808" y="466" on="1"/>
        <pt x="572" y="466" on="1"/>
        <pt x="620" y="387" on="0"/>
        <pt x="760" y="291" on="0"/>
        <pt x="928" y="266" on="0"/>
        <pt x="1016" y="294" on="1"/>
        <pt x="1016" y="-16" on="1"/>
      </contour>
    </TTGlyph>
    <TTGlyph name="F" xMin="120" yMin="0" xMax="952" yMax="1400">
      <contour>
        <pt x="120" y="1400" on="1"/>
        <pt x="952" y="1400" on="1"/>
        <pt x="952" y="1100" on="1"/>
        <pt x="420" y="1100" on="1"/>
        <pt x="420" y="900" on="1"/>
        <pt x="856" y="900" on="1"/>
        <pt x="856" y="600" on="1"/>
        <pt x="420" y="600" on="1"/>
        <pt x="420" y="0" on="1"/>
        <pt x="120" y="0" on="1"/>
      </contour>
    </TTGlyph>
    <TTGlyph name="G" xMin="60" yMin="-26" xMax="1446" yMax="1424">
      <contour>
        <pt x="556" y="-26" on="0"/>
        <pt x="241" y="171" on="0"/>
        <pt x="60" y="505" on="0"/>
        <pt x="60" y="702" on="1"/>
        <pt x="60" y="909" on="0"/>
        <pt x="255" y="1239" on="0"/>
        <pt x="575" y="1424" on="0"/>
        <pt x="754" y="1424" on="1"/>
        <pt x="906" y="1424" on="0"/>
        <pt x="1188" y="1282" on="0"/>
        <pt x="1298" y="1136" on="1"/>
        <pt x="1030" y="992" on="1"/>
        <pt x="970" y="1059" on="0"/>
        <pt x="826" y="1126" on="0"/>
        <pt x="750" y="1126" on="1"/>
        <pt x="649" y="1126" on="0"/>
        <pt x="470" y="1016" on="0"/>
        <pt x="360" y="820" on="0"/>
        <pt x="360" y="696" on="1"/>
        <pt x="360" y="580" on="0"/>
        <pt x="466" y="386" on="0"/>
        <pt x="646" y="274" on="0"/>
        <pt x="752" y="274" on="1"/>
        <pt x="815" y="274" on="0"/>
        <pt x="935" y="319" on="0"/>
        <pt x="1042" y="411" on="0"/>
        <pt x="1082" y="480" on="1"/>
        <pt x="894" y="480" on="1"/>
        <pt x="894" y="740" on="1"/>
        <pt x="1436" y="740" on="1"/>
        <pt x="1446" y="535" on="0"/>
        <pt x="1266" y="182" on="0"/>
        <pt x="943" y="-26" on="0"/>
        <pt x="748" y="-26" on="1"/>
      </contour>
    </TTGlyph>
    <TTGlyph name="H" xMin="120" yMin="0" xMax="1216" yMax="1400">
      <contour>
        <pt x="1216" y="1400" on="1"/>
        <pt x="1216" y="0" on="1"/>
        <pt x="916" y="0" on="1"/>
        <pt x="916" y="600" on="1"/>
        <pt x="420" y="600" on="1"/>
        <pt x="420" y="0" on="1"/>
        <pt x="120" y="0" on="1"/>
        <pt x="120" y="1400" on="1"/>
        <pt x="420" y="1400" on="1"/>
        <pt x="420" y="900" on="1"/>
        <pt x="916" y="900" on="1"/>
        <pt x="916" y="1400" on="1"/>
      </contour>
    </TTGlyph>
    <TTGlyph name="I" xMin="150" yMin="0" xMax="450" yMax="1400">
      <contour>
        <pt x="150" y="1400" on="1"/>
        <pt x="450" y="1400" on="1"/>
        <pt x="450" y="0" on="1"/>
        <pt x="150" y="0" on="1"/>
      </contour>
    </TTGlyph>
    <TTGlyph name="Iacute" xMin="150" yMin="0" xMax="610" yMax="1788">
      <component glyphName="I" x="0" y="0" flags="0x0"/>
      <component glyphName="acutecomb" x="-250" y="362" flags="0x4"/>
    </TTGlyph>
    <TTGlyph name="Icircumflex" xMin="60" yMin="0" xMax="562" yMax="1734">
      <component glyphName="I" x="11" y="0" flags="0x0"/>
      <component glyphName="uni0302" x="-340" y="334" flags="0x4"/>
    </TTGlyph>
    <TTGlyph name="Idieresis" xMin="10" yMin="0" xMax="752" yMax="1774">
      <component glyphName="I" x="83" y="0" flags="0x0"/>
      <component glyphName="uni0308" x="-390" y="350" flags="0x4"/>
    </TTGlyph>
    <TTGlyph name="Igrave" xMin="40" yMin="0" xMax="500" yMax="1788">
      <component glyphName="I" x="50" y="0" flags="0x0"/>
      <component glyphName="grave" x="-280" y="362" flags="0x4"/>
    </TTGlyph>
    <TTGlyph name="J" xMin="40" yMin="-26" xMax="814" yMax="1400">
      <contour>
        <pt x="259" y="-26" on="0"/>
        <pt x="103" y="30" on="0"/>
        <pt x="40" y="84" on="1"/>
        <pt x="232" y="314" on="1"/>
        <pt x="253" y="297" on="0"/>
        <pt x="307" y="274" on="0"/>
        <pt x="342" y="274" on="1"/>
        <pt x="388" y="274" on="0"/>
        <pt x="467" y="321" on="0"/>
        <pt x="514" y="400" on="0"/>
        <pt x="514" y="446" on="1"/>
        <pt x="514" y="1400" on="1"/>
        <pt x="814" y="1400" on="1"/>
        <pt x="814" y="446" on="1"/>
        <pt x="814" y="318" on="0"/>
        <pt x="687" y="101" on="0"/>
        <pt x="470" y="-26" on="0"/>
        <pt x="342" y="-26" on="1"/>
      </contour>
    </TTGlyph>
    <TTGlyph name="K" xMin="120" yMin="0" xMax="1210" yMax="1400">
      <contour>
        <pt x="818" y="0" on="1"/>
        <pt x="460" y="506" on="1"/>
        <pt x="420" y="458" on="1"/>
        <pt x="420" y="0" on="1"/>
        <pt x="120" y="0" on="1"/>
        <pt x="120" y="1400" on="1"/>
        <pt x="420" y="1400" on="1"/>
        <pt x="420" y="924" on="1"/>
        <pt x="818" y="1400" on="1"/>
        <pt x="1210" y="1400" on="1"/>
        <pt x="656" y="740" on="1"/>
        <pt x="1210" y="0" on="1"/>
      </contour>
    </TTGlyph>
    <TTGlyph name="L" xMin="120" yMin="0" xMax="970" yMax="1400">
      <contour>
        <pt x="120" y="1400" on="1"/>
        <pt x="420" y="1400" on="1"/>
        <pt x="420" y="300" on="1"/>
        <pt x="970" y="300" on="1"/>
        <pt x="970" y="0" on="1"/>
        <pt x="120" y="0" on="1"/>
      </contour>
    </TTGlyph>
    <TTGlyph name="M" xMin="120" yMin="0" xMax="1804" yMax="1400">
      <contour>
        <pt x="392" y="1400" on="1"/>
        <pt x="648" y="1400" on="1"/>
        <pt x="962" y="574" on="1"/>
        <pt x="1276" y="1400" on="1"/>
        <pt x="1532" y="1400" on="1"/>
        <pt x="1804" y="0" on="1"/>
        <pt x="1498" y="0" on="1"/>
        <pt x="1352" y="756" on="1"/>
        <pt x="1066" y="0" on="1"/>
        <pt x="858" y="0" on="1"/>
        <pt x="572" y="756" on="1"/>
        <pt x="426" y="0" on="1"/>
        <pt x="120" y="0" on="1"/>
      </contour>
    </TTGlyph>
    <TTGlyph name="N" xMin="120" yMin="0" xMax="1256" yMax="1400">
      <contour>
        <pt x="120" y="1400" on="1"/>
        <pt x="444" y="1400" on="1"/>
        <pt x="956" y="542" on="1"/>
        <pt x="956" y="1400" on="1"/>
        <pt x="1256" y="1400" on="1"/>
        <pt x="1256" y="0" on="1"/>
        <pt x="932" y="0" on="1"/>
        <pt x="420" y="858" on="1"/>
        <pt x="420" y="0" on="1"/>
        <pt x="120" y="0" on="1"/>
      </contour>
    </TTGlyph>
    <TTGlyph name="Ntilde" xMin="120" yMin="0" xMax="1256" yMax="1828">
      <component glyphName="N" x="0" y="0" flags="0x0"/>
      <component glyphName="tildecomb" x="34" y="308" flags="0x4"/>
    </TTGlyph>
    <TTGlyph name="O" xMin="80" yMin="-26" xMax="1460" yMax="1426">
      <contour>
        <pt x="583" y="-26" on="0"/>
        <pt x="266" y="170" on="0"/>
        <pt x="80" y="503" on="0"/>
        <pt x="80" y="700" on="1"/>
        <pt x="80" y="897" on="0"/>
        <pt x="266" y="1230" on="0"/>
        <pt x="583" y="1426" on="0"/>
        <pt x="770" y="1426" on="1"/>
        <pt x="957" y="1426" on="0"/>
        <pt x="1274" y="1230" on="0"/>
        <pt x="1460" y="897" on="0"/>
        <pt x="1460" y="700" on="1"/>
        <pt x="1460" y="503" on="0"/>
        <pt x="1274" y="170" on="0"/>
        <pt x="957" y="-26" on="0"/>
        <pt x="770" y="-26" on="1"/>
      </contour>
      <contour>
        <pt x="875" y="274" on="0"/>
        <pt x="1055" y="389" on="0"/>
        <pt x="1160" y="585" on="0"/>
        <pt x="1160" y="700" on="1"/>
        <pt x="1160" y="815" on="0"/>
        <pt x="1055" y="1011" on="0"/>
        <pt x="875" y="1126" on="0"/>
        <pt x="770" y="1126" on="1"/>
        <pt x="665" y="1126" on="0"/>
        <pt x="485" y="1011" on="0"/>
        <pt x="380" y="815" on="0"/>
        <pt x="380" y="700" on="1"/>
        <pt x="380" y="585" on="0"/>
        <pt x="485" y="389" on="0"/>
        <pt x="665" y="274" on="0"/>
        <pt x="770" y="274" on="1"/>
      </contour>
    </TTGlyph>
    <TTGlyph name="OE" xMin="80" yMin="-26" xMax="1996" yMax="1426">
      <contour>
        <pt x="583" y="-26" on="0"/>
        <pt x="266" y="170" on="0"/>
        <pt x="80" y="503" on="0"/>
        <pt x="80" y="700" on="1"/>
        <pt x="80" y="897" on="0"/>
        <pt x="266" y="1230" on="0"/>
        <pt x="583" y="1426" on="0"/>
        <pt x="770" y="1426" on="1"/>
        <pt x="842" y="1426" on="0"/>
        <pt x="980" y="1395" on="0"/>
        <pt x="1107" y="1337" on="0"/>
        <pt x="1164" y="1296" on="1"/>
        <pt x="1164" y="1400" on="1"/>
        <pt x="1996" y="1400" on="1"/>
        <pt x="1996" y="1100" on="1"/>
        <pt x="1464" y="1100" on="1"/>
        <pt x="1464" y="850" on="1"/>
        <pt x="1900" y="850" on="1"/>
        <pt x="1900" y="550" on="1"/>
        <pt x="1464" y="550" on="1"/>
        <pt x="1464" y="300" on="1"/>
        <pt x="1996" y="300" on="1"/>
        <pt x="1996" y="0" on="1"/>
        <pt x="1164" y="0" on="1"/>
        <pt x="1164" y="104" on="1"/>
        <pt x="1107" y="63" on="0"/>
        <pt x="980" y="5" on="0"/>
        <pt x="842" y="-26" on="0"/>
        <pt x="770" y="-26" on="1"/>
      </contour>
      <contour>
        <pt x="875" y="274" on="0"/>
        <pt x="1055" y="389" on="0"/>
        <pt x="1160" y="585" on="0"/>
        <pt x="1160" y="700" on="1"/>
        <pt x="1160" y="815" on="0"/>
        <pt x="1055" y="1011" on="0"/>
        <pt x="875" y="1126" on="0"/>
        <pt x="770" y="1126" on="1"/>
        <pt x="665" y="1126" on="0"/>
        <pt x="485" y="1011" on="0"/>
        <pt x="380" y="815" on="0"/>
        <pt x="380" y="700" on="1"/>
        <pt x="380" y="585" on="0"/>
        <pt x="485" y="389" on="0"/>
        <pt x="665" y="274" on="0"/>
        <pt x="770" y="274" on="1"/>
      </contour>
    </TTGlyph>
    <TTGlyph name="Oacute" xMin="80" yMin="-26" xMax="1460" yMax="1788">
      <component glyphName="O" x="0" y="0" flags="0x0"/>
      <component glyphName="acutecomb" x="200" y="362" flags="0x4"/>
    </TTGlyph>
    <TTGlyph name="Ocircumflex" xMin="80" yMin="-26" xMax="1460" yMax="1734">
      <component glyphName="O" x="0" y="0" flags="0x0"/>
      <component glyphName="uni0302" x="120" y="334" flags="0x4"/>
    </TTGlyph>
    <TTGlyph name="Odieresis" xMin="80" yMin="-26" xMax="1460" yMax="1774">
      <component glyphName="O" x="0" y="0" flags="0x0"/>
      <component glyphName="uni0308" x="-2" y="350" flags="0x4"/>
    </TTGlyph>
    <TTGlyph name="Ograve" xMin="80" yMin="-26" xMax="1460" yMax="1788">
      <component glyphName="O" x="0" y="0" flags="0x0"/>
      <component glyphName="grave" x="160" y="362" flags="0x4"/>
    </TTGlyph>
    <TTGlyph name="Oslash" xMin="80" yMin="-122" xMax="1460" yMax="1522">
      <contour>
        <pt x="210" y="28" on="1"/>
        <pt x="294" y="176" on="1"/>
        <pt x="228" y="243" on="0"/>
        <pt x="132" y="409" on="0"/>
        <pt x="80" y="599" on="0"/>
        <pt x="80" y="700" on="1"/>
        <pt x="80" y="897" on="0"/>
        <pt x="266" y="1230" on="0"/>
        <pt x="583" y="1426" on="0"/>
        <pt x="770" y="1426" on="1"/>
        <pt x="883" y="1426" on="0"/>
        <pt x="994" y="1388" on="1"/>
        <pt x="1072" y="1522" on="1"/>
        <pt x="1332" y="1372" on="1"/>
        <pt x="1246" y="1226" on="1"/>
        <pt x="1347" y="1123" on="0"/>
        <pt x="1460" y="852" on="0"/>
        <pt x="1460" y="700" on="1"/>
        <pt x="1460" y="503" on="0"/>
        <pt x="1274" y="170" on="0"/>
        <pt x="957" y="-26" on="0"/>
        <pt x="770" y="-26" on="1"/>
        <pt x="656" y="-26" on="0"/>
        <pt x="548" y="14" on="1"/>
        <pt x="470" y="-122" on="1"/>
      </contour>
      <contour>
        <pt x="823" y="1123" on="0"/>
        <pt x="788" y="1126" on="0"/>
        <pt x="770" y="1126" on="1"/>
        <pt x="665" y="1126" on="0"/>
        <pt x="485" y="1011" on="0"/>
        <pt x="380" y="815" on="0"/>
        <pt x="380" y="700" on="1"/>
        <pt x="380" y="632" on="0"/>
        <pt x="419" y="506" on="0"/>
        <pt x="454" y="452" on="1"/>
        <pt x="840" y="1120" on="1"/>
      </contour>
      <contour>
        <pt x="875" y="274" on="0"/>
        <pt x="1055" y="389" on="0"/>
        <pt x="1160" y="585" on="0"/>
        <pt x="1160" y="700" on="1"/>
        <pt x="1160" y="768" on="0"/>
        <pt x="1123" y="895" on="0"/>
        <pt x="1088" y="948" on="1"/>
        <pt x="702" y="282" on="1"/>
        <pt x="718" y="278" on="0"/>
        <pt x="752" y="274" on="0"/>
        <pt x="770" y="274" on="1"/>
      </contour>
    </TTGlyph>
    <TTGlyph name="Otilde" xMin="80" yMin="-26" xMax="1460" yMax="1828">
      <component glyphName="O" x="0" y="0" flags="0x0"/>
      <component glyphName="tildecomb" x="130" y="308" flags="0x4"/>
    </TTGlyph>
    <TTGlyph name="P" xMin="120" yMin="0" xMax="1060" yMax="1400">
      <contour>
        <pt x="120" y="1400" on="1"/>
        <pt x="648" y="1400" on="1"/>
        <pt x="761" y="1400" on="0"/>
        <pt x="950" y="1283" on="0"/>
        <pt x="1060" y="1087" on="0"/>
        <pt x="1060" y="972" on="1"/>
        <pt x="1060" y="856" on="0"/>
        <pt x="947" y="660" on="0"/>
        <pt x="757" y="544" on="0"/>
        <pt x="648" y="544" on="1"/>
        <pt x="420" y="544" on="1"/>
        <pt x="420" y="0" on="1"/>
        <pt x="120" y="0" on="1"/>
      </contour>
      <contour>
        <pt x="653" y="844" on="0"/>
        <pt x="720" y="885" on="0"/>
        <pt x="760" y="954" on="0"/>
        <pt x="760" y="994" on="1"/>
        <pt x="760" y="1034" on="0"/>
        <pt x="720" y="1103" on="0"/>
        <pt x="653" y="1144" on="0"/>
        <pt x="614" y="1144" on="1"/>
        <pt x="420" y="1144" on="1"/>
        <pt x="420" y="844" on="1"/>
        <pt x="614" y="844" on="1"/>
      </contour>
    </TTGlyph>
    <TTGlyph name="Q" xMin="80" yMin="-52" xMax="1504" yMax="1434">
      <contour>
        <pt x="1061" y="41" on="0"/>
        <pt x="872" y="-18" on="0"/>
        <pt x="770" y="-18" on="1"/>
        <pt x="583" y="-18" on="0"/>
        <pt x="266" y="177" on="0"/>
        <pt x="80" y="510" on="0"/>
        <pt x="80" y="708" on="1"/>
        <pt x="80" y="905" on="0"/>
        <pt x="266" y="1238" on="0"/>
        <pt x="583" y="1434" on="0"/>
        <pt x="770" y="1434" on="1"/>
        <pt x="957" y="1434" on="0"/>
        <pt x="1274" y="1238" on="0"/>
        <pt x="1460" y="905" on="0"/>
        <pt x="1460" y="708" on="1"/>
        <pt x="1460" y="601" on="0"/>
        <pt x="1403" y="402" on="0"/>
        <pt x="1350" y="314" on="1"/>
        <pt x="1504" y="160" on="1"/>
        <pt x="1292" y="-52" on="1"/>
        <pt x="1142" y="96" on="1"/>
      </contour>
      <contour>
        <pt x="810" y="282" on="0"/>
        <pt x="888" y="299" on="0"/>
        <pt x="924" y="316" on="1"/>
        <pt x="840" y="400" on="1"/>
        <pt x="1052" y="612" on="1"/>
        <pt x="1126" y="538" on="1"/>
        <pt x="1143" y="577" on="0"/>
        <pt x="1160" y="663" on="0"/>
        <pt x="1160" y="708" on="1"/>
        <pt x="1160" y="823" on="0"/>
        <pt x="1055" y="1019" on="0"/>
        <pt x="875" y="1134" on="0"/>
        <pt x="770" y="1134" on="1"/>
        <pt x="665" y="1134" on="0"/>
        <pt x="485" y="1019" on="0"/>
        <pt x="380" y="823" on="0"/>
        <pt x="380" y="708" on="1"/>
        <pt x="380" y="592" on="0"/>
        <pt x="485" y="396" on="0"/>
        <pt x="665" y="282" on="0"/>
        <pt x="770" y="282" on="1"/>
      </contour>
    </TTGlyph>
    <TTGlyph name="R" xMin="120" yMin="0" xMax="1186" yMax="1400">
      <contour>
        <pt x="120" y="1400" on="1"/>
        <pt x="690" y="1400" on="1"/>
        <pt x="803" y="1400" on="0"/>
        <pt x="991" y="1284" on="0"/>
        <pt x="1100" y="1088" on="0"/>
        <pt x="1100" y="972" on="1"/>
        <pt x="1100" y="883" on="0"/>
        <pt x="1040" y="727" on="0"/>
        <pt x="929" y="608" on="0"/>
        <pt x="854" y="572" on="1"/>
        <pt x="1186" y="0" on="1"/>
        <pt x="840" y="0" on="1"/>
        <pt x="524" y="544" on="1"/>
        <pt x="420" y="544" on="1"/>
        <pt x="420" y="0" on="1"/>
        <pt x="120" y="0" on="1"/>
      </contour>
      <contour>
        <pt x="693" y="844" on="0"/>
        <pt x="760" y="885" on="0"/>
        <pt x="800" y="954" on="0"/>
        <pt x="800" y="994" on="1"/>
        <pt x="800" y="1034" on="0"/>
        <pt x="760" y="1103" on="0"/>
        <pt x="693" y="1144" on="0"/>
        <pt x="654" y="1144" on="1"/>
        <pt x="420" y="1144" on="1"/>
        <pt x="420" y="844" on="1"/>
        <pt x="654" y="844" on="1"/>
      </contour>
    </TTGlyph>
    <TTGlyph name="S" xMin="100" yMin="-26" xMax="1164" yMax="1426">
      <contour>
        <pt x="514" y="-26" on="0"/>
        <pt x="296" y="50" on="0"/>
        <pt x="135" y="192" on="0"/>
        <pt x="100" y="288" on="1"/>
        <pt x="382" y="392" on="1"/>
        <pt x="392" y="362" on="0"/>
        <pt x="463" y="308" on="0"/>
        <pt x="570" y="274" on="0"/>
        <pt x="632" y="274" on="1"/>
        <pt x="692" y="274" on="0"/>
        <pt x="799" y="309" on="0"/>
        <pt x="864" y="372" on="0"/>
        <pt x="864" y="412" on="1"/>
        <pt x="864" y="470" on="0"/>
        <pt x="731" y="536" on="0"/>
        <pt x="632" y="550" on="1"/>
        <pt x="471" y="573" on="0"/>
        <pt x="235" y="676" on="0"/>
        <pt x="100" y="856" on="0"/>
        <pt x="100" y="988" on="1"/>
        <pt x="100" y="1115" on="0"/>
        <pt x="246" y="1315" on="0"/>
        <pt x="491" y="1426" on="0"/>
        <pt x="632" y="1426" on="1"/>
        <pt x="751" y="1426" on="0"/>
        <pt x="969" y="1350" on="0"/>
        <pt x="1130" y="1207" on="0"/>
        <pt x="1164" y="1110" on="1"/>
        <pt x="882" y="1008" on="1"/>
        <pt x="872" y="1038" on="0"/>
        <pt x="802" y="1091" on="0"/>
        <pt x="694" y="1124" on="0"/>
        <pt x="632" y="1124" on="1"/>
        <pt x="574" y="1125" on="0"/>
        <pt x="467" y="1089" on="0"/>
        <pt x="400" y="1026" on="0"/>
        <pt x="400" y="988" on="1"/>
        <pt x="400" y="939" on="0"/>
        <pt x="456" y="885" on="0"/>
        <pt x="542" y="863" on="0"/>
        <pt x="622" y="851" on="1"/>
        <pt x="624" y="851" on="0"/>
        <pt x="630" y="850" on="0"/>
        <pt x="632" y="850" on="1"/>
        <pt x="783" y="828" on="0"/>
        <pt x="1022" y="718" on="0"/>
        <pt x="1164" y="536" on="0"/>
        <pt x="1164" y="412" on="1"/>
        <pt x="1164" y="285" on="0"/>
        <pt x="1019" y="85" on="0"/>
        <pt x="775" y="-26" on="0"/>
        <pt x="632" y="-26" on="1"/>
      </contour>
    </TTGlyph>
    <TTGlyph name="T" xMin="80" yMin="0" xMax="1180" yMax="1400">
      <contour>
        <pt x="1180" y="1100" on="1"/>
        <pt x="780" y="1100" on="1"/>
        <pt x="780" y="0" on="1"/>
        <pt x="480" y="0" on="1"/>
        <pt x="480" y="1100" on="1"/>
        <pt x="80" y="1100" on="1"/>
        <pt x="80" y="1400" on="1"/>
        <pt x="1180" y="1400" on="1"/>
      </contour>
    </TTGlyph>
    <TTGlyph name="Thorn" xMin="120" yMin="0" xMax="1060" yMax="1400">
      <contour>
        <pt x="120" y="1400" on="1"/>
        <pt x="420" y="1400" on="1"/>
        <pt x="420" y="1128" on="1"/>
        <pt x="648" y="1128" on="1"/>
        <pt x="761" y="1128" on="0"/>
        <pt x="950" y="1011" on="0"/>
        <pt x="1060" y="815" on="0"/>
        <pt x="1060" y="700" on="1"/>
        <pt x="1060" y="584" on="0"/>
        <pt x="947" y="388" on="0"/>
        <pt x="757" y="272" on="0"/>
        <pt x="648" y="272" on="1"/>
        <pt x="420" y="272" on="1"/>
        <pt x="420" y="0" on="1"/>
        <pt x="120" y="0" on="1"/>
      </contour>
      <contour>
        <pt x="653" y="572" on="0"/>
        <pt x="720" y="613" on="0"/>
        <pt x="760" y="682" on="0"/>
        <pt x="760" y="722" on="1"/>
        <pt x="760" y="762" on="0"/>
        <pt x="720" y="831" on="0"/>
        <pt x="653" y="872" on="0"/>
        <pt x="614" y="872" on="1"/>
        <pt x="420" y="872" on="1"/>
        <pt x="420" y="572" on="1"/>
        <pt x="614" y="572" on="1"/>
      </contour>
    </TTGlyph>
    <TTGlyph name="U" xMin="120" yMin="-26" xMax="1258" yMax="1400">
      <contour>
        <pt x="526" y="-26" on="0"/>
        <pt x="266" y="137" on="0"/>
        <pt x="120" y="416" on="0"/>
        <pt x="120" y="584" on="1"/>
        <pt x="120" y="1400" on="1"/>
        <pt x="420" y="1400" on="1"/>
        <pt x="420" y="584" on="1"/>
        <pt x="420" y="498" on="0"/>
        <pt x="485" y="357" on="0"/>
        <pt x="607" y="274" on="0"/>
        <pt x="690" y="274" on="1"/>
        <pt x="774" y="274" on="0"/>
        <pt x="895" y="356" on="0"/>
        <pt x="958" y="497" on="0"/>
        <pt x="958" y="584" on="1"/>
        <pt x="958" y="1400" on="1"/>
        <pt x="1258" y="1400" on="1"/>
        <pt x="1258" y="584" on="1"/>
        <pt x="1258" y="416" on="0"/>
        <pt x="1113" y="137" on="0"/>
        <pt x="854" y="-26" on="0"/>
        <pt x="690" y="-26" on="1"/>
      </contour>
    </TTGlyph>
    <TTGlyph name="Uacute" xMin="120" yMin="-26" xMax="1258" yMax="1788">
      <component glyphName="U" x="0" y="0" flags="0x0"/>
      <component glyphName="acutecomb" x="119" y="362" flags="0x4"/>
    </TTGlyph>
    <TTGlyph name="Ucircumflex" xMin="120" yMin="-26" xMax="1258" yMax="1734">
      <component glyphName="U" x="0" y="0" flags="0x0"/>
      <component glyphName="uni0302" x="38" y="334" flags="0x4"/>
    </TTGlyph>
    <TTGlyph name="Udieresis" xMin="120" yMin="-26" xMax="1258" yMax="1774">
      <component glyphName="U" x="0" y="0" flags="0x0"/>
      <component glyphName="uni0308" x="-82" y="350" flags="0x4"/>
    </TTGlyph>
    <TTGlyph name="Ugrave" xMin="120" yMin="-26" xMax="1258" yMax="1788">
      <component glyphName="U" x="0" y="0" flags="0x0"/>
      <component glyphName="grave" x="89" y="362" flags="0x4"/>
    </TTGlyph>
    <TTGlyph name="V" xMin="20" yMin="0" xMax="1424" yMax="1400">
      <contour>
        <pt x="20" y="1400" on="1"/>
        <pt x="338" y="1400" on="1"/>
        <pt x="722" y="344" on="1"/>
        <pt x="1106" y="1400" on="1"/>
        <pt x="1424" y="1400" on="1"/>
        <pt x="916" y="0" on="1"/>
        <pt x="528" y="0" on="1"/>
      </contour>
    </TTGlyph>
    <TTGlyph name="W" xMin="100" yMin="0" xMax="1860" yMax="1400">
      <contour>
        <pt x="100" y="1400" on="1"/>
        <pt x="410" y="1400" on="1"/>
        <pt x="626" y="552" on="1"/>
        <pt x="842" y="1400" on="1"/>
        <pt x="1118" y="1400" on="1"/>
        <pt x="1334" y="552" on="1"/>
        <pt x="1550" y="1400" on="1"/>
        <pt x="1860" y="1400" on="1"/>
        <pt x="1504" y="0" on="1"/>
        <pt x="1166" y="0" on="1"/>
        <pt x="980" y="726" on="1"/>
        <pt x="796" y="0" on="1"/>
        <pt x="458" y="0" on="1"/>
      </contour>
    </TTGlyph>
    <TTGlyph name="Wacute" xMin="100" yMin="0" xMax="1860" yMax="1788">
      <component glyphName="W" x="0" y="0" flags="0x0"/>
      <component glyphName="acutecomb" x="424" y="362" flags="0x4"/>
    </TTGlyph>
    <TTGlyph name="Wcircumflex" xMin="100" yMin="0" xMax="1860" yMax="1734">
      <component glyphName="W" x="0" y="0" flags="0x0"/>
      <component glyphName="uni0302" x="329" y="334" flags="0x4"/>
    </TTGlyph>
    <TTGlyph name="Wdieresis" xMin="100" yMin="0" xMax="1860" yMax="1774">
      <component glyphName="W" x="0" y="0" flags="0x0"/>
      <component glyphName="uni0308" x="209" y="350" flags="0x4"/>
    </TTGlyph>
    <TTGlyph name="Wgrave" xMin="100" yMin="0" xMax="1860" yMax="1788">
      <component glyphName="W" x="0" y="0" flags="0x0"/>
      <component glyphName="grave" x="364" y="362" flags="0x4"/>
    </TTGlyph>
    <TTGlyph name="X" xMin="60" yMin="0" xMax="1456" yMax="1402">
      <contour>
        <pt x="572" y="704" on="1"/>
        <pt x="64" y="1402" on="1"/>
        <pt x="434" y="1402" on="1"/>
        <pt x="758" y="958" on="1"/>
        <pt x="1082" y="1402" on="1"/>
        <pt x="1452" y="1402" on="1"/>
        <pt x="944" y="704" on="1"/>
        <pt x="1456" y="0" on="1"/>
        <pt x="1084" y="0" on="1"/>
        <pt x="758" y="448" on="1"/>
        <pt x="432" y="0" on="1"/>
        <pt x="60" y="0" on="1"/>
      </contour>
    </TTGlyph>
    <TTGlyph name="Y" xMin="60" yMin="0" xMax="1332" yMax="1400">
      <contour>
        <pt x="1332" y="1400" on="1"/>
        <pt x="846" y="630" on="1"/>
        <pt x="846" y="0" on="1"/>
        <pt x="546" y="0" on="1"/>
        <pt x="546" y="630" on="1"/>
        <pt x="60" y="1400" on="1"/>
        <pt x="414" y="1400" on="1"/>
        <pt x="696" y="956" on="1"/>
        <pt x="978" y="1400" on="1"/>
      </contour>
    </TTGlyph>
    <TTGlyph name="Yacute" xMin="60" yMin="0" xMax="1332" yMax="1788">
      <component glyphName="Y" x="0" y="0" flags="0x0"/>
      <component glyphName="acutecomb" x="126" y="362" flags="0x4"/>
    </TTGlyph>
    <TTGlyph name="Ycircumflex" xMin="60" yMin="0" xMax="1332" yMax="1734">
      <component glyphName="Y" x="0" y="0" flags="0x0"/>
      <component glyphName="uni0302" x="46" y="334" flags="0x4"/>
    </TTGlyph>
    <TTGlyph name="Ydieresis" xMin="60" yMin="0" xMax="1332" yMax="1774">
      <component glyphName="Y" x="0" y="0" flags="0x0"/>
      <component glyphName="uni0308" x="-76" y="350" flags="0x4"/>
    </TTGlyph>
    <TTGlyph name="Ygrave" xMin="60" yMin="0" xMax="1332" yMax="1788">
      <component glyphName="Y" x="0" y="0" flags="0x0"/>
      <component glyphName="grave" x="84" y="362" flags="0x4"/>
    </TTGlyph>
    <TTGlyph name="Z" xMin="120" yMin="0" xMax="1252" yMax="1400">
      <contour>
        <pt x="120" y="300" on="1"/>
        <pt x="846" y="1100" on="1"/>
        <pt x="120" y="1100" on="1"/>
        <pt x="120" y="1400" on="1"/>
        <pt x="1252" y="1400" on="1"/>
        <pt x="1252" y="1100" on="1"/>
        <pt x="526" y="300" on="1"/>
        <pt x="1252" y="300" on="1"/>
        <pt x="1252" y="0" on="1"/>
        <pt x="120" y="0" on="1"/>
      </contour>
    </TTGlyph>
    <TTGlyph name="a" xMin="72" yMin="-26" xMax="1150" yMax="1028">
      <contour>
        <pt x="1150" y="1000" on="1"/>
        <pt x="1150" y="0" on="1"/>
        <pt x="849" y="0" on="1"/>
        <pt x="835" y="90" on="1"/>
        <pt x="796" y="35" on="0"/>
        <pt x="682" y="-26" on="0"/>
        <pt x="610" y="-26" on="1"/>
        <pt x="463" y="-26" on="0"/>
        <pt x="216" y="119" on="0"/>
        <pt x="72" y="367" on="0"/>
        <pt x="72" y="514" on="1"/>
        <pt x="72" y="654" on="0"/>
        <pt x="208" y="890" on="0"/>
        <pt x="443" y="1028" on="0"/>
        <pt x="582" y="1028" on="1"/>
        <pt x="663" y="1028" on="0"/>
        <pt x="803" y="961" on="0"/>
        <pt x="864" y="904" on="1"/>
        <pt x="850" y="1000" on="1"/>
      </contour>
      <contour>
        <pt x="683" y="262" on="0"/>
        <pt x="784" y="330" on="0"/>
        <pt x="834" y="446" on="0"/>
        <pt x="826" y="514" on="1"/>
        <pt x="817" y="575" on="0"/>
        <pt x="745" y="678" on="0"/>
        <pt x="639" y="738" on="0"/>
        <pt x="581" y="738" on="1"/>
        <pt x="518" y="738" on="0"/>
        <pt x="418" y="670" on="0"/>
        <pt x="368" y="555" on="0"/>
        <pt x="376" y="486" on="1"/>
        <pt x="386" y="426" on="0"/>
        <pt x="458" y="323" on="0"/>
        <pt x="562" y="262" on="0"/>
        <pt x="619" y="262" on="1"/>
      </contour>
    </TTGlyph>
    <TTGlyph name="aacute" xMin="72" yMin="-26" xMax="1150" yMax="1426">
      <component glyphName="a" x="0" y="0" flags="0x0"/>
      <component glyphName="acutecomb" x="20" y="0" flags="0x0"/>
    </TTGlyph>
    <TTGlyph name="acircumflex" xMin="72" yMin="-26" xMax="1150" yMax="1400">
      <component glyphName="a" x="0" y="0" flags="0x0"/>
      <component glyphName="uni0302" x="-42" y="0" flags="0x0"/>
    </TTGlyph>
    <TTGlyph name="acute" xMin="480" yMin="1138" xMax="860" yMax="1426">
      <component glyphName="acutecomb" x="0" y="0" flags="0x0"/>
    </TTGlyph>
    <TTGlyph name="acutecomb" xMin="480" yMin="1138" xMax="860" yMax="1426">
      <contour>
        <pt x="560" y="1426" on="1"/>
        <pt x="860" y="1426" on="1"/>
        <pt x="640" y="1138" on="1"/>
        <pt x="480" y="1138" on="1"/>
      </contour>
    </TTGlyph>
    <TTGlyph name="adieresis" xMin="72" yMin="-26" xMax="1150" yMax="1424">
      <component glyphName="a" x="0" y="0" flags="0x0"/>
      <component glyphName="uni0308" x="-162" y="0" flags="0x0"/>
    </TTGlyph>
    <TTGlyph name="ae" xMin="80" yMin="-26" xMax="1777" yMax="1028">
      <contour>
        <pt x="365" y="-26" on="0"/>
        <pt x="175" y="64" on="0"/>
        <pt x="80" y="230" on="0"/>
        <pt x="80" y="344" on="1"/>
        <pt x="80" y="422" on="0"/>
        <pt x="152" y="549" on="0"/>
        <pt x="279" y="622" on="0"/>
        <pt x="358" y="622" on="1"/>
        <pt x="762" y="622" on="1"/>
        <pt x="762" y="624" on="0"/>
        <pt x="761" y="628" on="0"/>
        <pt x="760" y="630" on="1"/>
        <pt x="751" y="670" on="0"/>
        <pt x="694" y="727" on="0"/>
        <pt x="607" y="756" on="0"/>
        <pt x="552" y="756" on="1"/>
        <pt x="490" y="756" on="0"/>
        <pt x="419" y="736" on="0"/>
        <pt x="390" y="708" on="0"/>
        <pt x="377" y="687" on="1"/>
        <pt x="376" y="686" on="1"/>
        <pt x="118" y="838" on="1"/>
        <pt x="164" y="918" on="0"/>
        <pt x="289" y="1000" on="0"/>
        <pt x="442" y="1028" on="0"/>
        <pt x="552" y="1028" on="1"/>
        <pt x="676" y="1028" on="0"/>
        <pt x="869" y="967" on="0"/>
        <pt x="934" y="904" on="1"/>
        <pt x="978" y="943" on="0"/>
        <pt x="1082" y="999" on="0"/>
        <pt x="1197" y="1028" on="0"/>
        <pt x="1258" y="1028" on="1"/>
        <pt x="1413" y="1028" on="0"/>
        <pt x="1661" y="849" on="0"/>
        <pt x="1777" y="559" on="0"/>
        <pt x="1748" y="402" on="1"/>
        <pt x="1082" y="402" on="1"/>
        <pt x="1097" y="364" on="0"/>
        <pt x="1144" y="308" on="0"/>
        <pt x="1213" y="275" on="0"/>
        <pt x="1258" y="274" on="1"/>
        <pt x="1301" y="274" on="0"/>
        <pt x="1377" y="313" on="0"/>
        <pt x="1404" y="348" on="1"/>
        <pt x="1710" y="276" on="1"/>
        <pt x="1670" y="187" on="0"/>
        <pt x="1533" y="50" on="0"/>
        <pt x="1356" y="-26" on="0"/>
        <pt x="1258" y="-26" on="1"/>
        <pt x="1196" y="-26" on="0"/>
        <pt x="1079" y="4" on="0"/>
        <pt x="974" y="62" on="0"/>
        <pt x="930" y="102" on="1"/>
        <pt x="886" y="56" on="0"/>
        <pt x="799" y="1" on="0"/>
        <pt x="696" y="-26" on="0"/>
        <pt x="630" y="-26" on="1"/>
        <pt x="504" y="-26" on="1"/>
      </contour>
      <contour>
        <pt x="603" y="154" on="0"/>
        <pt x="694" y="205" on="0"/>
        <pt x="750" y="289" on="0"/>
        <pt x="752" y="336" on="1"/>
        <pt x="752" y="338" on="0"/>
        <pt x="752" y="342" on="0"/>
        <pt x="752" y="344" on="1"/>
        <pt x="752" y="402" on="1"/>
        <pt x="530" y="402" on="1"/>
        <pt x="452" y="402" on="0"/>
        <pt x="370" y="366" on="0"/>
        <pt x="370" y="310" on="1"/>
        <pt x="370" y="238" on="0"/>
        <pt x="466" y="154" on="0"/>
        <pt x="550" y="154" on="1"/>
      </contour>
      <contour>
        <pt x="1430" y="665" on="0"/>
        <pt x="1375" y="731" on="0"/>
        <pt x="1300" y="768" on="0"/>
        <pt x="1258" y="768" on="1"/>
        <pt x="1216" y="768" on="0"/>
        <pt x="1140" y="731" on="0"/>
        <pt x="1084" y="665" on="0"/>
        <pt x="1070" y="622" on="1"/>
        <pt x="1444" y="622" on="1"/>
      </contour>
    </TTGlyph>
    <TTGlyph name="agrave" xMin="72" yMin="-26" xMax="1150" yMax="1426">
      <component glyphName="a" x="0" y="0" flags="0x0"/>
      <component glyphName="grave" x="-40" y="0" flags="0x0"/>
    </TTGlyph>
    <TTGlyph name="ampersand" xMin="80" yMin="-26" xMax="1358" yMax="1446">
      <contour>
        <pt x="402" y="-26" on="0"/>
        <pt x="198" y="96" on="0"/>
        <pt x="80" y="300" on="0"/>
        <pt x="80" y="418" on="1"/>
        <pt x="80" y="494" on="0"/>
        <pt x="113" y="603" on="0"/>
        <pt x="189" y="708" on="0"/>
        <pt x="263" y="784" on="1"/>
        <pt x="312" y="834" on="1"/>
        <pt x="290" y="857" on="1"/>
        <pt x="251" y="899" on="0"/>
        <pt x="205" y="972" on="0"/>
        <pt x="184" y="1053" on="0"/>
        <pt x="184" y="1104" on="1"/>
        <pt x="184" y="1200" on="0"/>
        <pt x="277" y="1357" on="0"/>
        <pt x="433" y="1446" on="0"/>
        <pt x="524" y="1446" on="1"/>
        <pt x="617" y="1446" on="0"/>
        <pt x="774" y="1355" on="0"/>
        <pt x="866" y="1198" on="0"/>
        <pt x="866" y="1104" on="1"/>
        <pt x="866" y="1052" on="0"/>
        <pt x="844" y="971" on="0"/>
        <pt x="798" y="898" on="0"/>
        <pt x="759" y="857" on="1"/>
        <pt x="753" y="852" on="0"/>
        <pt x="742" y="840" on="0"/>
        <pt x="736" y="834" on="1"/>
        <pt x="940" y="630" on="1"/>
        <pt x="1210" y="900" on="1"/>
        <pt x="1210" y="476" on="1"/>
        <pt x="1152" y="418" on="1"/>
        <pt x="1358" y="212" on="1"/>
        <pt x="1146" y="0" on="1"/>
        <pt x="940" y="206" on="1"/>
        <pt x="928" y="194" on="0"/>
        <pt x="905" y="172" on="0"/>
        <pt x="894" y="161" on="1"/>
        <pt x="816" y="85" on="0"/>
        <pt x="709" y="7" on="0"/>
        <pt x="600" y="-26" on="0"/>
        <pt x="524" y="-26" on="1"/>
      </contour>
      <contour>
        <pt x="554" y="274" on="0"/>
        <pt x="600" y="294" on="0"/>
        <pt x="645" y="333" on="0"/>
        <pt x="689" y="378" on="1"/>
        <pt x="728" y="418" on="1"/>
        <pt x="524" y="622" on="1"/>
        <pt x="482" y="581" on="1"/>
        <pt x="436" y="536" on="0"/>
        <pt x="398" y="492" on="0"/>
        <pt x="380" y="449" on="0"/>
        <pt x="380" y="418" on="1"/>
        <pt x="380" y="377" on="0"/>
        <pt x="421" y="311" on="0"/>
        <pt x="488" y="274" on="0"/>
        <pt x="524" y="274" on="1"/>
      </contour>
      <contour>
        <pt x="533" y="1008" on="0"/>
        <pt x="548" y="1023" on="0"/>
        <pt x="555" y="1029" on="1"/>
        <pt x="578" y="1051" on="0"/>
        <pt x="596" y="1072" on="0"/>
        <pt x="604" y="1093" on="0"/>
        <pt x="604" y="1110" on="1"/>
        <pt x="604" y="1135" on="0"/>
        <pt x="579" y="1172" on="0"/>
        <pt x="542" y="1190" on="0"/>
        <pt x="524" y="1190" on="1"/>
        <pt x="504" y="1190" on="0"/>
        <pt x="467" y="1169" on="0"/>
        <pt x="444" y="1132" on="0"/>
        <pt x="444" y="1110" on="1"/>
        <pt x="444" y="1093" on="0"/>
        <pt x="454" y="1069" on="0"/>
        <pt x="475" y="1046" on="0"/>
        <pt x="498" y="1025" on="1"/>
        <pt x="514" y="1009" on="0"/>
        <pt x="524" y="1000" on="1"/>
      </contour>
    </TTGlyph>
    <TTGlyph name="approxequal" xMin="30" yMin="110" xMax="1238" yMax="1090">
      <component glyphName="asciitilde" x="-40" y="274" flags="0x4"/>
      <component glyphName="asciitilde" x="-40" y="-274" flags="0x4"/>
    </TTGlyph>
    <TTGlyph name="aring" xMin="72" yMin="-26" xMax="1150" yMax="1482">
      <component glyphName="a" x="0" y="0" flags="0x0"/>
      <component glyphName="uni030A" x="10" y="0" flags="0x0"/>
    </TTGlyph>
    <TTGlyph name="arrowboth" xMin="80" yMin="198" xMax="1848" yMax="1302">
      <contour>
        <pt x="80" y="750" on="1"/>
        <pt x="632" y="1302" on="1"/>
        <pt x="844" y="1090" on="1"/>
        <pt x="654" y="900" on="1"/>
        <pt x="1272" y="900" on="1"/>
        <pt x="1084" y="1090" on="1"/>
        <pt x="1296" y="1302" on="1"/>
        <pt x="1848" y="750" on="1"/>
        <pt x="1296" y="198" on="1"/>
        <pt x="1084" y="410" on="1"/>
        <pt x="1272" y="600" on="1"/>
        <pt x="654" y="600" on="1"/>
        <pt x="844" y="410" on="1"/>
        <pt x="632" y="198" on="1"/>
      </contour>
    </TTGlyph>
    <TTGlyph name="arrowdown" xMin="80" yMin="116" xMax="1182" yMax="1384">
      <contour>
        <pt x="80" y="668" on="1"/>
        <pt x="292" y="880" on="1"/>
        <pt x="480" y="692" on="1"/>
        <pt x="480" y="1384" on="1"/>
        <pt x="780" y="1384" on="1"/>
        <pt x="780" y="692" on="1"/>
        <pt x="970" y="880" on="1"/>
        <pt x="1182" y="668" on="1"/>
        <pt x="630" y="116" on="1"/>
      </contour>
    </TTGlyph>
    <TTGlyph name="arrowleft" xMin="80" yMin="198" xMax="1346" yMax="1302">
      <contour>
        <pt x="80" y="750" on="1"/>
        <pt x="632" y="1302" on="1"/>
        <pt x="844" y="1090" on="1"/>
        <pt x="654" y="900" on="1"/>
        <pt x="1346" y="900" on="1"/>
        <pt x="1346" y="600" on="1"/>
        <pt x="654" y="600" on="1"/>
        <pt x="844" y="410" on="1"/>
        <pt x="632" y="198" on="1"/>
      </contour>
    </TTGlyph>
    <TTGlyph name="arrowright" xMin="80" yMin="198" xMax="1348" yMax="1302">
      <contour>
        <pt x="584" y="410" on="1"/>
        <pt x="772" y="600" on="1"/>
        <pt x="80" y="600" on="1"/>
        <pt x="80" y="900" on="1"/>
        <pt x="772" y="900" on="1"/>
        <pt x="584" y="1090" on="1"/>
        <pt x="796" y="1302" on="1"/>
        <pt x="1348" y="750" on="1"/>
        <pt x="796" y="198" on="1"/>
      </contour>
    </TTGlyph>
    <TTGlyph name="arrowup" xMin="80" yMin="116" xMax="1184" yMax="1384">
      <contour>
        <pt x="482" y="808" on="1"/>
        <pt x="292" y="620" on="1"/>
        <pt x="80" y="832" on="1"/>
        <pt x="632" y="1384" on="1"/>
        <pt x="1184" y="832" on="1"/>
        <pt x="972" y="620" on="1"/>
        <pt x="782" y="808" on="1"/>
        <pt x="782" y="116" on="1"/>
        <pt x="482" y="116" on="1"/>
      </contour>
    </TTGlyph>
    <TTGlyph name="arrowupdn" xMin="80" yMin="-134" xMax="1184" yMax="1634">
      <contour>
        <pt x="80" y="418" on="1"/>
        <pt x="292" y="630" on="1"/>
        <pt x="482" y="442" on="1"/>
        <pt x="482" y="1058" on="1"/>
        <pt x="292" y="870" on="1"/>
        <pt x="80" y="1082" on="1"/>
        <pt x="632" y="1634" on="1"/>
        <pt x="1184" y="1082" on="1"/>
        <pt x="972" y="870" on="1"/>
        <pt x="782" y="1058" on="1"/>
        <pt x="782" y="442" on="1"/>
        <pt x="972" y="630" on="1"/>
        <pt x="1184" y="418" on="1"/>
        <pt x="632" y="-134" on="1"/>
      </contour>
    </TTGlyph>
    <TTGlyph name="asciicircum" xMin="80" yMin="1000" xMax="972" yMax="1650">
      <contour>
        <pt x="316" y="1650" on="1"/>
        <pt x="736" y="1650" on="1"/>
        <pt x="972" y="1000" on="1"/>
        <pt x="652" y="1000" on="1"/>
        <pt x="526" y="1348" on="1"/>
        <pt x="400" y="1000" on="1"/>
        <pt x="80" y="1000" on="1"/>
      </contour>
    </TTGlyph>
    <TTGlyph name="asciitilde" xMin="70" yMin="384" xMax="1278" yMax="816">
      <contour>
        <pt x="934" y="384" on="0"/>
        <pt x="792" y="426" on="0"/>
        <pt x="683" y="467" on="1"/>
        <pt x="587" y="503" on="0"/>
        <pt x="478" y="536" on="0"/>
        <pt x="434" y="536" on="1"/>
        <pt x="411" y="536" on="0"/>
        <pt x="385" y="512" on="0"/>
        <pt x="376" y="474" on="0"/>
        <pt x="376" y="450" on="1"/>
        <pt x="82" y="458" on="1"/>
        <pt x="70" y="550" on="0"/>
        <pt x="152" y="716" on="0"/>
        <pt x="308" y="816" on="0"/>
        <pt x="402" y="816" on="1"/>
        <pt x="464" y="816" on="0"/>
        <pt x="592" y="772" on="0"/>
        <pt x="686" y="729" on="1"/>
        <pt x="763" y="693" on="0"/>
        <pt x="866" y="656" on="0"/>
        <pt x="910" y="656" on="1"/>
        <pt x="934" y="656" on="0"/>
        <pt x="961" y="679" on="0"/>
        <pt x="972" y="719" on="0"/>
        <pt x="972" y="746" on="1"/>
        <pt x="1266" y="738" on="1"/>
        <pt x="1278" y="643" on="0"/>
        <pt x="1220" y="481" on="0"/>
        <pt x="1089" y="384" on="0"/>
        <pt x="996" y="384" on="1"/>
      </contour>
    </TTGlyph>
    <TTGlyph name="asterisk" xMin="50" yMin="826" xMax="654" yMax="1400">
      <contour>
        <pt x="102" y="944" on="1"/>
        <pt x="190" y="1064" on="1"/>
        <pt x="50" y="1108" on="1"/>
        <pt x="110" y="1300" on="1"/>
        <pt x="252" y="1254" on="1"/>
        <pt x="252" y="1400" on="1"/>
        <pt x="452" y="1400" on="1"/>
        <pt x="452" y="1254" on="1"/>
        <pt x="592" y="1300" on="1"/>
        <pt x="654" y="1108" on="1"/>
        <pt x="512" y="1064" on="1"/>
        <pt x="600" y="944" on="1"/>
        <pt x="438" y="826" on="1"/>
        <pt x="352" y="946" on="1"/>
        <pt x="264" y="826" on="1"/>
      </contour>
    </TTGlyph>
    <TTGlyph name="at" xMin="80" yMin="-286" xMax="1810" yMax="1416">
      <contour>
        <pt x="708" y="-286" on="0"/>
        <pt x="311" y="-67" on="0"/>
        <pt x="80" y="315" on="0"/>
        <pt x="80" y="550" on="1"/>
        <pt x="80" y="786" on="0"/>
        <pt x="313" y="1183" on="0"/>
        <pt x="710" y="1416" on="0"/>
        <pt x="945" y="1416" on="1"/>
        <pt x="1181" y="1416" on="0"/>
        <pt x="1578" y="1182" on="0"/>
        <pt x="1810" y="784" on="0"/>
        <pt x="1810" y="550" on="1"/>
        <pt x="1810" y="409" on="0"/>
        <pt x="1719" y="160" on="0"/>
        <pt x="1545" y="8" on="0"/>
        <pt x="1426" y="8" on="1"/>
        <pt x="1363" y="8" on="0"/>
        <pt x="1227" y="63" on="0"/>
        <pt x="1126" y="154" on="0"/>
        <pt x="1113" y="205" on="1"/>
        <pt x="1074" y="179" on="0"/>
        <pt x="980" y="152" on="0"/>
        <pt x="927" y="152" on="1"/>
        <pt x="819" y="152" on="0"/>
        <pt x="637" y="259" on="0"/>
        <pt x="530" y="442" on="0"/>
        <pt x="530" y="550" on="1"/>
        <pt x="530" y="658" on="0"/>
        <pt x="637" y="841" on="0"/>
        <pt x="819" y="948" on="0"/>
        <pt x="927" y="948" on="1"/>
        <pt x="977" y="948" on="0"/>
        <pt x="1096" y="927" on="0"/>
        <pt x="1129" y="909" on="1"/>
        <pt x="1129" y="927" on="1"/>
        <pt x="1349" y="877" on="1"/>
        <pt x="1349" y="374" on="1"/>
        <pt x="1349" y="352" on="0"/>
        <pt x="1361" y="323" on="0"/>
        <pt x="1387" y="308" on="0"/>
        <pt x="1406" y="308" on="1"/>
        <pt x="1441" y="308" on="0"/>
        <pt x="1488" y="391" on="0"/>
        <pt x="1510" y="505" on="0"/>
        <pt x="1510" y="550" on="1"/>
        <pt x="1510" y="704" on="0"/>
        <pt x="1357" y="964" on="0"/>
        <pt x="1097" y="1116" on="0"/>
        <pt x="945" y="1116" on="1"/>
        <pt x="792" y="1116" on="0"/>
        <pt x="533" y="964" on="0"/>
        <pt x="380" y="704" on="0"/>
        <pt x="380" y="550" on="1"/>
        <pt x="380" y="397" on="0"/>
        <pt x="530" y="152" on="0"/>
        <pt x="789" y="14" on="0"/>
        <pt x="945" y="14" on="1"/>
        <pt x="945" y="-286" on="1"/>
      </contour>
      <contour>
        <pt x="1001" y="371" on="0"/>
        <pt x="1083" y="420" on="0"/>
        <pt x="1132" y="502" on="0"/>
        <pt x="1132" y="550" on="1"/>
        <pt x="1132" y="599" on="0"/>
        <pt x="1084" y="681" on="0"/>
        <pt x="1001" y="729" on="0"/>
        <pt x="953" y="729" on="1"/>
        <pt x="905" y="729" on="0"/>
        <pt x="822" y="681" on="0"/>
        <pt x="774" y="599" on="0"/>
        <pt x="774" y="550" on="1"/>
        <pt x="774" y="502" on="0"/>
        <pt x="823" y="420" on="0"/>
        <pt x="905" y="371" on="0"/>
        <pt x="953" y="371" on="1"/>
      </contour>
    </TTGlyph>
    <TTGlyph name="atilde" xMin="72" yMin="-26" xMax="1150" yMax="1520">
      <component glyphName="a" x="0" y="0" flags="0x0"/>
      <component glyphName="tildecomb" x="-30" y="0" flags="0x0"/>
    </TTGlyph>
    <TTGlyph name="b" xMin="120" yMin="-26" xMax="1200" yMax="1500">
      <contour>
        <pt x="816" y="1028" on="0"/>
        <pt x="1058" y="886" on="0"/>
        <pt x="1200" y="645" on="0"/>
        <pt x="1200" y="502" on="1"/>
        <pt x="1200" y="358" on="0"/>
        <pt x="1058" y="116" on="0"/>
        <pt x="816" y="-26" on="0"/>
        <pt x="672" y="-26" on="1"/>
        <pt x="596" y="-26" on="0"/>
        <pt x="470" y="38" on="0"/>
        <pt x="420" y="94" on="1"/>
        <pt x="420" y="0" on="1"/>
        <pt x="120" y="0" on="1"/>
        <pt x="120" y="1500" on="1"/>
        <pt x="420" y="1500" on="1"/>
        <pt x="420" y="908" on="1"/>
        <pt x="470" y="964" on="0"/>
        <pt x="596" y="1028" on="0"/>
        <pt x="672" y="1028" on="1"/>
      </contour>
      <contour>
        <pt x="729" y="264" on="0"/>
        <pt x="832" y="328" on="0"/>
        <pt x="892" y="437" on="0"/>
        <pt x="892" y="502" on="1"/>
        <pt x="892" y="566" on="0"/>
        <pt x="832" y="675" on="0"/>
        <pt x="729" y="740" on="0"/>
        <pt x="668" y="740" on="1"/>
        <pt x="608" y="740" on="0"/>
        <pt x="506" y="675" on="0"/>
        <pt x="446" y="566" on="0"/>
        <pt x="446" y="502" on="1"/>
        <pt x="446" y="437" on="0"/>
        <pt x="506" y="328" on="0"/>
        <pt x="608" y="264" on="0"/>
        <pt x="668" y="264" on="1"/>
      </contour>
    </TTGlyph>
    <TTGlyph name="backslash" xMin="80" yMin="-112" xMax="784" yMax="1400">
      <contour>
        <pt x="80" y="1400" on="1"/>
        <pt x="380" y="1400" on="1"/>
        <pt x="784" y="-112" on="1"/>
        <pt x="484" y="-112" on="1"/>
      </contour>
    </TTGlyph>
    <TTGlyph name="bar" xMin="140" yMin="-302" xMax="440" yMax="1400">
      <contour>
        <pt x="440" y="1400" on="1"/>
        <pt x="440" y="-302" on="1"/>
        <pt x="140" y="-302" on="1"/>
        <pt x="140" y="1400" on="1"/>
      </contour>
    </TTGlyph>
    <TTGlyph name="braceleft" xMin="120" yMin="-112" xMax="730" yMax="1400">
      <contour>
        <pt x="509" y="-112" on="0"/>
        <pt x="348" y="-18" on="0"/>
        <pt x="254" y="143" on="0"/>
        <pt x="254" y="238" on="1"/>
        <pt x="254" y="482" on="1"/>
        <pt x="254" y="502" on="0"/>
        <pt x="224" y="531" on="0"/>
        <pt x="194" y="551" on="1"/>
        <pt x="158" y="574" on="0"/>
        <pt x="120" y="614" on="0"/>
        <pt x="120" y="644" on="1"/>
        <pt x="120" y="671" on="0"/>
        <pt x="160" y="713" on="0"/>
        <pt x="196" y="738" on="1"/>
        <pt x="227" y="761" on="0"/>
        <pt x="254" y="787" on="0"/>
        <pt x="254" y="804" on="1"/>
        <pt x="254" y="1050" on="1"/>
        <pt x="254" y="1145" on="0"/>
        <pt x="348" y="1305" on="0"/>
        <pt x="509" y="1400" on="0"/>
        <pt x="604" y="1400" on="1"/>
        <pt x="730" y="1400" on="1"/>
        <pt x="730" y="1100" on="1"/>
        <pt x="604" y="1100" on="1"/>
        <pt x="590" y="1100" on="0"/>
        <pt x="567" y="1087" on="0"/>
        <pt x="554" y="1064" on="0"/>
        <pt x="554" y="1050" on="1"/>
        <pt x="554" y="794" on="1"/>
        <pt x="553" y="780" on="0"/>
        <pt x="541" y="753" on="0"/>
        <pt x="521" y="727" on="0"/>
        <pt x="511" y="715" on="1"/>
        <pt x="491" y="692" on="0"/>
        <pt x="472" y="662" on="0"/>
        <pt x="472" y="644" on="1"/>
        <pt x="472" y="624" on="0"/>
        <pt x="492" y="592" on="0"/>
        <pt x="512" y="570" on="1"/>
        <pt x="522" y="559" on="0"/>
        <pt x="541" y="535" on="0"/>
        <pt x="553" y="509" on="0"/>
        <pt x="554" y="494" on="1"/>
        <pt x="554" y="238" on="1"/>
        <pt x="554" y="224" on="0"/>
        <pt x="567" y="201" on="0"/>
        <pt x="590" y="188" on="0"/>
        <pt x="604" y="188" on="1"/>
        <pt x="730" y="188" on="1"/>
        <pt x="730" y="-112" on="1"/>
        <pt x="604" y="-112" on="1"/>
      </contour>
    </TTGlyph>
    <TTGlyph name="braceright" xMin="100" yMin="-112" xMax="710" yMax="1400">
      <contour>
        <pt x="100" y="188" on="1"/>
        <pt x="226" y="188" on="1"/>
        <pt x="240" y="188" on="0"/>
        <pt x="263" y="201" on="0"/>
        <pt x="276" y="224" on="0"/>
        <pt x="276" y="238" on="1"/>
        <pt x="276" y="494" on="1"/>
        <pt x="277" y="509" on="0"/>
        <pt x="289" y="535" on="0"/>
        <pt x="308" y="559" on="0"/>
        <pt x="318" y="570" on="1"/>
        <pt x="338" y="592" on="0"/>
        <pt x="358" y="624" on="0"/>
        <pt x="358" y="644" on="1"/>
        <pt x="358" y="662" on="0"/>
        <pt x="339" y="692" on="0"/>
        <pt x="319" y="715" on="1"/>
        <pt x="309" y="727" on="0"/>
        <pt x="289" y="753" on="0"/>
        <pt x="277" y="780" on="0"/>
        <pt x="276" y="794" on="1"/>
        <pt x="276" y="1050" on="1"/>
        <pt x="276" y="1064" on="0"/>
        <pt x="263" y="1087" on="0"/>
        <pt x="240" y="1100" on="0"/>
        <pt x="226" y="1100" on="1"/>
        <pt x="100" y="1100" on="1"/>
        <pt x="100" y="1400" on="1"/>
        <pt x="226" y="1400" on="1"/>
        <pt x="321" y="1400" on="0"/>
        <pt x="482" y="1305" on="0"/>
        <pt x="576" y="1145" on="0"/>
        <pt x="576" y="1050" on="1"/>
        <pt x="576" y="804" on="1"/>
        <pt x="576" y="787" on="0"/>
        <pt x="603" y="761" on="0"/>
        <pt x="634" y="738" on="1"/>
        <pt x="670" y="713" on="0"/>
        <pt x="710" y="671" on="0"/>
        <pt x="710" y="644" on="1"/>
        <pt x="710" y="614" on="0"/>
        <pt x="672" y="574" on="0"/>
        <pt x="636" y="551" on="1"/>
        <pt x="606" y="531" on="0"/>
        <pt x="576" y="502" on="0"/>
        <pt x="576" y="482" on="1"/>
        <pt x="576" y="238" on="1"/>
        <pt x="576" y="143" on="0"/>
        <pt x="482" y="-18" on="0"/>
        <pt x="321" y="-112" on="0"/>
        <pt x="226" y="-112" on="1"/>
        <pt x="100" y="-112" on="1"/>
      </contour>
    </TTGlyph>
    <TTGlyph name="bracketleft" xMin="120" yMin="-112" xMax="596" yMax="1400">
      <contour>
        <pt x="596" y="-112" on="1"/>
        <pt x="120" y="-112" on="1"/>
        <pt x="120" y="1400" on="1"/>
        <pt x="596" y="1400" on="1"/>
        <pt x="596" y="1100" on="1"/>
        <pt x="420" y="1100" on="1"/>
        <pt x="420" y="188" on="1"/>
        <pt x="596" y="188" on="1"/>
      </contour>
    </TTGlyph>
    <TTGlyph name="bracketright" xMin="100" yMin="-112" xMax="578" yMax="1400">
      <contour>
        <pt x="100" y="188" on="1"/>
        <pt x="278" y="188" on="1"/>
        <pt x="278" y="1100" on="1"/>
        <pt x="100" y="1100" on="1"/>
        <pt x="100" y="1400" on="1"/>
        <pt x="578" y="1400" on="1"/>
        <pt x="578" y="-112" on="1"/>
        <pt x="100" y="-112" on="1"/>
      </contour>
    </TTGlyph>
    <TTGlyph name="breve" xMin="240" yMin="1128" xMax="904" yMax="1460">
      <contour>
        <pt x="483" y="1128" on="0"/>
        <pt x="330" y="1218" on="0"/>
        <pt x="240" y="1371" on="0"/>
        <pt x="240" y="1460" on="1"/>
        <pt x="420" y="1460" on="1"/>
        <pt x="420" y="1420" on="0"/>
        <pt x="461" y="1350" on="0"/>
        <pt x="531" y="1308" on="0"/>
        <pt x="572" y="1308" on="1"/>
        <pt x="613" y="1308" on="0"/>
        <pt x="683" y="1348" on="0"/>
        <pt x="724" y="1418" on="0"/>
        <pt x="724" y="1460" on="1"/>
        <pt x="904" y="1460" on="1"/>
        <pt x="904" y="1369" on="0"/>
        <pt x="815" y="1217" on="0"/>
        <pt x="663" y="1128" on="0"/>
        <pt x="572" y="1128" on="1"/>
      </contour>
    </TTGlyph>
    <TTGlyph name="brokenbar" xMin="120" yMin="-302" xMax="420" yMax="1400">
      <contour>
        <pt x="420" y="448" on="1"/>
        <pt x="420" y="-302" on="1"/>
        <pt x="120" y="-302" on="1"/>
        <pt x="120" y="448" on="1"/>
      </contour>
      <contour>
        <pt x="420" y="1400" on="1"/>
        <pt x="420" y="650" on="1"/>
        <pt x="120" y="650" on="1"/>
        <pt x="120" y="1400" on="1"/>
      </contour>
    </TTGlyph>
    <TTGlyph name="bullet" xMin="80" yMin="400" xMax="480" yMax="800">
      <contour>
        <pt x="225" y="400" on="0"/>
        <pt x="133" y="453" on="0"/>
        <pt x="80" y="545" on="0"/>
        <pt x="80" y="600" on="1"/>
        <pt x="80" y="654" on="0"/>
        <pt x="133" y="746" on="0"/>
        <pt x="225" y="800" on="0"/>
        <pt x="280" y="800" on="1"/>
        <pt x="334" y="800" on="0"/>
        <pt x="426" y="746" on="0"/>
        <pt x="480" y="654" on="0"/>
        <pt x="480" y="600" on="1"/>
        <pt x="480" y="545" on="0"/>
        <pt x="426" y="453" on="0"/>
        <pt x="334" y="400" on="0"/>
        <pt x="280" y="400" on="1"/>
      </contour>
    </TTGlyph>
    <TTGlyph name="c" xMin="60" yMin="-26" xMax="960" yMax="1028">
      <contour>
        <pt x="889" y="85" on="0"/>
        <pt x="681" y="-26" on="0"/>
        <pt x="560" y="-26" on="1"/>
        <pt x="424" y="-26" on="0"/>
        <pt x="195" y="116" on="0"/>
        <pt x="60" y="357" on="0"/>
        <pt x="60" y="500" on="1"/>
        <pt x="60" y="644" on="0"/>
        <pt x="195" y="886" on="0"/>
        <pt x="424" y="1028" on="0"/>
        <pt x="560" y="1028" on="1"/>
        <pt x="681" y="1028" on="0"/>
        <pt x="890" y="916" on="0"/>
        <pt x="960" y="818" on="1"/>
        <pt x="690" y="672" on="1"/>
        <pt x="663" y="699" on="0"/>
        <pt x="596" y="728" on="0"/>
        <pt x="560" y="728" on="1"/>
        <pt x="505" y="728" on="0"/>
        <pt x="413" y="665" on="0"/>
        <pt x="360" y="560" on="0"/>
        <pt x="360" y="500" on="1"/>
        <pt x="360" y="441" on="0"/>
        <pt x="413" y="337" on="0"/>
        <pt x="505" y="274" on="0"/>
        <pt x="560" y="274" on="1"/>
        <pt x="596" y="274" on="0"/>
        <pt x="663" y="302" on="0"/>
        <pt x="690" y="328" on="1"/>
        <pt x="960" y="182" on="1"/>
      </contour>
    </TTGlyph>
    <TTGlyph name="cacute" xMin="60" yMin="-26" xMax="960" yMax="1426">
      <component glyphName="c" x="0" y="0" flags="0x0"/>
      <component glyphName="acutecomb" x="-20" y="0" flags="0x0"/>
    </TTGlyph>
    <TTGlyph name="caron" xMin="120" yMin="1166" xMax="622" yMax="1400">
      <contour>
        <pt x="120" y="1400" on="1"/>
        <pt x="312" y="1400" on="1"/>
        <pt x="372" y="1258" on="1"/>
        <pt x="430" y="1400" on="1"/>
        <pt x="622" y="1400" on="1"/>
        <pt x="522" y="1166" on="1"/>
        <pt x="220" y="1166" on="1"/>
      </contour>
    </TTGlyph>
    <TTGlyph name="ccedilla" xMin="60" yMin="-428" xMax="960" yMax="1028">
      <component glyphName="c" x="0" y="0" flags="0x0"/>
      <component glyphName="uni0327" x="-184" y="-122" flags="0x4"/>
    </TTGlyph>
    <TTGlyph name="cedilla" xMin="400" yMin="-306" xMax="910" yMax="202">
      <component glyphName="uni0327" x="0" y="0" flags="0x0"/>
    </TTGlyph>
    <TTGlyph name="cent" xMin="80" yMin="0" xMax="1012" yMax="1400">
      <contour>
        <pt x="369" y="232" on="0"/>
        <pt x="185" y="374" on="0"/>
        <pt x="80" y="582" on="0"/>
        <pt x="80" y="702" on="1"/>
        <pt x="80" y="821" on="0"/>
        <pt x="185" y="1029" on="0"/>
        <pt x="369" y="1171" on="0"/>
        <pt x="482" y="1194" on="1"/>
        <pt x="482" y="1400" on="1"/>
        <pt x="682" y="1400" on="1"/>
        <pt x="682" y="1194" on="1"/>
        <pt x="786" y="1173" on="0"/>
        <pt x="957" y="1051" on="0"/>
        <pt x="1012" y="962" on="1"/>
        <pt x="752" y="812" on="1"/>
        <pt x="723" y="854" on="0"/>
        <pt x="633" y="904" on="0"/>
        <pt x="582" y="904" on="1"/>
        <pt x="528" y="904" on="0"/>
        <pt x="435" y="849" on="0"/>
        <pt x="380" y="756" on="0"/>
        <pt x="380" y="702" on="1"/>
        <pt x="380" y="647" on="0"/>
        <pt x="435" y="553" on="0"/>
        <pt x="528" y="498" on="0"/>
        <pt x="582" y="498" on="1"/>
        <pt x="633" y="498" on="0"/>
        <pt x="723" y="548" on="0"/>
        <pt x="752" y="590" on="1"/>
        <pt x="1012" y="440" on="1"/>
        <pt x="957" y="351" on="0"/>
        <pt x="786" y="229" on="0"/>
        <pt x="682" y="208" on="1"/>
        <pt x="682" y="0" on="1"/>
        <pt x="482" y="0" on="1"/>
        <pt x="482" y="208" on="1"/>
      </contour>
    </TTGlyph>
    <TTGlyph name="circumflex" xMin="400" yMin="1166" xMax="902" yMax="1400">
      <component glyphName="uni0302" x="0" y="0" flags="0x0"/>
    </TTGlyph>
    <TTGlyph name="colon" xMin="80" yMin="-26" xMax="380" yMax="1000">
      <contour>
        <pt x="189" y="700" on="0"/>
        <pt x="120" y="740" on="0"/>
        <pt x="80" y="809" on="0"/>
        <pt x="80" y="850" on="1"/>
        <pt x="80" y="890" on="0"/>
        <pt x="120" y="959" on="0"/>
        <pt x="189" y="1000" on="0"/>
        <pt x="230" y="1000" on="1"/>
        <pt x="270" y="1000" on="0"/>
        <pt x="339" y="959" on="0"/>
        <pt x="380" y="890" on="0"/>
        <pt x="380" y="850" on="1"/>
        <pt x="380" y="809" on="0"/>
        <pt x="339" y="740" on="0"/>
        <pt x="270" y="700" on="0"/>
        <pt x="230" y="700" on="1"/>
      </contour>
      <contour>
        <pt x="189" y="-26" on="0"/>
        <pt x="120" y="14" on="0"/>
        <pt x="80" y="83" on="0"/>
        <pt x="80" y="124" on="1"/>
        <pt x="80" y="164" on="0"/>
        <pt x="120" y="233" on="0"/>
        <pt x="189" y="274" on="0"/>
        <pt x="230" y="274" on="1"/>
        <pt x="270" y="274" on="0"/>
        <pt x="339" y="233" on="0"/>
        <pt x="380" y="164" on="0"/>
        <pt x="380" y="124" on="1"/>
        <pt x="380" y="83" on="0"/>
        <pt x="339" y="14" on="0"/>
        <pt x="270" y="-26" on="0"/>
        <pt x="230" y="-26" on="1"/>
      </contour>
    </TTGlyph>
    <TTGlyph name="comma" xMin="80" yMin="-112" xMax="442" yMax="226">
      <contour>
        <pt x="142" y="226" on="1"/>
        <pt x="442" y="226" on="1"/>
        <pt x="280" y="-112" on="1"/>
        <pt x="80" y="-112" on="1"/>
      </contour>
    </TTGlyph>
    <TTGlyph name="copyright" xMin="80" yMin="-374" xMax="1882" yMax="1426">
      <contour>
        <pt x="735" y="-374" on="0"/>
        <pt x="322" y="-132" on="0"/>
        <pt x="80" y="281" on="0"/>
        <pt x="80" y="526" on="1"/>
        <pt x="80" y="771" on="0"/>
        <pt x="322" y="1184" on="0"/>
        <pt x="735" y="1426" on="0"/>
        <pt x="980" y="1426" on="1"/>
        <pt x="1225" y="1426" on="0"/>
        <pt x="1639" y="1185" on="0"/>
        <pt x="1882" y="772" on="0"/>
        <pt x="1882" y="526" on="1"/>
        <pt x="1882" y="281" on="0"/>
        <pt x="1639" y="-132" on="0"/>
        <pt x="1225" y="-374" on="0"/>
        <pt x="980" y="-374" on="1"/>
      </contour>
      <contour>
        <pt x="1146" y="-74" on="0"/>
        <pt x="1422" y="90" on="0"/>
        <pt x="1582" y="366" on="0"/>
        <pt x="1582" y="526" on="1"/>
        <pt x="1582" y="688" on="0"/>
        <pt x="1421" y="964" on="0"/>
        <pt x="1145" y="1126" on="0"/>
        <pt x="980" y="1126" on="1"/>
        <pt x="814" y="1126" on="0"/>
        <pt x="539" y="962" on="0"/>
        <pt x="380" y="686" on="0"/>
        <pt x="380" y="526" on="1"/>
        <pt x="380" y="360" on="0"/>
        <pt x="544" y="85" on="0"/>
        <pt x="820" y="-74" on="0"/>
        <pt x="980" y="-74" on="1"/>
      </contour>
      <contour>
        <pt x="1309" y="111" on="0"/>
        <pt x="1101" y="0" on="0"/>
        <pt x="980" y="0" on="1"/>
        <pt x="844" y="0" on="0"/>
        <pt x="615" y="142" on="0"/>
        <pt x="480" y="383" on="0"/>
        <pt x="480" y="526" on="1"/>
        <pt x="480" y="670" on="0"/>
        <pt x="615" y="912" on="0"/>
        <pt x="844" y="1054" on="0"/>
        <pt x="980" y="1054" on="1"/>
        <pt x="1101" y="1054" on="0"/>
        <pt x="1310" y="942" on="0"/>
        <pt x="1380" y="844" on="1"/>
        <pt x="1110" y="698" on="1"/>
        <pt x="1083" y="725" on="0"/>
        <pt x="1016" y="754" on="0"/>
        <pt x="980" y="754" on="1"/>
        <pt x="925" y="754" on="0"/>
        <pt x="833" y="691" on="0"/>
        <pt x="780" y="586" on="0"/>
        <pt x="780" y="526" on="1"/>
        <pt x="780" y="467" on="0"/>
        <pt x="833" y="363" on="0"/>
        <pt x="925" y="300" on="0"/>
        <pt x="980" y="300" on="1"/>
        <pt x="1016" y="300" on="0"/>
        <pt x="1083" y="328" on="0"/>
        <pt x="1110" y="354" on="1"/>
        <pt x="1380" y="208" on="1"/>
      </contour>
    </TTGlyph>
    <TTGlyph name="currency" xMin="80" yMin="255" xMax="970" yMax="1145">
      <contour>
        <pt x="80" y="397" on="1"/>
        <pt x="212" y="529" on="1"/>
        <pt x="183" y="582" on="0"/>
        <pt x="164" y="700" on="0"/>
        <pt x="184" y="818" on="0"/>
        <pt x="214" y="871" on="1"/>
        <pt x="80" y="1005" on="1"/>
        <pt x="222" y="1145" on="1"/>
        <pt x="354" y="1013" on="1"/>
        <pt x="405" y="1042" on="0"/>
        <pt x="525" y="1062" on="0"/>
        <pt x="645" y="1043" on="0"/>
        <pt x="698" y="1015" on="1"/>
        <pt x="830" y="1145" on="1"/>
        <pt x="970" y="1005" on="1"/>
        <pt x="840" y="875" on="1"/>
        <pt x="871" y="822" on="0"/>
        <pt x="892" y="700" on="0"/>
        <pt x="872" y="579" on="0"/>
        <pt x="842" y="525" on="1"/>
        <pt x="970" y="397" on="1"/>
        <pt x="830" y="255" on="1"/>
        <pt x="702" y="383" on="1"/>
        <pt x="646" y="354" on="0"/>
        <pt x="526" y="334" on="0"/>
        <pt x="406" y="354" on="0"/>
        <pt x="352" y="385" on="1"/>
        <pt x="222" y="255" on="1"/>
      </contour>
      <contour>
        <pt x="572" y="540" on="0"/>
        <pt x="644" y="582" on="0"/>
        <pt x="686" y="655" on="0"/>
        <pt x="686" y="699" on="1"/>
        <pt x="686" y="745" on="0"/>
        <pt x="642" y="817" on="0"/>
        <pt x="570" y="856" on="0"/>
        <pt x="528" y="857" on="1"/>
        <pt x="483" y="858" on="0"/>
        <pt x="409" y="813" on="0"/>
        <pt x="368" y="739" on="0"/>
        <pt x="368" y="699" on="1"/>
        <pt x="368" y="656" on="0"/>
        <pt x="411" y="581" on="0"/>
        <pt x="485" y="538" on="0"/>
        <pt x="528" y="539" on="1"/>
      </contour>
    </TTGlyph>
    <TTGlyph name="d" xMin="60" yMin="-26" xMax="1140" yMax="1500">
      <contour>
        <pt x="1140" y="1500" on="1"/>
        <pt x="1140" y="0" on="1"/>
        <pt x="840" y="0" on="1"/>
        <pt x="840" y="92" on="1"/>
        <pt x="791" y="37" on="0"/>
        <pt x="664" y="-26" on="0"/>
        <pt x="586" y="-26" on="1"/>
        <pt x="443" y="-26" on="0"/>
        <pt x="202" y="116" on="0"/>
        <pt x="60" y="357" on="0"/>
        <pt x="60" y="500" on="1"/>
        <pt x="60" y="643" on="0"/>
        <pt x="202" y="884" on="0"/>
        <pt x="443" y="1026" on="0"/>
        <pt x="586" y="1026" on="1"/>
        <pt x="664" y="1026" on="0"/>
        <pt x="791" y="963" on="0"/>
        <pt x="840" y="908" on="1"/>
        <pt x="840" y="1500" on="1"/>
      </contour>
      <contour>
        <pt x="651" y="262" on="0"/>
        <pt x="754" y="326" on="0"/>
        <pt x="814" y="435" on="0"/>
        <pt x="814" y="500" on="1"/>
        <pt x="814" y="565" on="0"/>
        <pt x="754" y="674" on="0"/>
        <pt x="651" y="738" on="0"/>
        <pt x="590" y="738" on="1"/>
        <pt x="530" y="738" on="0"/>
        <pt x="428" y="674" on="0"/>
        <pt x="368" y="565" on="0"/>
        <pt x="368" y="500" on="1"/>
        <pt x="368" y="435" on="0"/>
        <pt x="428" y="326" on="0"/>
        <pt x="530" y="262" on="0"/>
        <pt x="590" y="262" on="1"/>
      </contour>
    </TTGlyph>
    <TTGlyph name="dagger" xMin="80" yMin="560" xMax="816" yMax="1500">
      <contour>
        <pt x="80" y="1300" on="1"/>
        <pt x="298" y="1300" on="1"/>
        <pt x="298" y="1500" on="1"/>
        <pt x="598" y="1500" on="1"/>
        <pt x="598" y="1300" on="1"/>
        <pt x="816" y="1300" on="1"/>
        <pt x="816" y="1000" on="1"/>
        <pt x="598" y="1000" on="1"/>
        <pt x="598" y="560" on="1"/>
        <pt x="298" y="560" on="1"/>
        <pt x="298" y="1000" on="1"/>
        <pt x="80" y="1000" on="1"/>
      </contour>
    </TTGlyph>
    <TTGlyph name="daggerdbl" xMin="80" yMin="560" xMax="816" yMax="1500">
      <contour>
        <pt x="80" y="1000" on="1"/>
        <pt x="298" y="1000" on="1"/>
        <pt x="298" y="1100" on="1"/>
        <pt x="80" y="1100" on="1"/>
        <pt x="80" y="1400" on="1"/>
        <pt x="298" y="1400" on="1"/>
        <pt x="298" y="1500" on="1"/>
        <pt x="598" y="1500" on="1"/>
        <pt x="598" y="1400" on="1"/>
        <pt x="816" y="1400" on="1"/>
        <pt x="816" y="1100" on="1"/>
        <pt x="598" y="1100" on="1"/>
        <pt x="598" y="1000" on="1"/>
        <pt x="816" y="1000" on="1"/>
        <pt x="816" y="702" on="1"/>
        <pt x="598" y="702" on="1"/>
        <pt x="598" y="560" on="1"/>
        <pt x="298" y="560" on="1"/>
        <pt x="298" y="702" on="1"/>
        <pt x="80" y="702" on="1"/>
      </contour>
    </TTGlyph>
    <TTGlyph name="degree" xMin="80" yMin="648" xMax="946" yMax="1512">
      <contour>
        <pt x="394" y="648" on="0"/>
        <pt x="195" y="768" on="0"/>
        <pt x="80" y="967" on="0"/>
        <pt x="80" y="1080" on="1"/>
        <pt x="80" y="1196" on="0"/>
        <pt x="196" y="1394" on="0"/>
        <pt x="395" y="1512" on="0"/>
        <pt x="514" y="1512" on="1"/>
        <pt x="635" y="1512" on="0"/>
        <pt x="833" y="1392" on="0"/>
        <pt x="946" y="1193" on="0"/>
        <pt x="946" y="1080" on="1"/>
        <pt x="946" y="959" on="0"/>
        <pt x="828" y="761" on="0"/>
        <pt x="629" y="648" on="0"/>
        <pt x="514" y="648" on="1"/>
      </contour>
      <contour>
        <pt x="550" y="948" on="0"/>
        <pt x="610" y="983" on="0"/>
        <pt x="646" y="1044" on="0"/>
        <pt x="646" y="1080" on="1"/>
        <pt x="646" y="1116" on="0"/>
        <pt x="610" y="1177" on="0"/>
        <pt x="550" y="1212" on="0"/>
        <pt x="514" y="1212" on="1"/>
        <pt x="478" y="1212" on="0"/>
        <pt x="416" y="1177" on="0"/>
        <pt x="380" y="1116" on="0"/>
        <pt x="380" y="1080" on="1"/>
        <pt x="380" y="1044" on="0"/>
        <pt x="416" y="983" on="0"/>
        <pt x="478" y="948" on="0"/>
        <pt x="514" y="948" on="1"/>
      </contour>
    </TTGlyph>
    <TTGlyph name="dieresis" xMin="400" yMin="1124" xMax="1142" yMax="1424">
      <component glyphName="uni0308" x="0" y="0" flags="0x0"/>
    </TTGlyph>
    <TTGlyph name="divide" xMin="80" yMin="90" xMax="1080" yMax="1110">
      <contour>
        <pt x="80" y="750" on="1"/>
        <pt x="1080" y="750" on="1"/>
        <pt x="1080" y="450" on="1"/>
        <pt x="80" y="450" on="1"/>
      </contour>
      <contour>
        <pt x="620" y="1110" on="0"/>
        <pt x="689" y="1069" on="0"/>
        <pt x="730" y="1000" on="0"/>
        <pt x="730" y="960" on="1"/>
        <pt x="730" y="920" on="0"/>
        <pt x="689" y="851" on="0"/>
        <pt x="620" y="810" on="0"/>
        <pt x="580" y="810" on="1"/>
        <pt x="539" y="810" on="0"/>
        <pt x="470" y="851" on="0"/>
        <pt x="430" y="920" on="0"/>
        <pt x="430" y="960" on="1"/>
        <pt x="430" y="1000" on="0"/>
        <pt x="470" y="1069" on="0"/>
        <pt x="539" y="1110" on="0"/>
        <pt x="580" y="1110" on="1"/>
      </contour>
      <contour>
        <pt x="620" y="390" on="0"/>
        <pt x="689" y="349" on="0"/>
        <pt x="730" y="280" on="0"/>
        <pt x="730" y="240" on="1"/>
        <pt x="730" y="200" on="0"/>
        <pt x="689" y="131" on="0"/>
        <pt x="620" y="90" on="0"/>
        <pt x="580" y="90" on="1"/>
        <pt x="539" y="90" on="0"/>
        <pt x="470" y="131" on="0"/>
        <pt x="430" y="200" on="0"/>
        <pt x="430" y="240" on="1"/>
        <pt x="430" y="280" on="0"/>
        <pt x="470" y="349" on="0"/>
        <pt x="539" y="390" on="0"/>
        <pt x="580" y="390" on="1"/>
      </contour>
    </TTGlyph>
    <TTGlyph name="dollar" xMin="80" yMin="-224" xMax="1144" yMax="1624">
      <contour>
        <pt x="554" y="1125" on="0"/>
        <pt x="447" y="1089" on="0"/>
        <pt x="380" y="1026" on="0"/>
        <pt x="380" y="988" on="1"/>
        <pt x="380" y="939" on="0"/>
        <pt x="436" y="885" on="0"/>
        <pt x="522" y="863" on="0"/>
        <pt x="602" y="851" on="1"/>
        <pt x="604" y="851" on="0"/>
        <pt x="610" y="850" on="0"/>
        <pt x="612" y="850" on="1"/>
        <pt x="763" y="828" on="0"/>
        <pt x="1002" y="718" on="0"/>
        <pt x="1144" y="536" on="0"/>
        <pt x="1144" y="412" on="1"/>
        <pt x="1144" y="300" on="0"/>
        <pt x="1030" y="117" on="0"/>
        <pt x="833" y="0" on="0"/>
        <pt x="712" y="-18" on="1"/>
        <pt x="712" y="-224" on="1"/>
        <pt x="512" y="-224" on="1"/>
        <pt x="512" y="-18" on="1"/>
        <pt x="412" y="-4" on="0"/>
        <pt x="238" y="77" on="0"/>
        <pt x="110" y="206" on="0"/>
        <pt x="80" y="288" on="1"/>
        <pt x="362" y="392" on="1"/>
        <pt x="372" y="362" on="0"/>
        <pt x="443" y="308" on="0"/>
        <pt x="550" y="274" on="0"/>
        <pt x="612" y="274" on="1"/>
        <pt x="672" y="274" on="0"/>
        <pt x="779" y="309" on="0"/>
        <pt x="844" y="372" on="0"/>
        <pt x="844" y="412" on="1"/>
        <pt x="844" y="470" on="0"/>
        <pt x="711" y="536" on="0"/>
        <pt x="612" y="550" on="1"/>
        <pt x="451" y="573" on="0"/>
        <pt x="215" y="676" on="0"/>
        <pt x="80" y="856" on="0"/>
        <pt x="80" y="988" on="1"/>
        <pt x="80" y="1101" on="0"/>
        <pt x="194" y="1284" on="0"/>
        <pt x="391" y="1402" on="0"/>
        <pt x="512" y="1420" on="1"/>
        <pt x="512" y="1624" on="1"/>
        <pt x="712" y="1624" on="1"/>
        <pt x="712" y="1420" on="1"/>
        <pt x="811" y="1406" on="0"/>
        <pt x="986" y="1323" on="0"/>
        <pt x="1115" y="1193" on="0"/>
        <pt x="1144" y="1110" on="1"/>
        <pt x="862" y="1008" on="1"/>
        <pt x="852" y="1038" on="0"/>
        <pt x="782" y="1091" on="0"/>
        <pt x="674" y="1124" on="0"/>
        <pt x="612" y="1124" on="1"/>
      </contour>
    </TTGlyph>
    <TTGlyph name="dotaccent" xMin="400" yMin="1124" xMax="702" yMax="1424">
      <component glyphName="uni0307" x="0" y="0" flags="0x0"/>
    </TTGlyph>
    <TTGlyph name="dotlessi" xMin="120" yMin="0" xMax="420" yMax="1000">
      <contour>
        <pt x="420" y="1000" on="1"/>
        <pt x="420" y="0" on="1"/>
        <pt x="120" y="0" on="1"/>
        <pt x="120" y="1000" on="1"/>
      </contour>
    </TTGlyph>
    <TTGlyph name="e" xMin="60" yMin="-26" xMax="1080" yMax="1028">
      <contour>
        <pt x="424" y="-26" on="0"/>
        <pt x="195" y="116" on="0"/>
        <pt x="60" y="358" on="0"/>
        <pt x="60" y="501" on="1"/>
        <pt x="60" y="644" on="0"/>
        <pt x="195" y="886" on="0"/>
        <pt x="424" y="1028" on="0"/>
        <pt x="560" y="1028" on="1"/>
        <pt x="716" y="1028" on="0"/>
        <pt x="964" y="848" on="0"/>
        <pt x="1080" y="557" on="0"/>
        <pt x="1051" y="401" on="1"/>
        <pt x="384" y="401" on="1"/>
        <pt x="399" y="364" on="0"/>
        <pt x="446" y="308" on="0"/>
        <pt x="515" y="275" on="0"/>
        <pt x="560" y="274" on="1"/>
        <pt x="602" y="273" on="0"/>
        <pt x="678" y="312" on="0"/>
        <pt x="707" y="347" on="1"/>
        <pt x="1013" y="276" on="1"/>
        <pt x="972" y="187" on="0"/>
        <pt x="835" y="50" on="0"/>
        <pt x="658" y="-26" on="0"/>
        <pt x="560" y="-26" on="1"/>
      </contour>
      <contour>
        <pt x="734" y="664" on="0"/>
        <pt x="677" y="731" on="0"/>
        <pt x="602" y="768" on="0"/>
        <pt x="560" y="768" on="1"/>
        <pt x="518" y="768" on="0"/>
        <pt x="443" y="731" on="0"/>
        <pt x="387" y="664" on="0"/>
        <pt x="373" y="621" on="1"/>
        <pt x="748" y="621" on="1"/>
      </contour>
    </TTGlyph>
    <TTGlyph name="eacute" xMin="60" yMin="-26" xMax="1080" yMax="1426">
      <component glyphName="e" x="0" y="0" flags="0x0"/>
      <component glyphName="acutecomb" x="0" y="0" flags="0x0"/>
    </TTGlyph>
    <TTGlyph name="ecircumflex" xMin="60" yMin="-26" xMax="1080" yMax="1400">
      <component glyphName="e" x="0" y="0" flags="0x0"/>
      <component glyphName="uni0302" x="-91" y="0" flags="0x0"/>
    </TTGlyph>
    <TTGlyph name="edieresis" xMin="60" yMin="-26" xMax="1080" yMax="1424">
      <component glyphName="e" x="0" y="0" flags="0x0"/>
      <component glyphName="uni0308" x="-212" y="0" flags="0x0"/>
    </TTGlyph>
    <TTGlyph name="egrave" xMin="60" yMin="-26" xMax="1080" yMax="1426">
      <component glyphName="e" x="0" y="0" flags="0x0"/>
      <component glyphName="grave" x="-70" y="0" flags="0x0"/>
    </TTGlyph>
    <TTGlyph name="eight" xMin="80" yMin="-26" xMax="1030" yMax="1426">
      <contour>
        <pt x="424" y="-26" on="0"/>
        <pt x="207" y="95" on="0"/>
        <pt x="80" y="302" on="0"/>
        <pt x="80" y="426" on="1"/>
        <pt x="80" y="484" on="0"/>
        <pt x="110" y="594" on="0"/>
        <pt x="167" y="694" on="0"/>
        <pt x="208" y="736" on="1"/>
        <pt x="177" y="774" on="0"/>
        <pt x="132" y="859" on="0"/>
        <pt x="108" y="953" on="0"/>
        <pt x="108" y="1002" on="1"/>
        <pt x="108" y="1117" on="0"/>
        <pt x="228" y="1312" on="0"/>
        <pt x="433" y="1426" on="0"/>
        <pt x="554" y="1426" on="1"/>
        <pt x="675" y="1426" on="0"/>
        <pt x="880" y="1312" on="0"/>
        <pt x="1000" y="1117" on="0"/>
        <pt x="1000" y="1002" on="1"/>
        <pt x="1000" y="929" on="0"/>
        <pt x="948" y="793" on="0"/>
        <pt x="900" y="736" on="1"/>
        <pt x="942" y="694" on="0"/>
        <pt x="1000" y="594" on="0"/>
        <pt x="1030" y="484" on="0"/>
        <pt x="1030" y="426" on="1"/>
        <pt x="1030" y="303" on="0"/>
        <pt x="902" y="95" on="0"/>
        <pt x="684" y="-26" on="0"/>
        <pt x="554" y="-26" on="1"/>
      </contour>
      <contour>
        <pt x="597" y="274" on="0"/>
        <pt x="671" y="315" on="0"/>
        <pt x="714" y="385" on="0"/>
        <pt x="714" y="426" on="1"/>
        <pt x="714" y="467" on="0"/>
        <pt x="671" y="537" on="0"/>
        <pt x="597" y="578" on="0"/>
        <pt x="554" y="578" on="1"/>
        <pt x="511" y="578" on="0"/>
        <pt x="437" y="537" on="0"/>
        <pt x="394" y="467" on="0"/>
        <pt x="394" y="426" on="1"/>
        <pt x="394" y="385" on="0"/>
        <pt x="437" y="315" on="0"/>
        <pt x="511" y="274" on="0"/>
        <pt x="554" y="274" on="1"/>
      </contour>
      <contour>
        <pt x="589" y="878" on="0"/>
        <pt x="649" y="912" on="0"/>
        <pt x="684" y="969" on="0"/>
        <pt x="684" y="1002" on="1"/>
        <pt x="684" y="1035" on="0"/>
        <pt x="649" y="1092" on="0"/>
        <pt x="589" y="1126" on="0"/>
        <pt x="554" y="1126" on="1"/>
        <pt x="519" y="1126" on="0"/>
        <pt x="459" y="1092" on="0"/>
        <pt x="424" y="1035" on="0"/>
        <pt x="424" y="1002" on="1"/>
        <pt x="424" y="969" on="0"/>
        <pt x="459" y="912" on="0"/>
        <pt x="519" y="878" on="0"/>
        <pt x="554" y="878" on="1"/>
      </contour>
    </TTGlyph>
    <TTGlyph name="ellipsis" xMin="80" yMin="-26" xMax="1260" yMax="274">
      <component glyphName="period" x="0" y="0" flags="0x0"/>
      <component glyphName="period" x="440" y="0" flags="0x0"/>
      <component glyphName="period" x="880" y="0" flags="0x0"/>
    </TTGlyph>
    <TTGlyph name="emdash" xMin="120" yMin="450" xMax="1920" yMax="750">
      <contour>
        <pt x="1920" y="750" on="1"/>
        <pt x="1920" y="450" on="1"/>
        <pt x="120" y="450" on="1"/>
        <pt x="120" y="750" on="1"/>
      </contour>
    </TTGlyph>
    <TTGlyph name="emptyset" xMin="80" yMin="-86" xMax="1080" yMax="1088">
      <contour>
        <pt x="172" y="34" on="1"/>
        <pt x="226" y="128" on="1"/>
        <pt x="157" y="201" on="0"/>
        <pt x="80" y="394" on="0"/>
        <pt x="80" y="500" on="1"/>
        <pt x="80" y="644" on="0"/>
        <pt x="215" y="886" on="0"/>
        <pt x="444" y="1028" on="0"/>
        <pt x="580" y="1028" on="1"/>
        <pt x="661" y="1028" on="0"/>
        <pt x="730" y="1004" on="1"/>
        <pt x="780" y="1088" on="1"/>
        <pt x="988" y="968" on="1"/>
        <pt x="934" y="874" on="1"/>
        <pt x="1003" y="800" on="0"/>
        <pt x="1080" y="607" on="0"/>
        <pt x="1080" y="500" on="1"/>
        <pt x="1080" y="357" on="0"/>
        <pt x="945" y="116" on="0"/>
        <pt x="716" y="-26" on="0"/>
        <pt x="580" y="-26" on="1"/>
        <pt x="500" y="-26" on="0"/>
        <pt x="428" y="-2" on="1"/>
        <pt x="380" y="-86" on="1"/>
      </contour>
      <contour>
        <pt x="530" y="764" on="0"/>
        <pt x="420" y="685" on="0"/>
        <pt x="356" y="556" on="0"/>
        <pt x="356" y="482" on="1"/>
        <pt x="356" y="454" on="0"/>
        <pt x="365" y="404" on="0"/>
        <pt x="374" y="380" on="1"/>
        <pt x="596" y="766" on="1"/>
      </contour>
      <contour>
        <pt x="631" y="238" on="0"/>
        <pt x="741" y="316" on="0"/>
        <pt x="804" y="444" on="0"/>
        <pt x="804" y="518" on="1"/>
        <pt x="804" y="544" on="0"/>
        <pt x="795" y="595" on="0"/>
        <pt x="786" y="622" on="1"/>
        <pt x="564" y="236" on="1"/>
      </contour>
    </TTGlyph>
    <TTGlyph name="endash" xMin="120" yMin="450" xMax="1120" yMax="750">
      <contour>
        <pt x="1120" y="750" on="1"/>
        <pt x="1120" y="450" on="1"/>
        <pt x="120" y="450" on="1"/>
        <pt x="120" y="750" on="1"/>
      </contour>
    </TTGlyph>
    <TTGlyph name="equal" xMin="80" yMin="228" xMax="1080" yMax="972">
      <contour>
        <pt x="80" y="528" on="1"/>
        <pt x="1080" y="528" on="1"/>
        <pt x="1080" y="228" on="1"/>
        <pt x="80" y="228" on="1"/>
      </contour>
      <contour>
        <pt x="80" y="972" on="1"/>
        <pt x="1080" y="972" on="1"/>
        <pt x="1080" y="672" on="1"/>
        <pt x="80" y="672" on="1"/>
      </contour>
    </TTGlyph>
    <TTGlyph name="eth" xMin="80" yMin="-26" xMax="1086" yMax="1592">
      <contour>
        <pt x="298" y="1160" on="1"/>
        <pt x="736" y="1592" on="1"/>
        <pt x="876" y="1450" on="1"/>
        <pt x="440" y="1018" on="1"/>
      </contour>
      <contour>
        <pt x="447" y="-26" on="0"/>
        <pt x="216" y="110" on="0"/>
        <pt x="80" y="340" on="0"/>
        <pt x="80" y="476" on="1"/>
        <pt x="80" y="613" on="0"/>
        <pt x="216" y="844" on="0"/>
        <pt x="447" y="980" on="0"/>
        <pt x="584" y="980" on="1"/>
        <pt x="591" y="980" on="0"/>
        <pt x="604" y="980" on="0"/>
        <pt x="611" y="979" on="1"/>
        <pt x="625" y="978" on="0"/>
        <pt x="651" y="975" on="0"/>
        <pt x="664" y="972" on="1"/>
        <pt x="660" y="980" on="0"/>
        <pt x="652" y="997" on="0"/>
        <pt x="648" y="1006" on="1"/>
        <pt x="613" y="1078" on="0"/>
        <pt x="549" y="1172" on="0"/>
        <pt x="431" y="1240" on="0"/>
        <pt x="340" y="1240" on="1"/>
        <pt x="338" y="1540" on="1"/>
        <pt x="561" y="1540" on="0"/>
        <pt x="902" y="1254" on="0"/>
        <pt x="1086" y="782" on="0"/>
        <pt x="1086" y="512" on="1"/>
        <pt x="1086" y="357" on="0"/>
        <pt x="956" y="112" on="0"/>
        <pt x="727" y="-26" on="0"/>
        <pt x="584" y="-26" on="1"/>
      </contour>
      <contour>
        <pt x="638" y="274" on="0"/>
        <pt x="731" y="329" on="0"/>
        <pt x="786" y="422" on="0"/>
        <pt x="786" y="476" on="1"/>
        <pt x="786" y="531" on="0"/>
        <pt x="731" y="625" on="0"/>
        <pt x="638" y="680" on="0"/>
        <pt x="584" y="680" on="1"/>
        <pt x="529" y="680" on="0"/>
        <pt x="435" y="625" on="0"/>
        <pt x="380" y="531" on="0"/>
        <pt x="380" y="476" on="1"/>
        <pt x="380" y="422" on="0"/>
        <pt x="435" y="329" on="0"/>
        <pt x="529" y="274" on="0"/>
        <pt x="584" y="274" on="1"/>
      </contour>
    </TTGlyph>
    <TTGlyph name="exclam" xMin="80" yMin="-26" xMax="378" yMax="1400">
      <contour>
        <pt x="104" y="1400" on="1"/>
        <pt x="354" y="1400" on="1"/>
        <pt x="354" y="420" on="1"/>
        <pt x="104" y="420" on="1"/>
      </contour>
      <contour>
        <pt x="189" y="-26" on="0"/>
        <pt x="120" y="14" on="0"/>
        <pt x="80" y="84" on="0"/>
        <pt x="80" y="126" on="1"/>
        <pt x="80" y="166" on="0"/>
        <pt x="120" y="234" on="0"/>
        <pt x="189" y="274" on="0"/>
        <pt x="230" y="274" on="1"/>
        <pt x="270" y="274" on="0"/>
        <pt x="338" y="234" on="0"/>
        <pt x="378" y="166" on="0"/>
        <pt x="378" y="126" on="1"/>
        <pt x="378" y="84" on="0"/>
        <pt x="338" y="14" on="0"/>
        <pt x="270" y="-26" on="0"/>
        <pt x="230" y="-26" on="1"/>
      </contour>
    </TTGlyph>
    <TTGlyph name="exclamdown" xMin="80" yMin="-400" xMax="378" yMax="1026">
      <contour>
        <pt x="269" y="1026" on="0"/>
        <pt x="338" y="986" on="0"/>
        <pt x="378" y="916" on="0"/>
        <pt x="378" y="874" on="1"/>
        <pt x="378" y="834" on="0"/>
        <pt x="338" y="766" on="0"/>
        <pt x="269" y="726" on="0"/>
        <pt x="228" y="726" on="1"/>
        <pt x="188" y="726" on="0"/>
        <pt x="120" y="766" on="0"/>
        <pt x="80" y="834" on="0"/>
        <pt x="80" y="874" on="1"/>
        <pt x="80" y="916" on="0"/>
        <pt x="120" y="986" on="0"/>
        <pt x="188" y="1026" on="0"/>
        <pt x="228" y="1026" on="1"/>
      </contour>
      <contour>
        <pt x="354" y="-400" on="1"/>
        <pt x="104" y="-400" on="1"/>
        <pt x="104" y="580" on="1"/>
        <pt x="354" y="580" on="1"/>
      </contour>
    </TTGlyph>
    <TTGlyph name="f" xMin="50" yMin="0" xMax="746" yMax="1524">
      <contour>
        <pt x="444" y="1000" on="1"/>
        <pt x="702" y="1000" on="1"/>
        <pt x="702" y="700" on="1"/>
        <pt x="444" y="700" on="1"/>
        <pt x="444" y="0" on="1"/>
        <pt x="144" y="0" on="1"/>
        <pt x="144" y="700" on="1"/>
        <pt x="50" y="700" on="1"/>
        <pt x="50" y="1000" on="1"/>
        <pt x="144" y="1000" on="1"/>
        <pt x="144" y="1182" on="1"/>
        <pt x="144" y="1275" on="0"/>
        <pt x="237" y="1432" on="0"/>
        <pt x="395" y="1524" on="0"/>
        <pt x="488" y="1524" on="1"/>
        <pt x="560" y="1524" on="0"/>
        <pt x="694" y="1465" on="0"/>
        <pt x="746" y="1406" on="1"/>
        <pt x="530" y="1194" on="1"/>
        <pt x="525" y="1208" on="0"/>
        <pt x="501" y="1224" on="0"/>
        <pt x="488" y="1224" on="1"/>
        <pt x="476" y="1224" on="0"/>
        <pt x="456" y="1213" on="0"/>
        <pt x="444" y="1194" on="0"/>
        <pt x="444" y="1182" on="1"/>
      </contour>
    </TTGlyph>
    <TTGlyph name="five" xMin="70" yMin="-26" xMax="1052" yMax="1400">
      <contour>
        <pt x="426" y="-26" on="0"/>
        <pt x="200" y="108" on="0"/>
        <pt x="70" y="333" on="0"/>
        <pt x="70" y="464" on="1"/>
        <pt x="370" y="464" on="1"/>
        <pt x="370" y="412" on="0"/>
        <pt x="422" y="325" on="0"/>
        <pt x="510" y="274" on="0"/>
        <pt x="562" y="274" on="1"/>
        <pt x="613" y="274" on="0"/>
        <pt x="701" y="325" on="0"/>
        <pt x="752" y="412" on="0"/>
        <pt x="752" y="464" on="1"/>
        <pt x="752" y="522" on="0"/>
        <pt x="709" y="608" on="0"/>
        <pt x="599" y="660" on="0"/>
        <pt x="504" y="660" on="1"/>
        <pt x="134" y="660" on="1"/>
        <pt x="290" y="1400" on="1"/>
        <pt x="996" y="1400" on="1"/>
        <pt x="996" y="1100" on="1"/>
        <pt x="534" y="1100" on="1"/>
        <pt x="504" y="960" on="1"/>
        <pt x="568" y="958" on="1"/>
        <pt x="707" y="952" on="0"/>
        <pt x="928" y="818" on="0"/>
        <pt x="1052" y="597" on="0"/>
        <pt x="1052" y="464" on="1"/>
        <pt x="1052" y="332" on="0"/>
        <pt x="921" y="107" on="0"/>
        <pt x="696" y="-26" on="0"/>
        <pt x="562" y="-26" on="1"/>
      </contour>
    </TTGlyph>
    <TTGlyph name="fiveeighths" xMin="120" yMin="-31" xMax="1180" yMax="1449">
      <component glyphName="uni2075" x="70" y="0" flags="0x0"/>
      <component glyphName="fraction" x="120" y="0" flags="0x0"/>
      <component glyphName="uni2088" x="640" y="0" flags="0x0"/>
    </TTGlyph>
    <TTGlyph name="four" xMin="80" yMin="0" xMax="1074" yMax="1400">
      <contour>
        <pt x="672" y="310" on="1"/>
        <pt x="80" y="310" on="1"/>
        <pt x="80" y="610" on="1"/>
        <pt x="604" y="1400" on="1"/>
        <pt x="972" y="1400" on="1"/>
        <pt x="972" y="610" on="1"/>
        <pt x="1074" y="610" on="1"/>
        <pt x="1074" y="310" on="1"/>
        <pt x="972" y="310" on="1"/>
        <pt x="972" y="0" on="1"/>
        <pt x="672" y="0" on="1"/>
      </contour>
      <contour>
        <pt x="672" y="610" on="1"/>
        <pt x="672" y="996" on="1"/>
        <pt x="426" y="610" on="1"/>
      </contour>
    </TTGlyph>
    <TTGlyph name="fraction" xMin="0" yMin="0" xMax="1050" yMax="1400">
      <contour>
        <pt x="808" y="1400" on="1"/>
        <pt x="1050" y="1400" on="1"/>
        <pt x="242" y="0" on="1"/>
        <pt x="0" y="0" on="1"/>
      </contour>
    </TTGlyph>
    <TTGlyph name="g" xMin="60" yMin="-500" xMax="1134" yMax="1026">
      <contour>
        <pt x="1134" y="1000" on="1"/>
        <pt x="1134" y="-10" on="1"/>
        <pt x="1134" y="-157" on="0"/>
        <pt x="979" y="-380" on="0"/>
        <pt x="719" y="-500" on="0"/>
        <pt x="566" y="-500" on="1"/>
        <pt x="461" y="-500" on="0"/>
        <pt x="267" y="-420" on="0"/>
        <pt x="114" y="-274" on="0"/>
        <pt x="70" y="-180" on="1"/>
        <pt x="344" y="-56" on="1"/>
        <pt x="365" y="-100" on="0"/>
        <pt x="433" y="-164" on="0"/>
        <pt x="519" y="-198" on="0"/>
        <pt x="566" y="-198" on="1"/>
        <pt x="638" y="-198" on="0"/>
        <pt x="760" y="-157" on="0"/>
        <pt x="834" y="-72" on="0"/>
        <pt x="834" y="-10" on="1"/>
        <pt x="834" y="88" on="1"/>
        <pt x="787" y="34" on="0"/>
        <pt x="662" y="-26" on="0"/>
        <pt x="586" y="-26" on="1"/>
        <pt x="443" y="-26" on="0"/>
        <pt x="202" y="116" on="0"/>
        <pt x="60" y="357" on="0"/>
        <pt x="60" y="500" on="1"/>
        <pt x="60" y="643" on="0"/>
        <pt x="202" y="884" on="0"/>
        <pt x="443" y="1026" on="0"/>
        <pt x="586" y="1026" on="1"/>
        <pt x="662" y="1026" on="0"/>
        <pt x="787" y="966" on="0"/>
        <pt x="834" y="912" on="1"/>
        <pt x="834" y="1000" on="1"/>
      </contour>
      <contour>
        <pt x="651" y="262" on="0"/>
        <pt x="754" y="326" on="0"/>
        <pt x="814" y="435" on="0"/>
        <pt x="814" y="500" on="1"/>
        <pt x="814" y="565" on="0"/>
        <pt x="754" y="674" on="0"/>
        <pt x="651" y="738" on="0"/>
        <pt x="590" y="738" on="1"/>
        <pt x="530" y="738" on="0"/>
        <pt x="428" y="674" on="0"/>
        <pt x="368" y="565" on="0"/>
        <pt x="368" y="500" on="1"/>
        <pt x="368" y="435" on="0"/>
        <pt x="428" y="326" on="0"/>
        <pt x="530" y="262" on="0"/>
        <pt x="590" y="262" on="1"/>
      </contour>
    </TTGlyph>
    <TTGlyph name="germandbls" xMin="120" yMin="0" xMax="1126" yMax="1400">
      <contour>
        <pt x="120" y="1014" on="0"/>
        <pt x="262" y="1257" on="0"/>
        <pt x="506" y="1400" on="0"/>
        <pt x="650" y="1400" on="1"/>
        <pt x="764" y="1400" on="0"/>
        <pt x="951" y="1294" on="0"/>
        <pt x="1060" y="1109" on="0"/>
        <pt x="1060" y="994" on="1"/>
        <pt x="1060" y="913" on="0"/>
        <pt x="1001" y="767" on="0"/>
        <pt x="930" y="734" on="1"/>
        <pt x="1012" y="723" on="0"/>
        <pt x="1099" y="617" on="0"/>
        <pt x="1126" y="481" on="0"/>
        <pt x="1126" y="402" on="1"/>
        <pt x="1126" y="288" on="0"/>
        <pt x="1013" y="105" on="0"/>
        <pt x="819" y="0" on="0"/>
        <pt x="704" y="0" on="1"/>
        <pt x="630" y="0" on="1"/>
        <pt x="590" y="254" on="1"/>
        <pt x="672" y="254" on="1"/>
        <pt x="723" y="254" on="0"/>
        <pt x="809" y="300" on="0"/>
        <pt x="860" y="379" on="0"/>
        <pt x="860" y="424" on="1"/>
        <pt x="860" y="469" on="0"/>
        <pt x="810" y="545" on="0"/>
        <pt x="724" y="591" on="0"/>
        <pt x="672" y="594" on="1"/>
        <pt x="590" y="598" on="1"/>
        <pt x="590" y="840" on="1"/>
        <pt x="614" y="844" on="1"/>
        <pt x="655" y="851" on="0"/>
        <pt x="721" y="891" on="0"/>
        <pt x="760" y="954" on="0"/>
        <pt x="760" y="994" on="1"/>
        <pt x="760" y="1034" on="0"/>
        <pt x="720" y="1103" on="0"/>
        <pt x="653" y="1144" on="0"/>
        <pt x="614" y="1144" on="1"/>
        <pt x="561" y="1144" on="0"/>
        <pt x="472" y="1092" on="0"/>
        <pt x="420" y="1003" on="0"/>
        <pt x="420" y="950" on="1"/>
        <pt x="420" y="0" on="1"/>
        <pt x="120" y="0" on="1"/>
        <pt x="120" y="870" on="1"/>
      </contour>
    </TTGlyph>
    <TTGlyph name="grave" xMin="320" yMin="1138" xMax="700" yMax="1426">
      <contour>
        <pt x="620" y="1426" on="1"/>
        <pt x="700" y="1138" on="1"/>
        <pt x="540" y="1138" on="1"/>
        <pt x="320" y="1426" on="1"/>
      </contour>
    </TTGlyph>
    <TTGlyph name="gravecomb" xMin="320" yMin="1138" xMax="700" yMax="1426">
      <contour>
        <pt x="620" y="1426" on="1"/>
        <pt x="700" y="1138" on="1"/>
        <pt x="540" y="1138" on="1"/>
        <pt x="320" y="1426" on="1"/>
      </contour>
    </TTGlyph>
    <TTGlyph name="greater" xMin="80" yMin="76" xMax="1080" yMax="1124">
      <contour>
        <pt x="80" y="388" on="1"/>
        <pt x="866" y="600" on="1"/>
        <pt x="80" y="812" on="1"/>
        <pt x="80" y="1124" on="1"/>
        <pt x="1080" y="850" on="1"/>
        <pt x="1080" y="348" on="1"/>
        <pt x="80" y="76" on="1"/>
      </contour>
    </TTGlyph>
    <TTGlyph name="greaterequal" xMin="80" yMin="0" xMax="1080" yMax="1400">
      <contour>
        <pt x="80" y="664" on="1"/>
        <pt x="866" y="876" on="1"/>
        <pt x="80" y="1088" on="1"/>
        <pt x="80" y="1400" on="1"/>
        <pt x="1080" y="1126" on="1"/>
        <pt x="1080" y="624" on="1"/>
        <pt x="80" y="352" on="1"/>
      </contour>
      <contour>
        <pt x="80" y="300" on="1"/>
        <pt x="1080" y="300" on="1"/>
        <pt x="1080" y="0" on="1"/>
        <pt x="80" y="0" on="1"/>
      </contour>
    </TTGlyph>
    <TTGlyph name="guillemotleft" xMin="120" yMin="261" xMax="1160" yMax="939">
      <component glyphName="guilsinglleft" x="0" y="0" flags="0x0"/>
      <component glyphName="guilsinglleft" x="440" y="0" flags="0x0"/>
    </TTGlyph>
    <TTGlyph name="guillemotright" xMin="100" yMin="261" xMax="1140" yMax="939">
      <component glyphName="guilsinglright" x="440" y="0" flags="0x0"/>
      <component glyphName="guilsinglright" x="0" y="0" flags="0x0"/>
    </TTGlyph>
    <TTGlyph name="guilsinglleft" xMin="120" yMin="261" xMax="720" yMax="939">
      <contour>
        <pt x="120" y="601" on="1"/>
        <pt x="420" y="939" on="1"/>
        <pt x="720" y="939" on="1"/>
        <pt x="422" y="601" on="1"/>
        <pt x="720" y="261" on="1"/>
        <pt x="420" y="261" on="1"/>
      </contour>
    </TTGlyph>
    <TTGlyph name="guilsinglright" xMin="100" yMin="261" xMax="700" yMax="939">
      <contour>
        <pt x="398" y="601" on="1"/>
        <pt x="100" y="939" on="1"/>
        <pt x="400" y="939" on="1"/>
        <pt x="700" y="601" on="1"/>
        <pt x="400" y="261" on="1"/>
        <pt x="100" y="261" on="1"/>
      </contour>
    </TTGlyph>
    <TTGlyph name="h" xMin="120" yMin="0" xMax="1098" yMax="1500">
      <contour>
        <pt x="1098" y="0" on="1"/>
        <pt x="798" y="0" on="1"/>
        <pt x="798" y="500" on="1"/>
        <pt x="798" y="565" on="0"/>
        <pt x="745" y="674" on="0"/>
        <pt x="654" y="738" on="0"/>
        <pt x="600" y="738" on="1"/>
        <pt x="537" y="738" on="0"/>
        <pt x="457" y="676" on="0"/>
        <pt x="422" y="570" on="0"/>
        <pt x="422" y="500" on="1"/>
        <pt x="422" y="0" on="1"/>
        <pt x="120" y="0" on="1"/>
        <pt x="120" y="1500" on="1"/>
        <pt x="420" y="1500" on="1"/>
        <pt x="420" y="938" on="1"/>
        <pt x="439" y="976" on="0"/>
        <pt x="496" y="1014" on="0"/>
        <pt x="569" y="1026" on="0"/>
        <pt x="625" y="1026" on="1"/>
        <pt x="632" y="1026" on="1"/>
        <pt x="772" y="1026" on="0"/>
        <pt x="982" y="887" on="0"/>
        <pt x="1096" y="649" on="0"/>
        <pt x="1098" y="504" on="1"/>
      </contour>
    </TTGlyph>
    <TTGlyph name="hungarumlaut" xMin="120" yMin="1138" xMax="870" yMax="1426">
      <component glyphName="acutecomb" x="10" y="0" flags="0x0"/>
      <component glyphName="acutecomb" x="-360" y="0" flags="0x0"/>
    </TTGlyph>
    <TTGlyph name="hyphen" xMin="120" yMin="450" xMax="760" yMax="750">
      <contour>
        <pt x="760" y="750" on="1"/>
        <pt x="760" y="450" on="1"/>
        <pt x="120" y="450" on="1"/>
        <pt x="120" y="750" on="1"/>
      </contour>
    </TTGlyph>
    <TTGlyph name="i" xMin="120" yMin="0" xMax="422" yMax="1400">
      <contour>
        <pt x="422" y="1000" on="1"/>
        <pt x="422" y="0" on="1"/>
        <pt x="122" y="0" on="1"/>
        <pt x="122" y="1000" on="1"/>
      </contour>
      <contour>
        <pt x="230" y="1100" on="0"/>
        <pt x="161" y="1140" on="0"/>
        <pt x="120" y="1209" on="0"/>
        <pt x="120" y="1250" on="1"/>
        <pt x="120" y="1290" on="0"/>
        <pt x="161" y="1359" on="0"/>
        <pt x="230" y="1400" on="0"/>
        <pt x="270" y="1400" on="1"/>
        <pt x="311" y="1400" on="0"/>
        <pt x="380" y="1359" on="0"/>
        <pt x="420" y="1290" on="0"/>
        <pt x="420" y="1250" on="1"/>
        <pt x="420" y="1209" on="0"/>
        <pt x="380" y="1140" on="0"/>
        <pt x="311" y="1100" on="0"/>
        <pt x="270" y="1100" on="1"/>
      </contour>
    </TTGlyph>
    <TTGlyph name="iacute" xMin="120" yMin="0" xMax="570" yMax="1426">
      <contour>
        <pt x="420" y="1000" on="1"/>
        <pt x="420" y="0" on="1"/>
        <pt x="120" y="0" on="1"/>
        <pt x="120" y="1000" on="1"/>
      </contour>
      <contour>
        <pt x="270" y="1426" on="1"/>
        <pt x="570" y="1426" on="1"/>
        <pt x="350" y="1138" on="1"/>
        <pt x="190" y="1138" on="1"/>
      </contour>
    </TTGlyph>
    <TTGlyph name="icircumflex" xMin="20" yMin="0" xMax="522" yMax="1400">
      <contour>
        <pt x="420" y="1000" on="1"/>
        <pt x="420" y="0" on="1"/>
        <pt x="120" y="0" on="1"/>
        <pt x="120" y="1000" on="1"/>
      </contour>
      <contour>
        <pt x="422" y="1400" on="1"/>
        <pt x="522" y="1166" on="1"/>
        <pt x="330" y="1166" on="1"/>
        <pt x="272" y="1308" on="1"/>
        <pt x="212" y="1166" on="1"/>
        <pt x="20" y="1166" on="1"/>
        <pt x="120" y="1400" on="1"/>
      </contour>
    </TTGlyph>
    <TTGlyph name="idieresis" xMin="60" yMin="0" xMax="802" yMax="1424">
      <contour>
        <pt x="580" y="1000" on="1"/>
        <pt x="580" y="0" on="1"/>
        <pt x="280" y="0" on="1"/>
        <pt x="280" y="1000" on="1"/>
      </contour>
      <contour>
        <pt x="170" y="1124" on="0"/>
        <pt x="100" y="1163" on="0"/>
        <pt x="60" y="1232" on="0"/>
        <pt x="60" y="1274" on="1"/>
        <pt x="60" y="1315" on="0"/>
        <pt x="100" y="1384" on="0"/>
        <pt x="170" y="1424" on="0"/>
        <pt x="212" y="1424" on="1"/>
        <pt x="253" y="1424" on="0"/>
        <pt x="322" y="1384" on="0"/>
        <pt x="362" y="1315" on="0"/>
        <pt x="362" y="1274" on="1"/>
        <pt x="362" y="1232" on="0"/>
        <pt x="322" y="1163" on="0"/>
        <pt x="254" y="1124" on="0"/>
        <pt x="212" y="1124" on="1"/>
      </contour>
      <contour>
        <pt x="610" y="1124" on="0"/>
        <pt x="540" y="1163" on="0"/>
        <pt x="500" y="1232" on="0"/>
        <pt x="500" y="1274" on="1"/>
        <pt x="500" y="1315" on="0"/>
        <pt x="540" y="1384" on="0"/>
        <pt x="610" y="1424" on="0"/>
        <pt x="652" y="1424" on="1"/>
        <pt x="693" y="1424" on="0"/>
        <pt x="762" y="1384" on="0"/>
        <pt x="802" y="1315" on="0"/>
        <pt x="802" y="1274" on="1"/>
        <pt x="802" y="1232" on="0"/>
        <pt x="762" y="1163" on="0"/>
        <pt x="694" y="1124" on="0"/>
        <pt x="652" y="1124" on="1"/>
      </contour>
    </TTGlyph>
    <TTGlyph name="igrave" xMin="20" yMin="0" xMax="470" yMax="1426">
      <contour>
        <pt x="470" y="1000" on="1"/>
        <pt x="470" y="0" on="1"/>
        <pt x="170" y="0" on="1"/>
        <pt x="170" y="1000" on="1"/>
      </contour>
      <contour>
        <pt x="320" y="1426" on="1"/>
        <pt x="400" y="1138" on="1"/>
        <pt x="240" y="1138" on="1"/>
        <pt x="20" y="1426" on="1"/>
      </contour>
    </TTGlyph>
    <TTGlyph name="infinity" xMin="80" yMin="223" xMax="1468" yMax="1000">
      <contour>
        <pt x="347" y="238" on="0"/>
        <pt x="173" y="343" on="0"/>
        <pt x="80" y="511" on="0"/>
        <pt x="80" y="614" on="1"/>
        <pt x="80" y="722" on="0"/>
        <pt x="177" y="899" on="0"/>
        <pt x="353" y="1000" on="0"/>
        <pt x="466" y="1000" on="1"/>
        <pt x="527" y="1000" on="0"/>
        <pt x="636" y="964" on="0"/>
        <pt x="731" y="895" on="0"/>
        <pt x="774" y="844" on="1"/>
        <pt x="819" y="896" on="0"/>
        <pt x="917" y="965" on="0"/>
        <pt x="1024" y="1000" on="0"/>
        <pt x="1084" y="1000" on="1"/>
        <pt x="1202" y="1000" on="0"/>
        <pt x="1376" y="895" on="0"/>
        <pt x="1468" y="719" on="0"/>
        <pt x="1468" y="614" on="1"/>
        <pt x="1468" y="505" on="0"/>
        <pt x="1372" y="329" on="0"/>
        <pt x="1197" y="228" on="0"/>
        <pt x="1084" y="228" on="1"/>
        <pt x="1022" y="228" on="0"/>
        <pt x="913" y="264" on="0"/>
        <pt x="818" y="332" on="0"/>
        <pt x="774" y="382" on="1"/>
        <pt x="729" y="328" on="0"/>
        <pt x="632" y="257" on="0"/>
        <pt x="525" y="223" on="0"/>
        <pt x="466" y="228" on="1"/>
      </contour>
      <contour>
        <pt x="487" y="500" on="0"/>
        <pt x="544" y="537" on="0"/>
        <pt x="591" y="587" on="0"/>
        <pt x="606" y="608" on="1"/>
        <pt x="607" y="609" on="0"/>
        <pt x="609" y="612" on="0"/>
        <pt x="610" y="614" on="1"/>
        <pt x="609" y="616" on="0"/>
        <pt x="607" y="618" on="0"/>
        <pt x="606" y="620" on="1"/>
        <pt x="589" y="643" on="0"/>
        <pt x="542" y="693" on="0"/>
        <pt x="486" y="728" on="0"/>
        <pt x="462" y="726" on="1"/>
        <pt x="427" y="725" on="0"/>
        <pt x="376" y="692" on="0"/>
        <pt x="350" y="641" on="0"/>
        <pt x="350" y="614" on="1"/>
        <pt x="350" y="582" on="0"/>
        <pt x="378" y="530" on="0"/>
        <pt x="429" y="500" on="0"/>
        <pt x="462" y="500" on="1"/>
      </contour>
      <contour>
        <pt x="1123" y="501" on="0"/>
        <pt x="1174" y="534" on="0"/>
        <pt x="1200" y="585" on="0"/>
        <pt x="1200" y="614" on="1"/>
        <pt x="1200" y="659" on="0"/>
        <pt x="1142" y="728" on="0"/>
        <pt x="1100" y="728" on="1"/>
        <pt x="1071" y="728" on="0"/>
        <pt x="1015" y="698" on="0"/>
        <pt x="969" y="652" on="0"/>
        <pt x="948" y="625" on="1"/>
        <pt x="940" y="614" on="1"/>
        <pt x="955" y="592" on="0"/>
        <pt x="1004" y="538" on="0"/>
        <pt x="1062" y="499" on="0"/>
        <pt x="1088" y="500" on="1"/>
      </contour>
    </TTGlyph>
    <TTGlyph name="integral" xMin="75" yMin="-26" xMax="1106" yMax="1426">
      <contour>
        <pt x="308" y="-26" on="0"/>
        <pt x="157" y="59" on="0"/>
        <pt x="75" y="211" on="0"/>
        <pt x="80" y="306" on="1"/>
        <pt x="264" y="292" on="1"/>
        <pt x="265" y="287" on="0"/>
        <pt x="266" y="278" on="0"/>
        <pt x="267" y="273" on="1"/>
        <pt x="272" y="239" on="0"/>
        <pt x="288" y="210" on="0"/>
        <pt x="314" y="210" on="1"/>
        <pt x="347" y="210" on="0"/>
        <pt x="392" y="245" on="0"/>
        <pt x="396" y="276" on="1"/>
        <pt x="490" y="1196" on="1"/>
        <pt x="499" y="1258" on="0"/>
        <pt x="590" y="1364" on="0"/>
        <pt x="724" y="1426" on="0"/>
        <pt x="792" y="1426" on="1"/>
        <pt x="880" y="1426" on="0"/>
        <pt x="1027" y="1331" on="0"/>
        <pt x="1106" y="1177" on="0"/>
        <pt x="1098" y="1092" on="1"/>
        <pt x="932" y="1108" on="1"/>
        <pt x="925" y="1156" on="0"/>
        <pt x="876" y="1193" on="0"/>
        <pt x="842" y="1186" on="1"/>
        <pt x="818" y="1183" on="0"/>
        <pt x="784" y="1147" on="0"/>
        <pt x="780" y="1116" on="1"/>
        <pt x="688" y="202" on="1"/>
        <pt x="660" y="86" on="0"/>
        <pt x="503" y="-26" on="0"/>
        <pt x="402" y="-26" on="1"/>
      </contour>
    </TTGlyph>
    <TTGlyph name="j" xMin="-80" yMin="-500" xMax="392" yMax="1400">
      <contour>
        <pt x="-80" y="-473" on="0"/>
        <pt x="-80" y="-405" on="0"/>
        <pt x="-80" y="-369" on="1"/>
        <pt x="-80" y="-325" on="0"/>
        <pt x="-80" y="-237" on="0"/>
        <pt x="-80" y="-200" on="1"/>
        <pt x="-34" y="-200" on="0"/>
        <pt x="45" y="-154" on="0"/>
        <pt x="92" y="-75" on="0"/>
        <pt x="92" y="-28" on="1"/>
        <pt x="92" y="1000" on="1"/>
        <pt x="392" y="1000" on="1"/>
        <pt x="392" y="-28" on="1"/>
        <pt x="392" y="-156" on="0"/>
        <pt x="265" y="-373" on="0"/>
        <pt x="49" y="-500" on="0"/>
        <pt x="-80" y="-500" on="1"/>
      </contour>
      <contour>
        <pt x="201" y="1100" on="0"/>
        <pt x="132" y="1141" on="0"/>
        <pt x="92" y="1210" on="0"/>
        <pt x="92" y="1250" on="1"/>
        <pt x="92" y="1291" on="0"/>
        <pt x="132" y="1360" on="0"/>
        <pt x="201" y="1400" on="0"/>
        <pt x="242" y="1400" on="1"/>
        <pt x="282" y="1400" on="0"/>
        <pt x="351" y="1360" on="0"/>
        <pt x="392" y="1291" on="0"/>
        <pt x="392" y="1250" on="1"/>
        <pt x="392" y="1210" on="0"/>
        <pt x="351" y="1141" on="0"/>
        <pt x="282" y="1100" on="0"/>
        <pt x="242" y="1100" on="1"/>
      </contour>
    </TTGlyph>
    <TTGlyph name="k" xMin="120" yMin="0" xMax="1078" yMax="1500">
      <contour>
        <pt x="728" y="0" on="1"/>
        <pt x="528" y="344" on="1"/>
        <pt x="420" y="216" on="1"/>
        <pt x="420" y="0" on="1"/>
        <pt x="120" y="0" on="1"/>
        <pt x="120" y="1500" on="1"/>
        <pt x="420" y="1500" on="1"/>
        <pt x="420" y="682" on="1"/>
        <pt x="686" y="1000" on="1"/>
        <pt x="1078" y="1000" on="1"/>
        <pt x="734" y="588" on="1"/>
        <pt x="1074" y="0" on="1"/>
      </contour>
    </TTGlyph>
    <TTGlyph name="l" xMin="120" yMin="0" xMax="420" yMax="1500">
      <contour>
        <pt x="120" y="1500" on="1"/>
        <pt x="420" y="1500" on="1"/>
        <pt x="420" y="0" on="1"/>
        <pt x="120" y="0" on="1"/>
      </contour>
    </TTGlyph>
    <TTGlyph name="less" xMin="80" yMin="64" xMax="1080" yMax="1136">
      <contour>
        <pt x="80" y="348" on="1"/>
        <pt x="80" y="850" on="1"/>
        <pt x="1080" y="1136" on="1"/>
        <pt x="1080" y="824" on="1"/>
        <pt x="294" y="600" on="1"/>
        <pt x="1080" y="376" on="1"/>
        <pt x="1080" y="64" on="1"/>
      </contour>
    </TTGlyph>
    <TTGlyph name="lessequal" xMin="80" yMin="0" xMax="1080" yMax="1400">
      <contour>
        <pt x="80" y="612" on="1"/>
        <pt x="80" y="1114" on="1"/>
        <pt x="1080" y="1400" on="1"/>
        <pt x="1080" y="1088" on="1"/>
        <pt x="294" y="864" on="1"/>
        <pt x="1080" y="640" on="1"/>
        <pt x="1080" y="328" on="1"/>
      </contour>
      <contour>
        <pt x="80" y="300" on="1"/>
        <pt x="1080" y="300" on="1"/>
        <pt x="1080" y="0" on="1"/>
        <pt x="80" y="0" on="1"/>
      </contour>
    </TTGlyph>
    <TTGlyph name="logicalnot" xMin="80" yMin="275" xMax="970" yMax="925">
      <contour>
        <pt x="670" y="625" on="1"/>
        <pt x="80" y="625" on="1"/>
        <pt x="80" y="925" on="1"/>
        <pt x="970" y="925" on="1"/>
        <pt x="970" y="275" on="1"/>
        <pt x="670" y="275" on="1"/>
      </contour>
    </TTGlyph>
    <TTGlyph name="lozenge" xMin="60" yMin="0" xMax="1140" yMax="1400">
      <contour>
        <pt x="60" y="702" on="1"/>
        <pt x="326" y="1400" on="1"/>
        <pt x="874" y="1400" on="1"/>
        <pt x="1140" y="702" on="1"/>
        <pt x="872" y="0" on="1"/>
        <pt x="328" y="0" on="1"/>
      </contour>
      <contour>
        <pt x="826" y="702" on="1"/>
        <pt x="600" y="1270" on="1"/>
        <pt x="376" y="702" on="1"/>
        <pt x="600" y="134" on="1"/>
      </contour>
    </TTGlyph>
    <TTGlyph name="m" xMin="80" yMin="0" xMax="1666" yMax="1003">
      <contour>
        <pt x="80" y="1000" on="1"/>
        <pt x="380" y="1000" on="1"/>
        <pt x="380" y="951" on="1"/>
        <pt x="406" y="971" on="0"/>
        <pt x="462" y="994" on="0"/>
        <pt x="520" y="1003" on="0"/>
        <pt x="552" y="1003" on="1"/>
        <pt x="642" y="1003" on="0"/>
        <pt x="808" y="938" on="0"/>
        <pt x="873" y="877" on="1"/>
        <pt x="939" y="938" on="0"/>
        <pt x="1104" y="1003" on="0"/>
        <pt x="1194" y="1003" on="1"/>
        <pt x="1322" y="1003" on="0"/>
        <pt x="1539" y="876" on="0"/>
        <pt x="1666" y="660" on="0"/>
        <pt x="1666" y="532" on="1"/>
        <pt x="1666" y="0" on="1"/>
        <pt x="1366" y="0" on="1"/>
        <pt x="1366" y="532" on="1"/>
        <pt x="1366" y="579" on="0"/>
        <pt x="1320" y="657" on="0"/>
        <pt x="1241" y="703" on="0"/>
        <pt x="1194" y="703" on="1"/>
        <pt x="1148" y="703" on="0"/>
        <pt x="1069" y="657" on="0"/>
        <pt x="1023" y="579" on="0"/>
        <pt x="1023" y="532" on="1"/>
        <pt x="1023" y="0" on="1"/>
        <pt x="723" y="0" on="1"/>
        <pt x="723" y="532" on="1"/>
        <pt x="723" y="579" on="0"/>
        <pt x="677" y="657" on="0"/>
        <pt x="598" y="703" on="0"/>
        <pt x="552" y="703" on="1"/>
        <pt x="505" y="703" on="0"/>
        <pt x="426" y="657" on="0"/>
        <pt x="380" y="579" on="0"/>
        <pt x="380" y="532" on="1"/>
        <pt x="380" y="0" on="1"/>
        <pt x="80" y="0" on="1"/>
      </contour>
    </TTGlyph>
    <TTGlyph name="macron" xMin="262" yMin="1142" xMax="938" yMax="1442">
      <contour>
        <pt x="938" y="1442" on="1"/>
        <pt x="938" y="1142" on="1"/>
        <pt x="262" y="1142" on="1"/>
        <pt x="262" y="1442" on="1"/>
      </contour>
    </TTGlyph>
    <TTGlyph name="minus" xMin="80" yMin="450" xMax="1080" yMax="750">
      <contour>
        <pt x="80" y="750" on="1"/>
        <pt x="1080" y="750" on="1"/>
        <pt x="1080" y="450" on="1"/>
        <pt x="80" y="450" on="1"/>
      </contour>
    </TTGlyph>
    <TTGlyph name="multiply" xMin="80" yMin="140" xMax="998" yMax="1060">
      <contour>
        <pt x="80" y="352" on="1"/>
        <pt x="326" y="600" on="1"/>
        <pt x="80" y="848" on="1"/>
        <pt x="292" y="1060" on="1"/>
        <pt x="538" y="812" on="1"/>
        <pt x="786" y="1060" on="1"/>
        <pt x="998" y="848" on="1"/>
        <pt x="750" y="600" on="1"/>
        <pt x="998" y="352" on="1"/>
        <pt x="786" y="140" on="1"/>
        <pt x="538" y="388" on="1"/>
        <pt x="292" y="140" on="1"/>
      </contour>
    </TTGlyph>
    <TTGlyph name="n" xMin="100" yMin="0" xMax="1116" yMax="1028">
      <contour>
        <pt x="1116" y="0" on="1"/>
        <pt x="816" y="0" on="1"/>
        <pt x="816" y="502" on="1"/>
        <pt x="816" y="567" on="0"/>
        <pt x="762" y="676" on="0"/>
        <pt x="662" y="740" on="0"/>
        <pt x="598" y="740" on="1"/>
        <pt x="535" y="740" on="0"/>
        <pt x="446" y="677" on="0"/>
        <pt x="400" y="568" on="0"/>
        <pt x="400" y="502" on="1"/>
        <pt x="400" y="0" on="1"/>
        <pt x="100" y="0" on="1"/>
        <pt x="100" y="1000" on="1"/>
        <pt x="400" y="1000" on="1"/>
        <pt x="400" y="908" on="1"/>
        <pt x="449" y="965" on="0"/>
        <pt x="574" y="1028" on="0"/>
        <pt x="652" y="1028" on="1"/>
        <pt x="792" y="1028" on="0"/>
        <pt x="1002" y="889" on="0"/>
        <pt x="1115" y="651" on="0"/>
        <pt x="1116" y="506" on="1"/>
      </contour>
    </TTGlyph>
    <TTGlyph name="nine" xMin="60" yMin="0" xMax="1060" yMax="1426">
      <contour>
        <pt x="379" y="443" on="0"/>
        <pt x="176" y="583" on="0"/>
        <pt x="60" y="800" on="0"/>
        <pt x="60" y="926" on="1"/>
        <pt x="60" y="1061" on="0"/>
        <pt x="195" y="1291" on="0"/>
        <pt x="425" y="1426" on="0"/>
        <pt x="562" y="1426" on="1"/>
        <pt x="696" y="1426" on="0"/>
        <pt x="925" y="1291" on="0"/>
        <pt x="1060" y="1062" on="0"/>
        <pt x="1060" y="926" on="1"/>
        <pt x="1060" y="884" on="0"/>
        <pt x="1047" y="803" on="0"/>
        <pt x="1021" y="724" on="0"/>
        <pt x="1000" y="687" on="1"/>
        <pt x="998" y="685" on="0"/>
        <pt x="995" y="679" on="0"/>
        <pt x="994" y="676" on="1"/>
        <pt x="604" y="0" on="1"/>
        <pt x="256" y="0" on="1"/>
        <pt x="504" y="428" on="1"/>
      </contour>
      <contour>
        <pt x="618" y="726" on="0"/>
        <pt x="709" y="783" on="0"/>
        <pt x="760" y="876" on="0"/>
        <pt x="760" y="928" on="1"/>
        <pt x="760" y="983" on="0"/>
        <pt x="704" y="1074" on="0"/>
        <pt x="613" y="1126" on="0"/>
        <pt x="562" y="1126" on="1"/>
        <pt x="506" y="1126" on="0"/>
        <pt x="413" y="1070" on="0"/>
        <pt x="360" y="978" on="0"/>
        <pt x="360" y="928" on="1"/>
        <pt x="360" y="874" on="0"/>
        <pt x="413" y="781" on="0"/>
        <pt x="504" y="726" on="0"/>
        <pt x="560" y="726" on="1"/>
      </contour>
    </TTGlyph>
    <TTGlyph name="notequal" xMin="80" yMin="18" xMax="1080" yMax="1182">
      <contour>
        <pt x="844" y="972" on="1"/>
        <pt x="1080" y="972" on="1"/>
        <pt x="1080" y="672" on="1"/>
        <pt x="756" y="672" on="1"/>
        <pt x="714" y="528" on="1"/>
        <pt x="1080" y="528" on="1"/>
        <pt x="1080" y="228" on="1"/>
        <pt x="626" y="228" on="1"/>
        <pt x="564" y="18" on="1"/>
        <pt x="252" y="18" on="1"/>
        <pt x="314" y="228" on="1"/>
        <pt x="80" y="228" on="1"/>
        <pt x="80" y="528" on="1"/>
        <pt x="402" y="528" on="1"/>
        <pt x="444" y="672" on="1"/>
        <pt x="80" y="672" on="1"/>
        <pt x="80" y="972" on="1"/>
        <pt x="532" y="972" on="1"/>
        <pt x="594" y="1182" on="1"/>
        <pt x="906" y="1182" on="1"/>
      </contour>
    </TTGlyph>
    <TTGlyph name="ntilde" xMin="100" yMin="0" xMax="1116" yMax="1520">
      <component glyphName="n" x="0" y="0" flags="0x0"/>
      <component glyphName="tildecomb" x="-12" y="0" flags="0x0"/>
    </TTGlyph>
    <TTGlyph name="numbersign" xMin="80" yMin="0" xMax="1526" yMax="1400">
      <contour>
        <pt x="1300" y="850" on="1"/>
        <pt x="1218" y="550" on="1"/>
        <pt x="1368" y="550" on="1"/>
        <pt x="1290" y="260" on="1"/>
        <pt x="1142" y="260" on="1"/>
        <pt x="1072" y="0" on="1"/>
        <pt x="772" y="0" on="1"/>
        <pt x="842" y="260" on="1"/>
        <pt x="528" y="260" on="1"/>
        <pt x="460" y="0" on="1"/>
        <pt x="160" y="0" on="1"/>
        <pt x="228" y="260" on="1"/>
        <pt x="80" y="260" on="1"/>
        <pt x="158" y="550" on="1"/>
        <pt x="306" y="550" on="1"/>
        <pt x="388" y="850" on="1"/>
        <pt x="238" y="850" on="1"/>
        <pt x="316" y="1140" on="1"/>
        <pt x="464" y="1140" on="1"/>
        <pt x="534" y="1400" on="1"/>
        <pt x="834" y="1400" on="1"/>
        <pt x="764" y="1140" on="1"/>
        <pt x="1078" y="1140" on="1"/>
        <pt x="1146" y="1400" on="1"/>
        <pt x="1446" y="1400" on="1"/>
        <pt x="1378" y="1140" on="1"/>
        <pt x="1526" y="1140" on="1"/>
        <pt x="1448" y="850" on="1"/>
      </contour>
      <contour>
        <pt x="1000" y="850" on="1"/>
        <pt x="688" y="850" on="1"/>
        <pt x="606" y="550" on="1"/>
        <pt x="918" y="550" on="1"/>
      </contour>
    </TTGlyph>
    <TTGlyph name="o" xMin="60" yMin="-26" xMax="1060" yMax="1028">
      <contour>
        <pt x="424" y="-26" on="0"/>
        <pt x="195" y="116" on="0"/>
        <pt x="60" y="357" on="0"/>
        <pt x="60" y="500" on="1"/>
        <pt x="60" y="644" on="0"/>
        <pt x="195" y="886" on="0"/>
        <pt x="424" y="1028" on="0"/>
        <pt x="560" y="1028" on="1"/>
        <pt x="696" y="1028" on="0"/>
        <pt x="925" y="886" on="0"/>
        <pt x="1060" y="644" on="0"/>
        <pt x="1060" y="500" on="1"/>
        <pt x="1060" y="357" on="0"/>
        <pt x="925" y="116" on="0"/>
        <pt x="696" y="-26" on="0"/>
        <pt x="560" y="-26" on="1"/>
      </contour>
      <contour>
        <pt x="616" y="274" on="0"/>
        <pt x="707" y="336" on="0"/>
        <pt x="760" y="440" on="0"/>
        <pt x="760" y="500" on="1"/>
        <pt x="760" y="562" on="0"/>
        <pt x="705" y="667" on="0"/>
        <pt x="613" y="728" on="0"/>
        <pt x="560" y="728" on="1"/>
        <pt x="505" y="728" on="0"/>
        <pt x="413" y="665" on="0"/>
        <pt x="360" y="560" on="0"/>
        <pt x="360" y="500" on="1"/>
        <pt x="360" y="437" on="0"/>
        <pt x="415" y="334" on="0"/>
        <pt x="507" y="274" on="0"/>
        <pt x="560" y="274" on="1"/>
      </contour>
    </TTGlyph>
    <TTGlyph name="oacute" xMin="60" yMin="-26" xMax="1060" yMax="1426">
      <component glyphName="o" x="0" y="0" flags="0x0"/>
      <component glyphName="acutecomb" x="-10" y="0" flags="0x0"/>
    </TTGlyph>
    <TTGlyph name="ocircumflex" xMin="60" yMin="-26" xMax="1060" yMax="1400">
      <component glyphName="o" x="0" y="0" flags="0x0"/>
      <component glyphName="uni0302" x="-92" y="0" flags="0x0"/>
    </TTGlyph>
    <TTGlyph name="odieresis" xMin="60" yMin="-26" xMax="1060" yMax="1424">
      <component glyphName="o" x="0" y="0" flags="0x0"/>
      <component glyphName="uni0308" x="-170" y="0" flags="0x0"/>
    </TTGlyph>
    <TTGlyph name="oe" xMin="60" yMin="-26" xMax="1779" yMax="1028">
      <contour>
        <pt x="424" y="-26" on="0"/>
        <pt x="195" y="116" on="0"/>
        <pt x="60" y="357" on="0"/>
        <pt x="60" y="500" on="1"/>
        <pt x="60" y="644" on="0"/>
        <pt x="195" y="886" on="0"/>
        <pt x="424" y="1028" on="0"/>
        <pt x="560" y="1028" on="1"/>
        <pt x="627" y="1028" on="0"/>
        <pt x="753" y="992" on="0"/>
        <pt x="865" y="924" on="0"/>
        <pt x="910" y="878" on="1"/>
        <pt x="955" y="924" on="0"/>
        <pt x="1067" y="992" on="0"/>
        <pt x="1193" y="1028" on="0"/>
        <pt x="1260" y="1028" on="1"/>
        <pt x="1415" y="1028" on="0"/>
        <pt x="1663" y="849" on="0"/>
        <pt x="1779" y="559" on="0"/>
        <pt x="1750" y="402" on="1"/>
        <pt x="1084" y="402" on="1"/>
        <pt x="1099" y="364" on="0"/>
        <pt x="1146" y="308" on="0"/>
        <pt x="1215" y="275" on="0"/>
        <pt x="1260" y="274" on="1"/>
        <pt x="1303" y="274" on="0"/>
        <pt x="1379" y="313" on="0"/>
        <pt x="1406" y="348" on="1"/>
        <pt x="1712" y="276" on="1"/>
        <pt x="1672" y="187" on="0"/>
        <pt x="1535" y="50" on="0"/>
        <pt x="1358" y="-26" on="0"/>
        <pt x="1260" y="-26" on="1"/>
        <pt x="1193" y="-26" on="0"/>
        <pt x="1067" y="10" on="0"/>
        <pt x="955" y="78" on="0"/>
        <pt x="910" y="124" on="1"/>
        <pt x="865" y="78" on="0"/>
        <pt x="753" y="10" on="0"/>
        <pt x="627" y="-26" on="0"/>
        <pt x="560" y="-26" on="1"/>
      </contour>
      <contour>
        <pt x="616" y="274" on="0"/>
        <pt x="707" y="336" on="0"/>
        <pt x="760" y="440" on="0"/>
        <pt x="760" y="500" on="1"/>
        <pt x="760" y="562" on="0"/>
        <pt x="705" y="667" on="0"/>
        <pt x="613" y="728" on="0"/>
        <pt x="560" y="728" on="1"/>
        <pt x="505" y="728" on="0"/>
        <pt x="413" y="665" on="0"/>
        <pt x="360" y="560" on="0"/>
        <pt x="360" y="500" on="1"/>
        <pt x="360" y="437" on="0"/>
        <pt x="415" y="334" on="0"/>
        <pt x="507" y="274" on="0"/>
        <pt x="560" y="274" on="1"/>
      </contour>
      <contour>
        <pt x="1432" y="665" on="0"/>
        <pt x="1377" y="731" on="0"/>
        <pt x="1302" y="768" on="0"/>
        <pt x="1260" y="768" on="1"/>
        <pt x="1218" y="768" on="0"/>
        <pt x="1142" y="731" on="0"/>
        <pt x="1086" y="665" on="0"/>
        <pt x="1072" y="622" on="1"/>
        <pt x="1446" y="622" on="1"/>
      </contour>
    </TTGlyph>
    <TTGlyph name="ogonek" xMin="262" yMin="-446" xMax="772" yMax="62">
      <contour>
        <pt x="543" y="-446" on="0"/>
        <pt x="366" y="-343" on="0"/>
        <pt x="262" y="-166" on="0"/>
        <pt x="262" y="-62" on="1"/>
        <pt x="262" y="62" on="1"/>
        <pt x="480" y="62" on="1"/>
        <pt x="480" y="-66" on="1"/>
        <pt x="480" y="-104" on="0"/>
        <pt x="529" y="-180" on="0"/>
        <pt x="605" y="-228" on="0"/>
        <pt x="644" y="-228" on="1"/>
        <pt x="772" y="-228" on="1"/>
        <pt x="772" y="-446" on="1"/>
        <pt x="648" y="-446" on="1"/>
      </contour>
    </TTGlyph>
    <TTGlyph name="ograve" xMin="60" yMin="-26" xMax="1060" yMax="1426">
      <component glyphName="o" x="0" y="0" flags="0x0"/>
      <component glyphName="grave" x="-70" y="0" flags="0x0"/>
    </TTGlyph>
    <TTGlyph name="one" xMin="80" yMin="0" xMax="570" yMax="1400">
      <contour>
        <pt x="270" y="1100" on="1"/>
        <pt x="80" y="1100" on="1"/>
        <pt x="160" y="1400" on="1"/>
        <pt x="570" y="1400" on="1"/>
        <pt x="570" y="0" on="1"/>
        <pt x="270" y="0" on="1"/>
      </contour>
    </TTGlyph>
    <TTGlyph name="oneeighth" xMin="120" yMin="-31" xMax="1180" yMax="1449">
      <component glyphName="uni00B9" x="200" y="0" flags="0x0"/>
      <component glyphName="fraction" x="120" y="0" flags="0x0"/>
      <component glyphName="uni2088" x="640" y="0" flags="0x0"/>
    </TTGlyph>
    <TTGlyph name="onehalf" xMin="120" yMin="0" xMax="1243" yMax="1449">
      <component glyphName="uni00B9" x="218" y="0" flags="0x0"/>
      <component glyphName="fraction" x="120" y="0" flags="0x0"/>
      <component glyphName="uni2082" x="660" y="0" flags="0x0"/>
    </TTGlyph>
    <TTGlyph name="onequarter" xMin="120" yMin="0" xMax="1170" yMax="1449">
      <component glyphName="uni00B9" x="200" y="0" flags="0x0"/>
      <component glyphName="fraction" x="120" y="0" flags="0x0"/>
      <component glyphName="uni2084" x="570" y="0" flags="0x0"/>
    </TTGlyph>
    <TTGlyph name="ordfeminine" xMin="72" yMin="-26" xMax="1150" yMax="1028">
      <component glyphName="a" x="0" y="0" flags="0x0"/>
    </TTGlyph>
    <TTGlyph name="ordmasculine" xMin="60" yMin="-26" xMax="1060" yMax="1028">
      <component glyphName="o" x="0" y="0" flags="0x0"/>
    </TTGlyph>
    <TTGlyph name="oslash" xMin="60" yMin="-86" xMax="1060" yMax="1088">
      <contour>
        <pt x="152" y="34" on="1"/>
        <pt x="206" y="128" on="1"/>
        <pt x="137" y="201" on="0"/>
        <pt x="60" y="394" on="0"/>
        <pt x="60" y="500" on="1"/>
        <pt x="60" y="644" on="0"/>
        <pt x="195" y="886" on="0"/>
        <pt x="424" y="1028" on="0"/>
        <pt x="560" y="1028" on="1"/>
        <pt x="641" y="1028" on="0"/>
        <pt x="710" y="1004" on="1"/>
        <pt x="760" y="1088" on="1"/>
        <pt x="968" y="968" on="1"/>
        <pt x="914" y="874" on="1"/>
        <pt x="983" y="800" on="0"/>
        <pt x="1060" y="607" on="0"/>
        <pt x="1060" y="500" on="1"/>
        <pt x="1060" y="357" on="0"/>
        <pt x="925" y="116" on="0"/>
        <pt x="696" y="-26" on="0"/>
        <pt x="560" y="-26" on="1"/>
        <pt x="480" y="-26" on="0"/>
        <pt x="408" y="-2" on="1"/>
        <pt x="360" y="-86" on="1"/>
      </contour>
      <contour>
        <pt x="510" y="764" on="0"/>
        <pt x="400" y="685" on="0"/>
        <pt x="336" y="556" on="0"/>
        <pt x="336" y="482" on="1"/>
        <pt x="336" y="454" on="0"/>
        <pt x="345" y="404" on="0"/>
        <pt x="354" y="380" on="1"/>
        <pt x="576" y="766" on="1"/>
      </contour>
      <contour>
        <pt x="611" y="238" on="0"/>
        <pt x="721" y="316" on="0"/>
        <pt x="784" y="444" on="0"/>
        <pt x="784" y="518" on="1"/>
        <pt x="784" y="544" on="0"/>
        <pt x="775" y="595" on="0"/>
        <pt x="766" y="622" on="1"/>
        <pt x="544" y="236" on="1"/>
      </contour>
    </TTGlyph>
    <TTGlyph name="otilde" xMin="60" yMin="-26" xMax="1060" yMax="1520">
      <component glyphName="o" x="0" y="0" flags="0x0"/>
      <component glyphName="tildecomb" x="-94" y="0" flags="0x0"/>
    </TTGlyph>
    <TTGlyph name="p" xMin="120" yMin="-500" xMax="1198" yMax="1026">
      <contour>
        <pt x="120" y="-500" on="1"/>
        <pt x="120" y="1000" on="1"/>
        <pt x="420" y="1000" on="1"/>
        <pt x="420" y="906" on="1"/>
        <pt x="470" y="962" on="0"/>
        <pt x="595" y="1026" on="0"/>
        <pt x="672" y="1026" on="1"/>
        <pt x="816" y="1026" on="0"/>
        <pt x="1057" y="884" on="0"/>
        <pt x="1198" y="643" on="0"/>
        <pt x="1198" y="500" on="1"/>
        <pt x="1198" y="356" on="0"/>
        <pt x="1057" y="114" on="0"/>
        <pt x="816" y="-28" on="0"/>
        <pt x="672" y="-28" on="1"/>
        <pt x="595" y="-28" on="0"/>
        <pt x="470" y="36" on="0"/>
        <pt x="420" y="92" on="1"/>
        <pt x="420" y="-500" on="1"/>
      </contour>
      <contour>
        <pt x="608" y="738" on="0"/>
        <pt x="506" y="673" on="0"/>
        <pt x="446" y="564" on="0"/>
        <pt x="446" y="500" on="1"/>
        <pt x="446" y="435" on="0"/>
        <pt x="506" y="326" on="0"/>
        <pt x="608" y="262" on="0"/>
        <pt x="668" y="262" on="1"/>
        <pt x="729" y="262" on="0"/>
        <pt x="832" y="326" on="0"/>
        <pt x="892" y="435" on="0"/>
        <pt x="892" y="500" on="1"/>
        <pt x="892" y="564" on="0"/>
        <pt x="832" y="673" on="0"/>
        <pt x="729" y="738" on="0"/>
        <pt x="668" y="738" on="1"/>
      </contour>
    </TTGlyph>
    <TTGlyph name="paragraph" xMin="80" yMin="-302" xMax="1086" yMax="1400">
      <contour>
        <pt x="327" y="718" on="0"/>
        <pt x="171" y="810" on="0"/>
        <pt x="80" y="967" on="0"/>
        <pt x="80" y="1060" on="1"/>
        <pt x="80" y="1152" on="0"/>
        <pt x="171" y="1309" on="0"/>
        <pt x="328" y="1400" on="0"/>
        <pt x="420" y="1400" on="1"/>
        <pt x="720" y="1400" on="1"/>
        <pt x="720" y="-302" on="1"/>
        <pt x="420" y="-302" on="1"/>
        <pt x="420" y="718" on="1"/>
      </contour>
      <contour>
        <pt x="786" y="1400" on="1"/>
        <pt x="1086" y="1400" on="1"/>
        <pt x="1086" y="-302" on="1"/>
        <pt x="786" y="-302" on="1"/>
      </contour>
    </TTGlyph>
    <TTGlyph name="parenleft" xMin="120" yMin="-112" xMax="720" yMax="1400">
      <contour>
        <pt x="263" y="45" on="0"/>
        <pt x="120" y="405" on="0"/>
        <pt x="120" y="644" on="1"/>
        <pt x="120" y="762" on="0"/>
        <pt x="205" y="1102" on="0"/>
        <pt x="343" y="1372" on="0"/>
        <pt x="420" y="1400" on="1"/>
        <pt x="720" y="1400" on="1"/>
        <pt x="661" y="1370" on="0"/>
        <pt x="519" y="1097" on="0"/>
        <pt x="420" y="760" on="0"/>
        <pt x="420" y="644" on="1"/>
        <pt x="420" y="498" on="0"/>
        <pt x="510" y="210" on="0"/>
        <pt x="647" y="-27" on="0"/>
        <pt x="720" y="-112" on="1"/>
        <pt x="420" y="-112" on="1"/>
      </contour>
    </TTGlyph>
    <TTGlyph name="parenright" xMin="100" yMin="-112" xMax="700" yMax="1400">
      <contour>
        <pt x="173" y="-27" on="0"/>
        <pt x="310" y="210" on="0"/>
        <pt x="400" y="498" on="0"/>
        <pt x="400" y="644" on="1"/>
        <pt x="400" y="760" on="0"/>
        <pt x="301" y="1097" on="0"/>
        <pt x="159" y="1370" on="0"/>
        <pt x="100" y="1400" on="1"/>
        <pt x="400" y="1400" on="1"/>
        <pt x="477" y="1372" on="0"/>
        <pt x="615" y="1102" on="0"/>
        <pt x="700" y="762" on="0"/>
        <pt x="700" y="644" on="1"/>
        <pt x="700" y="405" on="0"/>
        <pt x="557" y="45" on="0"/>
        <pt x="400" y="-112" on="1"/>
        <pt x="100" y="-112" on="1"/>
      </contour>
    </TTGlyph>
    <TTGlyph name="partialdiff" xMin="80" yMin="-26" xMax="1086" yMax="1540">
      <contour>
        <pt x="447" y="-26" on="0"/>
        <pt x="216" y="110" on="0"/>
        <pt x="80" y="340" on="0"/>
        <pt x="80" y="476" on="1"/>
        <pt x="80" y="613" on="0"/>
        <pt x="216" y="844" on="0"/>
        <pt x="447" y="980" on="0"/>
        <pt x="584" y="980" on="1"/>
        <pt x="591" y="980" on="0"/>
        <pt x="604" y="980" on="0"/>
        <pt x="611" y="979" on="1"/>
        <pt x="625" y="978" on="0"/>
        <pt x="651" y="975" on="0"/>
        <pt x="664" y="972" on="1"/>
        <pt x="660" y="980" on="0"/>
        <pt x="652" y="997" on="0"/>
        <pt x="648" y="1006" on="1"/>
        <pt x="613" y="1078" on="0"/>
        <pt x="549" y="1172" on="0"/>
        <pt x="431" y="1240" on="0"/>
        <pt x="340" y="1240" on="1"/>
        <pt x="338" y="1540" on="1"/>
        <pt x="561" y="1540" on="0"/>
        <pt x="902" y="1254" on="0"/>
        <pt x="1086" y="782" on="0"/>
        <pt x="1086" y="512" on="1"/>
        <pt x="1086" y="357" on="0"/>
        <pt x="956" y="112" on="0"/>
        <pt x="727" y="-26" on="0"/>
        <pt x="584" y="-26" on="1"/>
      </contour>
      <contour>
        <pt x="638" y="274" on="0"/>
        <pt x="731" y="329" on="0"/>
        <pt x="786" y="422" on="0"/>
        <pt x="786" y="476" on="1"/>
        <pt x="786" y="531" on="0"/>
        <pt x="731" y="625" on="0"/>
        <pt x="638" y="680" on="0"/>
        <pt x="584" y="680" on="1"/>
        <pt x="529" y="680" on="0"/>
        <pt x="435" y="625" on="0"/>
        <pt x="380" y="531" on="0"/>
        <pt x="380" y="476" on="1"/>
        <pt x="380" y="422" on="0"/>
        <pt x="435" y="329" on="0"/>
        <pt x="529" y="274" on="0"/>
        <pt x="584" y="274" on="1"/>
      </contour>
    </TTGlyph>
    <TTGlyph name="percent" xMin="80" yMin="-26" xMax="1550" yMax="1424">
      <contour>
        <pt x="1046" y="1400" on="1"/>
        <pt x="1392" y="1400" on="1"/>
        <pt x="584" y="0" on="1"/>
        <pt x="238" y="0" on="1"/>
      </contour>
      <contour>
        <pt x="324" y="760" on="0"/>
        <pt x="171" y="848" on="0"/>
        <pt x="80" y="1001" on="0"/>
        <pt x="80" y="1092" on="1"/>
        <pt x="80" y="1186" on="0"/>
        <pt x="172" y="1338" on="0"/>
        <pt x="325" y="1424" on="0"/>
        <pt x="414" y="1424" on="1"/>
        <pt x="504" y="1424" on="0"/>
        <pt x="656" y="1336" on="0"/>
        <pt x="746" y="1183" on="0"/>
        <pt x="746" y="1092" on="1"/>
        <pt x="746" y="999" on="0"/>
        <pt x="654" y="847" on="0"/>
        <pt x="501" y="760" on="0"/>
        <pt x="414" y="760" on="1"/>
      </contour>
      <contour>
        <pt x="450" y="960" on="0"/>
        <pt x="510" y="995" on="0"/>
        <pt x="546" y="1056" on="0"/>
        <pt x="546" y="1092" on="1"/>
        <pt x="546" y="1128" on="0"/>
        <pt x="510" y="1189" on="0"/>
        <pt x="450" y="1224" on="0"/>
        <pt x="414" y="1224" on="1"/>
        <pt x="378" y="1224" on="0"/>
        <pt x="316" y="1189" on="0"/>
        <pt x="280" y="1128" on="0"/>
        <pt x="280" y="1092" on="1"/>
        <pt x="280" y="1056" on="0"/>
        <pt x="316" y="995" on="0"/>
        <pt x="378" y="960" on="0"/>
        <pt x="414" y="960" on="1"/>
      </contour>
      <contour>
        <pt x="1125" y="-26" on="0"/>
        <pt x="973" y="67" on="0"/>
        <pt x="884" y="220" on="0"/>
        <pt x="884" y="306" on="1"/>
        <pt x="884" y="399" on="0"/>
        <pt x="976" y="552" on="0"/>
        <pt x="1129" y="640" on="0"/>
        <pt x="1216" y="640" on="1"/>
        <pt x="1309" y="640" on="0"/>
        <pt x="1462" y="547" on="0"/>
        <pt x="1550" y="394" on="0"/>
        <pt x="1550" y="306" on="1"/>
        <pt x="1550" y="216" on="0"/>
        <pt x="1460" y="64" on="0"/>
        <pt x="1306" y="-26" on="0"/>
        <pt x="1216" y="-26" on="1"/>
      </contour>
      <contour>
        <pt x="1252" y="174" on="0"/>
        <pt x="1314" y="210" on="0"/>
        <pt x="1350" y="271" on="0"/>
        <pt x="1350" y="306" on="1"/>
        <pt x="1350" y="342" on="0"/>
        <pt x="1314" y="404" on="0"/>
        <pt x="1252" y="440" on="0"/>
        <pt x="1216" y="440" on="1"/>
        <pt x="1181" y="440" on="0"/>
        <pt x="1120" y="404" on="0"/>
        <pt x="1084" y="342" on="0"/>
        <pt x="1084" y="306" on="1"/>
        <pt x="1084" y="271" on="0"/>
        <pt x="1120" y="210" on="0"/>
        <pt x="1181" y="174" on="0"/>
        <pt x="1216" y="174" on="1"/>
      </contour>
    </TTGlyph>
    <TTGlyph name="period" xMin="80" yMin="-26" xMax="380" yMax="274">
      <contour>
        <pt x="189" y="-26" on="0"/>
        <pt x="120" y="14" on="0"/>
        <pt x="80" y="83" on="0"/>
        <pt x="80" y="124" on="1"/>
        <pt x="80" y="164" on="0"/>
        <pt x="120" y="233" on="0"/>
        <pt x="189" y="274" on="0"/>
        <pt x="230" y="274" on="1"/>
        <pt x="270" y="274" on="0"/>
        <pt x="339" y="233" on="0"/>
        <pt x="380" y="164" on="0"/>
        <pt x="380" y="124" on="1"/>
        <pt x="380" y="83" on="0"/>
        <pt x="339" y="14" on="0"/>
        <pt x="270" y="-26" on="0"/>
        <pt x="230" y="-26" on="1"/>
      </contour>
    </TTGlyph>
    <TTGlyph name="periodcentered" xMin="80" yMin="450" xMax="380" yMax="750">
      <contour>
        <pt x="189" y="450" on="0"/>
        <pt x="120" y="490" on="0"/>
        <pt x="80" y="559" on="0"/>
        <pt x="80" y="600" on="1"/>
        <pt x="80" y="640" on="0"/>
        <pt x="120" y="709" on="0"/>
        <pt x="189" y="750" on="0"/>
        <pt x="230" y="750" on="1"/>
        <pt x="270" y="750" on="0"/>
        <pt x="339" y="709" on="0"/>
        <pt x="380" y="640" on="0"/>
        <pt x="380" y="600" on="1"/>
        <pt x="380" y="559" on="0"/>
        <pt x="339" y="490" on="0"/>
        <pt x="270" y="450" on="0"/>
        <pt x="230" y="450" on="1"/>
      </contour>
    </TTGlyph>
    <TTGlyph name="perthousand" xMin="80" yMin="-26" xMax="2270" yMax="1424">
      <contour>
        <pt x="1046" y="1400" on="1"/>
        <pt x="1392" y="1400" on="1"/>
        <pt x="584" y="0" on="1"/>
        <pt x="238" y="0" on="1"/>
      </contour>
      <contour>
        <pt x="324" y="760" on="0"/>
        <pt x="171" y="848" on="0"/>
        <pt x="80" y="1001" on="0"/>
        <pt x="80" y="1092" on="1"/>
        <pt x="80" y="1186" on="0"/>
        <pt x="172" y="1338" on="0"/>
        <pt x="325" y="1424" on="0"/>
        <pt x="414" y="1424" on="1"/>
        <pt x="504" y="1424" on="0"/>
        <pt x="656" y="1335" on="0"/>
        <pt x="746" y="1182" on="0"/>
        <pt x="746" y="1092" on="1"/>
        <pt x="746" y="999" on="0"/>
        <pt x="654" y="847" on="0"/>
        <pt x="501" y="760" on="0"/>
        <pt x="414" y="760" on="1"/>
      </contour>
      <contour>
        <pt x="450" y="960" on="0"/>
        <pt x="510" y="995" on="0"/>
        <pt x="546" y="1056" on="0"/>
        <pt x="546" y="1092" on="1"/>
        <pt x="546" y="1128" on="0"/>
        <pt x="510" y="1189" on="0"/>
        <pt x="450" y="1224" on="0"/>
        <pt x="414" y="1224" on="1"/>
        <pt x="378" y="1224" on="0"/>
        <pt x="316" y="1189" on="0"/>
        <pt x="280" y="1128" on="0"/>
        <pt x="280" y="1092" on="1"/>
        <pt x="280" y="1056" on="0"/>
        <pt x="316" y="995" on="0"/>
        <pt x="378" y="960" on="0"/>
        <pt x="414" y="960" on="1"/>
      </contour>
      <contour>
        <pt x="1125" y="-26" on="0"/>
        <pt x="973" y="67" on="0"/>
        <pt x="884" y="220" on="0"/>
        <pt x="884" y="306" on="1"/>
        <pt x="884" y="399" on="0"/>
        <pt x="976" y="552" on="0"/>
        <pt x="1129" y="640" on="0"/>
        <pt x="1216" y="640" on="1"/>
        <pt x="1309" y="640" on="0"/>
        <pt x="1462" y="547" on="0"/>
        <pt x="1550" y="394" on="0"/>
        <pt x="1550" y="306" on="1"/>
        <pt x="1550" y="216" on="0"/>
        <pt x="1460" y="64" on="0"/>
        <pt x="1306" y="-26" on="0"/>
        <pt x="1216" y="-26" on="1"/>
      </contour>
      <contour>
        <pt x="1252" y="174" on="0"/>
        <pt x="1314" y="210" on="0"/>
        <pt x="1350" y="271" on="0"/>
        <pt x="1350" y="306" on="1"/>
        <pt x="1350" y="342" on="0"/>
        <pt x="1314" y="404" on="0"/>
        <pt x="1252" y="440" on="0"/>
        <pt x="1216" y="440" on="1"/>
        <pt x="1181" y="440" on="0"/>
        <pt x="1120" y="404" on="0"/>
        <pt x="1084" y="342" on="0"/>
        <pt x="1084" y="306" on="1"/>
        <pt x="1084" y="271" on="0"/>
        <pt x="1120" y="210" on="0"/>
        <pt x="1181" y="174" on="0"/>
        <pt x="1216" y="174" on="1"/>
      </contour>
      <contour>
        <pt x="1845" y="-26" on="0"/>
        <pt x="1693" y="67" on="0"/>
        <pt x="1604" y="220" on="0"/>
        <pt x="1604" y="306" on="1"/>
        <pt x="1604" y="399" on="0"/>
        <pt x="1696" y="552" on="0"/>
        <pt x="1849" y="640" on="0"/>
        <pt x="1936" y="640" on="1"/>
        <pt x="2029" y="640" on="0"/>
        <pt x="2182" y="547" on="0"/>
        <pt x="2270" y="394" on="0"/>
        <pt x="2270" y="306" on="1"/>
        <pt x="2270" y="216" on="0"/>
        <pt x="2180" y="64" on="0"/>
        <pt x="2026" y="-26" on="0"/>
        <pt x="1936" y="-26" on="1"/>
      </contour>
      <contour>
        <pt x="1972" y="174" on="0"/>
        <pt x="2034" y="210" on="0"/>
        <pt x="2070" y="271" on="0"/>
        <pt x="2070" y="306" on="1"/>
        <pt x="2070" y="342" on="0"/>
        <pt x="2034" y="404" on="0"/>
        <pt x="1972" y="440" on="0"/>
        <pt x="1936" y="440" on="1"/>
        <pt x="1901" y="440" on="0"/>
        <pt x="1840" y="404" on="0"/>
        <pt x="1804" y="342" on="0"/>
        <pt x="1804" y="306" on="1"/>
        <pt x="1804" y="271" on="0"/>
        <pt x="1840" y="210" on="0"/>
        <pt x="1901" y="174" on="0"/>
        <pt x="1936" y="174" on="1"/>
      </contour>
    </TTGlyph>
    <TTGlyph name="plus" xMin="80" yMin="100" xMax="1080" yMax="1100">
      <contour>
        <pt x="430" y="450" on="1"/>
        <pt x="80" y="450" on="1"/>
        <pt x="80" y="750" on="1"/>
        <pt x="430" y="750" on="1"/>
        <pt x="430" y="1100" on="1"/>
        <pt x="730" y="1100" on="1"/>
        <pt x="730" y="750" on="1"/>
        <pt x="1080" y="750" on="1"/>
        <pt x="1080" y="450" on="1"/>
        <pt x="730" y="450" on="1"/>
        <pt x="730" y="100" on="1"/>
        <pt x="430" y="100" on="1"/>
      </contour>
    </TTGlyph>
    <TTGlyph name="plusminus" xMin="80" yMin="0" xMax="1080" yMax="1400">
      <contour>
        <pt x="430" y="750" on="1"/>
        <pt x="80" y="750" on="1"/>
        <pt x="80" y="1050" on="1"/>
        <pt x="430" y="1050" on="1"/>
        <pt x="430" y="1400" on="1"/>
        <pt x="730" y="1400" on="1"/>
        <pt x="730" y="1050" on="1"/>
        <pt x="1080" y="1050" on="1"/>
        <pt x="1080" y="750" on="1"/>
        <pt x="730" y="750" on="1"/>
        <pt x="730" y="400" on="1"/>
        <pt x="430" y="400" on="1"/>
      </contour>
      <contour>
        <pt x="80" y="300" on="1"/>
        <pt x="1080" y="300" on="1"/>
        <pt x="1080" y="0" on="1"/>
        <pt x="80" y="0" on="1"/>
      </contour>
    </TTGlyph>
    <TTGlyph name="product" xMin="80" yMin="0" xMax="1200" yMax="1400">
      <contour>
        <pt x="1200" y="1400" on="1"/>
        <pt x="1200" y="1100" on="1"/>
        <pt x="80" y="1100" on="1"/>
        <pt x="80" y="1400" on="1"/>
      </contour>
      <contour>
        <pt x="490" y="1194" on="1"/>
        <pt x="490" y="0" on="1"/>
        <pt x="190" y="0" on="1"/>
        <pt x="190" y="1194" on="1"/>
      </contour>
      <contour>
        <pt x="1090" y="1194" on="1"/>
        <pt x="1090" y="0" on="1"/>
        <pt x="790" y="0" on="1"/>
        <pt x="790" y="1194" on="1"/>
      </contour>
    </TTGlyph>
    <TTGlyph name="q" xMin="80" yMin="-500" xMax="1158" yMax="1026">
      <contour>
        <pt x="463" y="-28" on="0"/>
        <pt x="222" y="114" on="0"/>
        <pt x="80" y="356" on="0"/>
        <pt x="80" y="500" on="1"/>
        <pt x="80" y="643" on="0"/>
        <pt x="222" y="884" on="0"/>
        <pt x="463" y="1026" on="0"/>
        <pt x="606" y="1026" on="1"/>
        <pt x="683" y="1026" on="0"/>
        <pt x="808" y="962" on="0"/>
        <pt x="858" y="906" on="1"/>
        <pt x="858" y="1000" on="1"/>
        <pt x="1158" y="1000" on="1"/>
        <pt x="1158" y="-500" on="1"/>
        <pt x="858" y="-500" on="1"/>
        <pt x="858" y="92" on="1"/>
        <pt x="808" y="36" on="0"/>
        <pt x="683" y="-28" on="0"/>
        <pt x="606" y="-28" on="1"/>
      </contour>
      <contour>
        <pt x="549" y="738" on="0"/>
        <pt x="447" y="674" on="0"/>
        <pt x="388" y="564" on="0"/>
        <pt x="388" y="500" on="1"/>
        <pt x="388" y="435" on="0"/>
        <pt x="447" y="326" on="0"/>
        <pt x="549" y="262" on="0"/>
        <pt x="610" y="262" on="1"/>
        <pt x="671" y="262" on="0"/>
        <pt x="773" y="326" on="0"/>
        <pt x="832" y="435" on="0"/>
        <pt x="832" y="500" on="1"/>
        <pt x="832" y="564" on="0"/>
        <pt x="773" y="674" on="0"/>
        <pt x="671" y="738" on="0"/>
        <pt x="610" y="738" on="1"/>
      </contour>
    </TTGlyph>
    <TTGlyph name="question" xMin="80" yMin="-26" xMax="1044" yMax="1426">
      <contour>
        <pt x="426" y="521" on="0"/>
        <pt x="547" y="724" on="0"/>
        <pt x="654" y="782" on="1"/>
        <pt x="696" y="804" on="0"/>
        <pt x="744" y="892" on="0"/>
        <pt x="744" y="946" on="1"/>
        <pt x="744" y="995" on="0"/>
        <pt x="695" y="1078" on="0"/>
        <pt x="611" y="1126" on="0"/>
        <pt x="562" y="1126" on="1"/>
        <pt x="513" y="1126" on="0"/>
        <pt x="429" y="1078" on="0"/>
        <pt x="380" y="995" on="0"/>
        <pt x="380" y="946" on="1"/>
        <pt x="80" y="946" on="1"/>
        <pt x="80" y="1076" on="0"/>
        <pt x="210" y="1296" on="0"/>
        <pt x="431" y="1426" on="0"/>
        <pt x="562" y="1426" on="1"/>
        <pt x="693" y="1426" on="0"/>
        <pt x="914" y="1296" on="0"/>
        <pt x="1044" y="1076" on="0"/>
        <pt x="1044" y="946" on="1"/>
        <pt x="1044" y="809" on="0"/>
        <pt x="911" y="579" on="0"/>
        <pt x="796" y="518" on="1"/>
        <pt x="763" y="501" on="0"/>
        <pt x="726" y="438" on="0"/>
        <pt x="726" y="400" on="1"/>
        <pt x="426" y="400" on="1"/>
      </contour>
      <contour>
        <pt x="551" y="-26" on="0"/>
        <pt x="482" y="14" on="0"/>
        <pt x="442" y="84" on="0"/>
        <pt x="442" y="126" on="1"/>
        <pt x="442" y="166" on="0"/>
        <pt x="482" y="234" on="0"/>
        <pt x="551" y="274" on="0"/>
        <pt x="592" y="274" on="1"/>
        <pt x="632" y="274" on="0"/>
        <pt x="700" y="234" on="0"/>
        <pt x="740" y="166" on="0"/>
        <pt x="740" y="126" on="1"/>
        <pt x="740" y="84" on="0"/>
        <pt x="700" y="14" on="0"/>
        <pt x="632" y="-26" on="0"/>
        <pt x="592" y="-26" on="1"/>
      </contour>
    </TTGlyph>
    <TTGlyph name="questiondown" xMin="80" yMin="-426" xMax="1044" yMax="1026">
      <contour>
        <pt x="431" y="-426" on="0"/>
        <pt x="210" y="-296" on="0"/>
        <pt x="80" y="-76" on="0"/>
        <pt x="80" y="54" on="1"/>
        <pt x="80" y="191" on="0"/>
        <pt x="213" y="421" on="0"/>
        <pt x="328" y="482" on="1"/>
        <pt x="361" y="499" on="0"/>
        <pt x="398" y="562" on="0"/>
        <pt x="398" y="600" on="1"/>
        <pt x="698" y="600" on="1"/>
        <pt x="698" y="479" on="0"/>
        <pt x="577" y="276" on="0"/>
        <pt x="470" y="218" on="1"/>
        <pt x="428" y="196" on="0"/>
        <pt x="380" y="108" on="0"/>
        <pt x="380" y="54" on="1"/>
        <pt x="380" y="5" on="0"/>
        <pt x="429" y="-78" on="0"/>
        <pt x="513" y="-126" on="0"/>
        <pt x="562" y="-126" on="1"/>
        <pt x="611" y="-126" on="0"/>
        <pt x="695" y="-78" on="0"/>
        <pt x="744" y="5" on="0"/>
        <pt x="744" y="54" on="1"/>
        <pt x="1044" y="54" on="1"/>
        <pt x="1044" y="-76" on="0"/>
        <pt x="914" y="-296" on="0"/>
        <pt x="693" y="-426" on="0"/>
        <pt x="562" y="-426" on="1"/>
      </contour>
      <contour>
        <pt x="492" y="726" on="0"/>
        <pt x="424" y="766" on="0"/>
        <pt x="384" y="834" on="0"/>
        <pt x="384" y="874" on="1"/>
        <pt x="384" y="916" on="0"/>
        <pt x="424" y="986" on="0"/>
        <pt x="492" y="1026" on="0"/>
        <pt x="532" y="1026" on="1"/>
        <pt x="573" y="1026" on="0"/>
        <pt x="642" y="986" on="0"/>
        <pt x="682" y="916" on="0"/>
        <pt x="682" y="874" on="1"/>
        <pt x="682" y="834" on="0"/>
        <pt x="642" y="766" on="0"/>
        <pt x="573" y="726" on="0"/>
        <pt x="532" y="726" on="1"/>
      </contour>
    </TTGlyph>
    <TTGlyph name="quotedbl" xMin="60" yMin="878" xMax="566" yMax="1400">
      <component glyphName="quotesingle" x="0" y="0" flags="0x0"/>
      <component glyphName="quotesingle" x="306" y="0" flags="0x0"/>
    </TTGlyph>
    <TTGlyph name="quotedblbase" xMin="80" yMin="-112" xMax="862" yMax="226">
      <component glyphName="comma" x="0" y="0" flags="0x0"/>
      <component glyphName="comma" x="420" y="0" flags="0x0"/>
    </TTGlyph>
    <TTGlyph name="quotedblleft" xMin="120" yMin="878" xMax="848" yMax="1404">
      <component glyphName="quoteleft" x="60" y="0" flags="0x0"/>
      <component glyphName="quoteleft" x="426" y="4" flags="0x4"/>
    </TTGlyph>
    <TTGlyph name="quotedblright" xMin="40" yMin="878" xMax="768" yMax="1400">
      <component glyphName="quoteright" x="0" y="0" flags="0x0"/>
      <component glyphName="quoteright" x="366" y="0" flags="0x0"/>
    </TTGlyph>
    <TTGlyph name="quoteleft" xMin="60" yMin="878" xMax="422" yMax="1400">
      <contour>
        <pt x="222" y="1400" on="1"/>
        <pt x="422" y="1400" on="1"/>
        <pt x="360" y="878" on="1"/>
        <pt x="60" y="878" on="1"/>
      </contour>
    </TTGlyph>
    <TTGlyph name="quoteright" xMin="40" yMin="878" xMax="402" yMax="1400">
      <contour>
        <pt x="102" y="1400" on="1"/>
        <pt x="402" y="1400" on="1"/>
        <pt x="240" y="878" on="1"/>
        <pt x="40" y="878" on="1"/>
      </contour>
    </TTGlyph>
    <TTGlyph name="quotesinglbase" xMin="80" yMin="-112" xMax="442" yMax="226">
      <component glyphName="comma" x="0" y="0" flags="0x0"/>
    </TTGlyph>
    <TTGlyph name="quotesingle" xMin="60" yMin="878" xMax="260" yMax="1400">
      <contour>
        <pt x="60" y="1400" on="1"/>
        <pt x="260" y="1400" on="1"/>
        <pt x="260" y="878" on="1"/>
        <pt x="60" y="878" on="1"/>
      </contour>
    </TTGlyph>
    <TTGlyph name="r" xMin="120" yMin="0" xMax="802" yMax="1026">
      <contour>
        <pt x="695" y="738" on="0"/>
        <pt x="618" y="738" on="1"/>
        <pt x="555" y="738" on="0"/>
        <pt x="467" y="675" on="0"/>
        <pt x="422" y="567" on="0"/>
        <pt x="422" y="500" on="1"/>
        <pt x="422" y="0" on="1"/>
        <pt x="120" y="0" on="1"/>
        <pt x="120" y="998" on="1"/>
        <pt x="420" y="998" on="1"/>
        <pt x="420" y="908" on="1"/>
        <pt x="469" y="964" on="0"/>
        <pt x="595" y="1026" on="0"/>
        <pt x="672" y="1026" on="1"/>
        <pt x="718" y="1026" on="0"/>
        <pt x="775" y="1022" on="0"/>
        <pt x="802" y="1014" on="1"/>
        <pt x="754" y="692" on="1"/>
      </contour>
    </TTGlyph>
    <TTGlyph name="radical" xMin="80" yMin="0" xMax="1298" yMax="1400">
      <contour>
        <pt x="1298" y="1400" on="1"/>
        <pt x="1298" y="1100" on="1"/>
        <pt x="1128" y="1100" on="1"/>
        <pt x="726" y="0" on="1"/>
        <pt x="338" y="0" on="1"/>
        <pt x="80" y="708" on="1"/>
        <pt x="398" y="708" on="1"/>
        <pt x="532" y="344" on="1"/>
        <pt x="918" y="1400" on="1"/>
      </contour>
    </TTGlyph>
    <TTGlyph name="registered" xMin="60" yMin="364" xMax="1134" yMax="1438">
      <contour>
        <pt x="450" y="364" on="0"/>
        <pt x="204" y="508" on="0"/>
        <pt x="60" y="755" on="0"/>
        <pt x="60" y="902" on="1"/>
        <pt x="60" y="1048" on="0"/>
        <pt x="204" y="1294" on="0"/>
        <pt x="450" y="1438" on="0"/>
        <pt x="596" y="1438" on="1"/>
        <pt x="744" y="1438" on="0"/>
        <pt x="991" y="1292" on="0"/>
        <pt x="1134" y="1045" on="0"/>
        <pt x="1134" y="902" on="1"/>
        <pt x="1134" y="754" on="0"/>
        <pt x="988" y="507" on="0"/>
        <pt x="740" y="364" on="0"/>
        <pt x="596" y="364" on="1"/>
      </contour>
      <contour>
        <pt x="686" y="574" on="0"/>
        <pt x="836" y="662" on="0"/>
        <pt x="924" y="812" on="0"/>
        <pt x="924" y="902" on="1"/>
        <pt x="924" y="991" on="0"/>
        <pt x="836" y="1140" on="0"/>
        <pt x="685" y="1228" on="0"/>
        <pt x="596" y="1228" on="1"/>
        <pt x="507" y="1228" on="0"/>
        <pt x="358" y="1140" on="0"/>
        <pt x="270" y="991" on="0"/>
        <pt x="270" y="902" on="1"/>
        <pt x="270" y="813" on="0"/>
        <pt x="358" y="662" on="0"/>
        <pt x="507" y="574" on="0"/>
        <pt x="596" y="574" on="1"/>
      </contour>
      <contour>
        <pt x="450" y="1138" on="1"/>
        <pt x="624" y="1138" on="1"/>
        <pt x="661" y="1138" on="0"/>
        <pt x="724" y="1100" on="0"/>
        <pt x="760" y="1034" on="0"/>
        <pt x="760" y="996" on="1"/>
        <pt x="760" y="957" on="0"/>
        <pt x="724" y="892" on="0"/>
        <pt x="694" y="874" on="1"/>
        <pt x="796" y="698" on="1"/>
        <pt x="670" y="698" on="1"/>
        <pt x="578" y="854" on="1"/>
        <pt x="560" y="854" on="1"/>
        <pt x="560" y="698" on="1"/>
        <pt x="450" y="698" on="1"/>
      </contour>
      <contour>
        <pt x="635" y="964" on="0"/>
        <pt x="650" y="983" on="0"/>
        <pt x="650" y="996" on="1"/>
        <pt x="650" y="1009" on="0"/>
        <pt x="635" y="1028" on="0"/>
        <pt x="624" y="1028" on="1"/>
        <pt x="560" y="1028" on="1"/>
        <pt x="560" y="964" on="1"/>
        <pt x="624" y="964" on="1"/>
      </contour>
    </TTGlyph>
    <TTGlyph name="ring" xMin="400" yMin="1082" xMax="800" yMax="1482">
      <component glyphName="uni030A" x="0" y="0" flags="0x0"/>
    </TTGlyph>
    <TTGlyph name="s" xMin="60" yMin="-28" xMax="837" yMax="1034">
      <contour>
        <pt x="340" y="-11" on="0"/>
        <pt x="201" y="42" on="0"/>
        <pt x="91" y="133" on="0"/>
        <pt x="60" y="196" on="1"/>
        <pt x="312" y="304" on="1"/>
        <pt x="312" y="304" on="0"/>
        <pt x="313" y="303" on="0"/>
        <pt x="313" y="303" on="1"/>
        <pt x="329" y="285" on="0"/>
        <pt x="363" y="257" on="0"/>
        <pt x="417" y="234" on="0"/>
        <pt x="452" y="234" on="1"/>
        <pt x="481" y="234" on="0"/>
        <pt x="528" y="246" on="0"/>
        <pt x="558" y="274" on="0"/>
        <pt x="558" y="298" on="1"/>
        <pt x="558" y="323" on="0"/>
        <pt x="522" y="352" on="0"/>
        <pt x="474" y="365" on="0"/>
        <pt x="439" y="371" on="1"/>
        <pt x="438" y="372" on="0"/>
        <pt x="435" y="372" on="0"/>
        <pt x="434" y="372" on="1"/>
        <pt x="341" y="387" on="0"/>
        <pt x="179" y="473" on="0"/>
        <pt x="78" y="612" on="0"/>
        <pt x="78" y="700" on="1"/>
        <pt x="78" y="800" on="0"/>
        <pt x="182" y="952" on="0"/>
        <pt x="354" y="1034" on="0"/>
        <pt x="454" y="1034" on="1"/>
        <pt x="532" y="1034" on="0"/>
        <pt x="673" y="991" on="0"/>
        <pt x="791" y="908" on="0"/>
        <pt x="834" y="848" on="1"/>
        <pt x="598" y="708" on="1"/>
        <pt x="585" y="725" on="0"/>
        <pt x="549" y="755" on="0"/>
        <pt x="504" y="777" on="0"/>
        <pt x="480" y="780" on="1"/>
        <pt x="443" y="783" on="0"/>
        <pt x="389" y="772" on="0"/>
        <pt x="358" y="738" on="0"/>
        <pt x="358" y="708" on="1"/>
        <pt x="358" y="688" on="0"/>
        <pt x="390" y="662" on="0"/>
        <pt x="434" y="649" on="0"/>
        <pt x="467" y="643" on="1"/>
        <pt x="478" y="641" on="0"/>
        <pt x="498" y="636" on="0"/>
        <pt x="506" y="634" on="1"/>
        <pt x="600" y="604" on="0"/>
        <pt x="748" y="513" on="0"/>
        <pt x="837" y="384" on="0"/>
        <pt x="834" y="302" on="1"/>
        <pt x="834" y="205" on="0"/>
        <pt x="716" y="51" on="0"/>
        <pt x="523" y="-28" on="0"/>
        <pt x="418" y="-18" on="1"/>
      </contour>
    </TTGlyph>
    <TTGlyph name="section" xMin="120" yMin="-356" xMax="996" yMax="1356">
      <contour>
        <pt x="464" y="-356" on="0"/>
        <pt x="323" y="-313" on="0"/>
        <pt x="205" y="-230" on="0"/>
        <pt x="162" y="-170" on="1"/>
        <pt x="398" y="-30" on="1"/>
        <pt x="411" y="-47" on="0"/>
        <pt x="447" y="-77" on="0"/>
        <pt x="492" y="-99" on="0"/>
        <pt x="516" y="-102" on="1"/>
        <pt x="553" y="-105" on="0"/>
        <pt x="607" y="-94" on="0"/>
        <pt x="638" y="-60" on="0"/>
        <pt x="638" y="-30" on="1"/>
        <pt x="638" y="-6" on="0"/>
        <pt x="596" y="24" on="0"/>
        <pt x="538" y="39" on="0"/>
        <pt x="506" y="42" on="1"/>
        <pt x="502" y="43" on="0"/>
        <pt x="494" y="44" on="0"/>
        <pt x="490" y="44" on="1"/>
        <pt x="389" y="55" on="0"/>
        <pt x="219" y="191" on="0"/>
        <pt x="120" y="395" on="0"/>
        <pt x="120" y="500" on="1"/>
        <pt x="120" y="567" on="0"/>
        <pt x="155" y="693" on="0"/>
        <pt x="220" y="802" on="0"/>
        <pt x="264" y="844" on="1"/>
        <pt x="233" y="882" on="0"/>
        <pt x="198" y="971" on="0"/>
        <pt x="198" y="1022" on="1"/>
        <pt x="198" y="1122" on="0"/>
        <pt x="302" y="1274" on="0"/>
        <pt x="474" y="1356" on="0"/>
        <pt x="574" y="1356" on="1"/>
        <pt x="652" y="1356" on="0"/>
        <pt x="793" y="1313" on="0"/>
        <pt x="911" y="1230" on="0"/>
        <pt x="954" y="1170" on="1"/>
        <pt x="718" y="1030" on="1"/>
        <pt x="705" y="1047" on="0"/>
        <pt x="669" y="1077" on="0"/>
        <pt x="624" y="1099" on="0"/>
        <pt x="600" y="1102" on="1"/>
        <pt x="563" y="1105" on="0"/>
        <pt x="509" y="1094" on="0"/>
        <pt x="478" y="1060" on="0"/>
        <pt x="478" y="1030" on="1"/>
        <pt x="478" y="1007" on="0"/>
        <pt x="517" y="979" on="0"/>
        <pt x="568" y="966" on="0"/>
        <pt x="604" y="960" on="1"/>
        <pt x="608" y="960" on="0"/>
        <pt x="616" y="959" on="0"/>
        <pt x="620" y="958" on="1"/>
        <pt x="729" y="938" on="0"/>
        <pt x="900" y="810" on="0"/>
        <pt x="996" y="615" on="0"/>
        <pt x="996" y="500" on="1"/>
        <pt x="996" y="433" on="0"/>
        <pt x="961" y="308" on="0"/>
        <pt x="895" y="200" on="0"/>
        <pt x="850" y="158" on="1"/>
        <pt x="883" y="119" on="0"/>
        <pt x="918" y="29" on="0"/>
        <pt x="918" y="-22" on="1"/>
        <pt x="918" y="-122" on="0"/>
        <pt x="814" y="-274" on="0"/>
        <pt x="642" y="-356" on="0"/>
        <pt x="542" y="-356" on="1"/>
      </contour>
      <contour>
        <pt x="614" y="302" on="0"/>
        <pt x="689" y="360" on="0"/>
        <pt x="734" y="452" on="0"/>
        <pt x="734" y="500" on="1"/>
        <pt x="734" y="558" on="0"/>
        <pt x="686" y="648" on="0"/>
        <pt x="597" y="698" on="0"/>
        <pt x="536" y="698" on="1"/>
        <pt x="499" y="698" on="0"/>
        <pt x="427" y="638" on="0"/>
        <pt x="382" y="545" on="0"/>
        <pt x="382" y="500" on="1"/>
        <pt x="382" y="445" on="0"/>
        <pt x="428" y="354" on="0"/>
        <pt x="515" y="302" on="0"/>
        <pt x="572" y="302" on="1"/>
      </contour>
    </TTGlyph>
    <TTGlyph name="semicolon" xMin="80" yMin="-112" xMax="442" yMax="1000">
      <contour>
        <pt x="142" y="226" on="1"/>
        <pt x="442" y="226" on="1"/>
        <pt x="280" y="-112" on="1"/>
        <pt x="80" y="-112" on="1"/>
      </contour>
      <contour>
        <pt x="251" y="700" on="0"/>
        <pt x="182" y="740" on="0"/>
        <pt x="142" y="809" on="0"/>
        <pt x="142" y="850" on="1"/>
        <pt x="142" y="890" on="0"/>
        <pt x="182" y="959" on="0"/>
        <pt x="251" y="1000" on="0"/>
        <pt x="292" y="1000" on="1"/>
        <pt x="332" y="1000" on="0"/>
        <pt x="401" y="959" on="0"/>
        <pt x="442" y="890" on="0"/>
        <pt x="442" y="850" on="1"/>
        <pt x="442" y="809" on="0"/>
        <pt x="401" y="740" on="0"/>
        <pt x="332" y="700" on="0"/>
        <pt x="292" y="700" on="1"/>
      </contour>
    </TTGlyph>
    <TTGlyph name="seven" xMin="40" yMin="0" xMax="1076" yMax="1400">
      <contour>
        <pt x="728" y="1100" on="1"/>
        <pt x="40" y="1100" on="1"/>
        <pt x="40" y="1400" on="1"/>
        <pt x="1076" y="1400" on="1"/>
        <pt x="1076" y="1100" on="1"/>
        <pt x="440" y="0" on="1"/>
        <pt x="94" y="0" on="1"/>
      </contour>
    </TTGlyph>
    <TTGlyph name="seveneighths" xMin="120" yMin="-31" xMax="1180" yMax="1446">
      <component glyphName="uni2077" x="140" y="0" flags="0x0"/>
      <component glyphName="fraction" x="120" y="0" flags="0x0"/>
      <component glyphName="uni2088" x="640" y="0" flags="0x0"/>
    </TTGlyph>
    <TTGlyph name="six" xMin="50" yMin="-26" xMax="1050" yMax="1400">
      <contour>
        <pt x="414" y="-26" on="0"/>
        <pt x="185" y="109" on="0"/>
        <pt x="50" y="338" on="0"/>
        <pt x="50" y="474" on="1"/>
        <pt x="50" y="517" on="0"/>
        <pt x="64" y="602" on="0"/>
        <pt x="93" y="685" on="0"/>
        <pt x="115" y="723" on="1"/>
        <pt x="115" y="723" on="0"/>
        <pt x="116" y="724" on="0"/>
        <pt x="116" y="724" on="1"/>
        <pt x="506" y="1400" on="1"/>
        <pt x="854" y="1400" on="1"/>
        <pt x="606" y="972" on="1"/>
        <pt x="731" y="957" on="0"/>
        <pt x="934" y="817" on="0"/>
        <pt x="1050" y="600" on="0"/>
        <pt x="1050" y="474" on="1"/>
        <pt x="1050" y="339" on="0"/>
        <pt x="915" y="109" on="0"/>
        <pt x="685" y="-26" on="0"/>
        <pt x="548" y="-26" on="1"/>
      </contour>
      <contour>
        <pt x="604" y="274" on="0"/>
        <pt x="697" y="330" on="0"/>
        <pt x="750" y="422" on="0"/>
        <pt x="750" y="472" on="1"/>
        <pt x="750" y="526" on="0"/>
        <pt x="697" y="619" on="0"/>
        <pt x="606" y="674" on="0"/>
        <pt x="550" y="674" on="1"/>
        <pt x="492" y="674" on="0"/>
        <pt x="401" y="617" on="0"/>
        <pt x="350" y="524" on="0"/>
        <pt x="350" y="472" on="1"/>
        <pt x="350" y="417" on="0"/>
        <pt x="406" y="326" on="0"/>
        <pt x="497" y="274" on="0"/>
        <pt x="548" y="274" on="1"/>
      </contour>
    </TTGlyph>
    <TTGlyph name="slash" xMin="80" yMin="-112" xMax="786" yMax="1400">
      <contour>
        <pt x="380" y="-112" on="1"/>
        <pt x="80" y="-112" on="1"/>
        <pt x="486" y="1400" on="1"/>
        <pt x="786" y="1400" on="1"/>
      </contour>
    </TTGlyph>
    <TTGlyph name="sterling" xMin="80" yMin="0" xMax="1134" yMax="1426">
      <contour>
        <pt x="171" y="300" on="0"/>
        <pt x="308" y="343" on="0"/>
        <pt x="375" y="422" on="0"/>
        <pt x="344" y="472" on="1"/>
        <pt x="335" y="486" on="0"/>
        <pt x="311" y="518" on="0"/>
        <pt x="281" y="552" on="0"/>
        <pt x="265" y="571" on="1"/>
        <pt x="209" y="635" on="0"/>
        <pt x="134" y="732" on="0"/>
        <pt x="80" y="845" on="0"/>
        <pt x="80" y="900" on="1"/>
        <pt x="80" y="1042" on="0"/>
        <pt x="223" y="1283" on="0"/>
        <pt x="464" y="1426" on="0"/>
        <pt x="606" y="1426" on="1"/>
        <pt x="749" y="1426" on="0"/>
        <pt x="991" y="1284" on="0"/>
        <pt x="1134" y="1043" on="0"/>
        <pt x="1134" y="900" on="1"/>
        <pt x="834" y="900" on="1"/>
        <pt x="834" y="961" on="0"/>
        <pt x="773" y="1065" on="0"/>
        <pt x="668" y="1126" on="0"/>
        <pt x="606" y="1126" on="1"/>
        <pt x="545" y="1126" on="0"/>
        <pt x="441" y="1065" on="0"/>
        <pt x="380" y="961" on="0"/>
        <pt x="380" y="900" on="1"/>
        <pt x="380" y="854" on="0"/>
        <pt x="415" y="773" on="0"/>
        <pt x="467" y="708" on="0"/>
        <pt x="511" y="660" on="1"/>
        <pt x="559" y="609" on="0"/>
        <pt x="618" y="533" on="0"/>
        <pt x="658" y="435" on="0"/>
        <pt x="658" y="376" on="1"/>
        <pt x="658" y="360" on="0"/>
        <pt x="653" y="323" on="0"/>
        <pt x="650" y="309" on="1"/>
        <pt x="648" y="301" on="0"/>
        <pt x="648" y="300" on="1"/>
        <pt x="1108" y="300" on="1"/>
        <pt x="1108" y="0" on="1"/>
        <pt x="104" y="0" on="1"/>
        <pt x="104" y="300" on="1"/>
      </contour>
      <contour>
        <pt x="104" y="644" on="1"/>
        <pt x="884" y="644" on="1"/>
        <pt x="884" y="444" on="1"/>
        <pt x="104" y="444" on="1"/>
      </contour>
    </TTGlyph>
    <TTGlyph name="summation" xMin="80" yMin="0" xMax="846" yMax="1396">
      <contour>
        <pt x="80" y="300" on="1"/>
        <pt x="284" y="698" on="1"/>
        <pt x="80" y="1096" on="1"/>
        <pt x="80" y="1396" on="1"/>
        <pt x="846" y="1396" on="1"/>
        <pt x="846" y="1096" on="1"/>
        <pt x="418" y="1096" on="1"/>
        <pt x="620" y="698" on="1"/>
        <pt x="418" y="300" on="1"/>
        <pt x="846" y="300" on="1"/>
        <pt x="846" y="0" on="1"/>
        <pt x="80" y="0" on="1"/>
      </contour>
    </TTGlyph>
    <TTGlyph name="t" xMin="70" yMin="0" xMax="670" yMax="1314">
      <contour>
        <pt x="500" y="700" on="1"/>
        <pt x="500" y="0" on="1"/>
        <pt x="200" y="0" on="1"/>
        <pt x="200" y="700" on="1"/>
        <pt x="70" y="700" on="1"/>
        <pt x="70" y="1000" on="1"/>
        <pt x="200" y="1000" on="1"/>
        <pt x="200" y="1314" on="1"/>
        <pt x="500" y="1314" on="1"/>
        <pt x="500" y="1000" on="1"/>
        <pt x="670" y="1000" on="1"/>
        <pt x="670" y="700" on="1"/>
      </contour>
    </TTGlyph>
    <TTGlyph name="thorn" xMin="120" yMin="-500" xMax="1198" yMax="1400">
      <contour>
        <pt x="120" y="1400" on="1"/>
        <pt x="420" y="1400" on="1"/>
        <pt x="420" y="906" on="1"/>
        <pt x="470" y="962" on="0"/>
        <pt x="595" y="1026" on="0"/>
        <pt x="672" y="1026" on="1"/>
        <pt x="816" y="1026" on="0"/>
        <pt x="1057" y="884" on="0"/>
        <pt x="1198" y="643" on="0"/>
        <pt x="1198" y="500" on="1"/>
        <pt x="1198" y="356" on="0"/>
        <pt x="1057" y="114" on="0"/>
        <pt x="816" y="-28" on="0"/>
        <pt x="672" y="-28" on="1"/>
        <pt x="595" y="-28" on="0"/>
        <pt x="470" y="36" on="0"/>
        <pt x="420" y="92" on="1"/>
        <pt x="420" y="-500" on="1"/>
        <pt x="120" y="-500" on="1"/>
      </contour>
      <contour>
        <pt x="729" y="262" on="0"/>
        <pt x="832" y="326" on="0"/>
        <pt x="892" y="435" on="0"/>
        <pt x="892" y="500" on="1"/>
        <pt x="892" y="564" on="0"/>
        <pt x="832" y="673" on="0"/>
        <pt x="729" y="738" on="0"/>
        <pt x="668" y="738" on="1"/>
        <pt x="608" y="738" on="0"/>
        <pt x="506" y="673" on="0"/>
        <pt x="446" y="564" on="0"/>
        <pt x="446" y="500" on="1"/>
        <pt x="446" y="435" on="0"/>
        <pt x="506" y="326" on="0"/>
        <pt x="608" y="262" on="0"/>
        <pt x="668" y="262" on="1"/>
      </contour>
    </TTGlyph>
    <TTGlyph name="three" xMin="60" yMin="-26" xMax="984" yMax="1428">
      <contour>
        <pt x="398" y="-26" on="0"/>
        <pt x="185" y="98" on="0"/>
        <pt x="60" y="310" on="0"/>
        <pt x="60" y="436" on="1"/>
        <pt x="360" y="436" on="1"/>
        <pt x="360" y="393" on="0"/>
        <pt x="404" y="318" on="0"/>
        <pt x="479" y="274" on="0"/>
        <pt x="522" y="274" on="1"/>
        <pt x="565" y="274" on="0"/>
        <pt x="640" y="318" on="0"/>
        <pt x="684" y="393" on="0"/>
        <pt x="684" y="436" on="1"/>
        <pt x="684" y="496" on="0"/>
        <pt x="617" y="577" on="0"/>
        <pt x="494" y="618" on="0"/>
        <pt x="410" y="618" on="1"/>
        <pt x="410" y="846" on="1"/>
        <pt x="484" y="846" on="0"/>
        <pt x="589" y="880" on="0"/>
        <pt x="646" y="947" on="0"/>
        <pt x="646" y="996" on="1"/>
        <pt x="646" y="1031" on="0"/>
        <pt x="611" y="1092" on="0"/>
        <pt x="551" y="1128" on="0"/>
        <pt x="516" y="1128" on="1"/>
        <pt x="479" y="1128" on="0"/>
        <pt x="406" y="1092" on="0"/>
        <pt x="360" y="1031" on="0"/>
        <pt x="360" y="996" on="1"/>
        <pt x="60" y="996" on="1"/>
        <pt x="60" y="1112" on="0"/>
        <pt x="186" y="1311" on="0"/>
        <pt x="394" y="1428" on="0"/>
        <pt x="512" y="1428" on="1"/>
        <pt x="627" y="1428" on="0"/>
        <pt x="827" y="1312" on="0"/>
        <pt x="946" y="1114" on="0"/>
        <pt x="946" y="996" on="1"/>
        <pt x="946" y="920" on="0"/>
        <pt x="883" y="774" on="0"/>
        <pt x="826" y="744" on="1"/>
        <pt x="876" y="725" on="0"/>
        <pt x="947" y="626" on="0"/>
        <pt x="984" y="498" on="0"/>
        <pt x="984" y="436" on="1"/>
        <pt x="984" y="311" on="0"/>
        <pt x="859" y="99" on="0"/>
        <pt x="647" y="-26" on="0"/>
        <pt x="522" y="-26" on="1"/>
      </contour>
    </TTGlyph>
    <TTGlyph name="threeeighths" xMin="120" yMin="-31" xMax="1180" yMax="1468">
      <component glyphName="uni00B3" x="60" y="0" flags="0x0"/>
      <component glyphName="fraction" x="120" y="0" flags="0x0"/>
      <component glyphName="uni2088" x="640" y="0" flags="0x0"/>
    </TTGlyph>
    <TTGlyph name="threequarters" xMin="120" yMin="0" xMax="1170" yMax="1468">
      <component glyphName="uni00B3" x="60" y="0" flags="0x0"/>
      <component glyphName="fraction" x="120" y="0" flags="0x0"/>
      <component glyphName="uni2084" x="570" y="0" flags="0x0"/>
    </TTGlyph>
    <TTGlyph name="tilde" xMin="291" yMin="1194" xMax="1018" yMax="1520">
      <component glyphName="tildecomb" x="0" y="0" flags="0x0"/>
    </TTGlyph>
    <TTGlyph name="tildecomb" xMin="291" yMin="1194" xMax="1018" yMax="1520">
      <contour>
        <pt x="776" y="1194" on="0"/>
        <pt x="682" y="1240" on="0"/>
        <pt x="608" y="1284" on="1"/>
        <pt x="546" y="1321" on="0"/>
        <pt x="485" y="1349" on="0"/>
        <pt x="480" y="1334" on="1"/>
        <pt x="476" y="1323" on="0"/>
        <pt x="476" y="1302" on="0"/>
        <pt x="484" y="1273" on="0"/>
        <pt x="489" y="1256" on="1"/>
        <pt x="489" y="1255" on="0"/>
        <pt x="490" y="1253" on="0"/>
        <pt x="490" y="1252" on="1"/>
        <pt x="322" y="1206" on="1"/>
        <pt x="291" y="1294" on="0"/>
        <pt x="316" y="1438" on="0"/>
        <pt x="417" y="1520" on="0"/>
        <pt x="498" y="1520" on="1"/>
        <pt x="539" y="1520" on="0"/>
        <pt x="653" y="1465" on="0"/>
        <pt x="734" y="1418" on="1"/>
        <pt x="761" y="1402" on="0"/>
        <pt x="805" y="1378" on="0"/>
        <pt x="812" y="1378" on="1"/>
        <pt x="828" y="1378" on="0"/>
        <pt x="836" y="1397" on="0"/>
        <pt x="829" y="1423" on="0"/>
        <pt x="820" y="1447" on="1"/>
        <pt x="819" y="1450" on="0"/>
        <pt x="817" y="1455" on="0"/>
        <pt x="816" y="1458" on="1"/>
        <pt x="988" y="1514" on="1"/>
        <pt x="1018" y="1422" on="0"/>
        <pt x="990" y="1276" on="0"/>
        <pt x="887" y="1194" on="0"/>
        <pt x="810" y="1194" on="1"/>
      </contour>
    </TTGlyph>
    <TTGlyph name="trademark" xMin="80" yMin="0" xMax="2864" yMax="1400">
      <component glyphName="T" x="0" y="0" flags="0x0"/>
      <component glyphName="M" x="1060" y="0" flags="0x0"/>
    </TTGlyph>
    <TTGlyph name="two" xMin="80" yMin="0" xMax="1052" yMax="1426">
      <contour>
        <pt x="92" y="276" on="0"/>
        <pt x="119" y="294" on="0"/>
        <pt x="134" y="304" on="1"/>
        <pt x="255" y="387" on="0"/>
        <pt x="545" y="631" on="0"/>
        <pt x="752" y="869" on="0"/>
        <pt x="752" y="940" on="1"/>
        <pt x="752" y="990" on="0"/>
        <pt x="703" y="1076" on="0"/>
        <pt x="618" y="1126" on="0"/>
        <pt x="568" y="1126" on="1"/>
        <pt x="518" y="1126" on="0"/>
        <pt x="432" y="1076" on="0"/>
        <pt x="382" y="990" on="0"/>
        <pt x="382" y="940" on="1"/>
        <pt x="82" y="940" on="1"/>
        <pt x="82" y="1075" on="0"/>
        <pt x="215" y="1298" on="0"/>
        <pt x="438" y="1426" on="0"/>
        <pt x="568" y="1426" on="1"/>
        <pt x="699" y="1426" on="0"/>
        <pt x="921" y="1296" on="0"/>
        <pt x="1052" y="1073" on="0"/>
        <pt x="1052" y="940" on="1"/>
        <pt x="1052" y="833" on="0"/>
        <pt x="958" y="643" on="0"/>
        <pt x="790" y="454" on="0"/>
        <pt x="632" y="300" on="1"/>
        <pt x="1052" y="300" on="1"/>
        <pt x="1052" y="0" on="1"/>
        <pt x="80" y="0" on="1"/>
        <pt x="80" y="268" on="1"/>
      </contour>
    </TTGlyph>
    <TTGlyph name="u" xMin="120" yMin="-28" xMax="1136" yMax="1000">
      <contour>
        <pt x="120" y="1000" on="1"/>
        <pt x="420" y="1000" on="1"/>
        <pt x="420" y="500" on="1"/>
        <pt x="420" y="434" on="0"/>
        <pt x="474" y="325" on="0"/>
        <pt x="574" y="262" on="0"/>
        <pt x="638" y="262" on="1"/>
        <pt x="701" y="262" on="0"/>
        <pt x="790" y="325" on="0"/>
        <pt x="836" y="433" on="0"/>
        <pt x="836" y="500" on="1"/>
        <pt x="836" y="1000" on="1"/>
        <pt x="1136" y="1000" on="1"/>
        <pt x="1136" y="0" on="1"/>
        <pt x="836" y="0" on="1"/>
        <pt x="836" y="92" on="1"/>
        <pt x="786" y="36" on="0"/>
        <pt x="661" y="-28" on="0"/>
        <pt x="584" y="-28" on="1"/>
        <pt x="444" y="-28" on="0"/>
        <pt x="234" y="111" on="0"/>
        <pt x="121" y="350" on="0"/>
        <pt x="120" y="496" on="1"/>
      </contour>
    </TTGlyph>
    <TTGlyph name="uacute" xMin="120" yMin="-28" xMax="1136" yMax="1426">
      <component glyphName="u" x="0" y="0" flags="0x0"/>
      <component glyphName="acutecomb" x="28" y="0" flags="0x0"/>
    </TTGlyph>
    <TTGlyph name="ucircumflex" xMin="120" yMin="-28" xMax="1136" yMax="1400">
      <component glyphName="u" x="0" y="0" flags="0x0"/>
      <component glyphName="uni0302" x="-34" y="0" flags="0x0"/>
    </TTGlyph>
    <TTGlyph name="udieresis" xMin="120" yMin="-28" xMax="1136" yMax="1424">
      <component glyphName="u" x="0" y="0" flags="0x0"/>
      <component glyphName="uni0308" x="-143" y="0" flags="0x0"/>
    </TTGlyph>
    <TTGlyph name="ugrave" xMin="120" yMin="-28" xMax="1136" yMax="1426">
      <component glyphName="u" x="0" y="0" flags="0x0"/>
      <component glyphName="grave" x="-12" y="0" flags="0x0"/>
    </TTGlyph>
    <TTGlyph name="underscore" xMin="120" yMin="-112" xMax="1120" yMax="188">
      <contour>
        <pt x="1120" y="188" on="1"/>
        <pt x="1120" y="-112" on="1"/>
        <pt x="120" y="-112" on="1"/>
        <pt x="120" y="188" on="1"/>
      </contour>
    </TTGlyph>
    <TTGlyph name="uni00AD" xMin="120" yMin="450" xMax="760" yMax="750">
      <component glyphName="hyphen" x="0" y="0" flags="0x0"/>
    </TTGlyph>
    <TTGlyph name="uni00B2" xMin="96" yMin="818" xMax="583" yMax="1468">
      <contour>
        <pt x="116" y="977" on="0"/>
        <pt x="155" y="1002" on="0"/>
        <pt x="175" y="1015" on="1"/>
        <pt x="236" y="1053" on="0"/>
        <pt x="315" y="1109" on="0"/>
        <pt x="389" y="1186" on="0"/>
        <pt x="415" y="1235" on="1"/>
        <pt x="415" y="1267" on="0"/>
        <pt x="372" y="1312" on="0"/>
        <pt x="341" y="1312" on="1"/>
        <pt x="309" y="1312" on="0"/>
        <pt x="264" y="1267" on="0"/>
        <pt x="264" y="1235" on="1"/>
        <pt x="96" y="1235" on="1"/>
        <pt x="96" y="1301" on="0"/>
        <pt x="162" y="1408" on="0"/>
        <pt x="274" y="1468" on="0"/>
        <pt x="341" y="1468" on="1"/>
        <pt x="407" y="1468" on="0"/>
        <pt x="518" y="1408" on="0"/>
        <pt x="583" y="1301" on="0"/>
        <pt x="583" y="1235" on="1"/>
        <pt x="583" y="1191" on="0"/>
        <pt x="541" y="1114" on="0"/>
        <pt x="480" y="1053" on="0"/>
        <pt x="427" y="1006" on="1"/>
        <pt x="421" y="1001" on="0"/>
        <pt x="409" y="991" on="0"/>
        <pt x="403" y="986" on="1"/>
        <pt x="571" y="986" on="1"/>
        <pt x="571" y="818" on="1"/>
        <pt x="96" y="818" on="1"/>
        <pt x="96" y="964" on="1"/>
      </contour>
    </TTGlyph>
    <TTGlyph name="uni00B3" xMin="72" yMin="798" xMax="516" yMax="1468">
      <contour>
        <pt x="234" y="798" on="0"/>
        <pt x="132" y="853" on="0"/>
        <pt x="72" y="950" on="0"/>
        <pt x="72" y="1010" on="1"/>
        <pt x="240" y="1010" on="1"/>
        <pt x="240" y="986" on="0"/>
        <pt x="272" y="954" on="0"/>
        <pt x="295" y="954" on="1"/>
        <pt x="317" y="954" on="0"/>
        <pt x="348" y="986" on="0"/>
        <pt x="348" y="1010" on="1"/>
        <pt x="348" y="1042" on="0"/>
        <pt x="290" y="1094" on="0"/>
        <pt x="238" y="1094" on="1"/>
        <pt x="238" y="1199" on="1"/>
        <pt x="289" y="1199" on="0"/>
        <pt x="331" y="1243" on="0"/>
        <pt x="331" y="1271" on="1"/>
        <pt x="331" y="1288" on="0"/>
        <pt x="307" y="1312" on="0"/>
        <pt x="290" y="1312" on="1"/>
        <pt x="274" y="1312" on="0"/>
        <pt x="250" y="1287" on="0"/>
        <pt x="250" y="1271" on="1"/>
        <pt x="82" y="1271" on="1"/>
        <pt x="82" y="1327" on="0"/>
        <pt x="138" y="1417" on="0"/>
        <pt x="233" y="1468" on="0"/>
        <pt x="290" y="1468" on="1"/>
        <pt x="348" y="1468" on="0"/>
        <pt x="443" y="1417" on="0"/>
        <pt x="499" y="1327" on="0"/>
        <pt x="499" y="1271" on="1"/>
        <pt x="499" y="1239" on="0"/>
        <pt x="481" y="1178" on="0"/>
        <pt x="463" y="1151" on="1"/>
        <pt x="489" y="1123" on="0"/>
        <pt x="516" y="1049" on="0"/>
        <pt x="516" y="1010" on="1"/>
        <pt x="516" y="950" on="0"/>
        <pt x="456" y="853" on="0"/>
        <pt x="355" y="798" on="0"/>
        <pt x="295" y="798" on="1"/>
      </contour>
    </TTGlyph>
    <TTGlyph name="uni00B5" xMin="80" yMin="-432" xMax="1096" yMax="1000">
      <component glyphName="uni03BC" x="0" y="0" flags="0x0"/>
    </TTGlyph>
    <TTGlyph name="uni00B9" xMin="96" yMin="818" xMax="322" yMax="1449">
      <contour>
        <pt x="154" y="1281" on="1"/>
        <pt x="96" y="1281" on="1"/>
        <pt x="120" y="1449" on="1"/>
        <pt x="322" y="1449" on="1"/>
        <pt x="322" y="818" on="1"/>
        <pt x="154" y="818" on="1"/>
      </contour>
    </TTGlyph>
    <TTGlyph name="uni02BC" xMin="40" yMin="878" xMax="402" yMax="1400">
      <component glyphName="quoteright" x="0" y="0" flags="0x0"/>
    </TTGlyph>
    <TTGlyph name="uni0302" xMin="400" yMin="1166" xMax="902" yMax="1400">
      <contour>
        <pt x="802" y="1400" on="1"/>
        <pt x="902" y="1166" on="1"/>
        <pt x="710" y="1166" on="1"/>
        <pt x="652" y="1308" on="1"/>
        <pt x="592" y="1166" on="1"/>
        <pt x="400" y="1166" on="1"/>
        <pt x="500" y="1400" on="1"/>
      </contour>
    </TTGlyph>
    <TTGlyph name="uni0307" xMin="400" yMin="1124" xMax="702" yMax="1424">
      <contour>
        <pt x="510" y="1124" on="0"/>
        <pt x="440" y="1163" on="0"/>
        <pt x="400" y="1232" on="0"/>
        <pt x="400" y="1274" on="1"/>
        <pt x="400" y="1315" on="0"/>
        <pt x="440" y="1384" on="0"/>
        <pt x="510" y="1424" on="0"/>
        <pt x="552" y="1424" on="1"/>
        <pt x="593" y="1424" on="0"/>
        <pt x="662" y="1384" on="0"/>
        <pt x="702" y="1315" on="0"/>
        <pt x="702" y="1274" on="1"/>
        <pt x="702" y="1232" on="0"/>
        <pt x="662" y="1163" on="0"/>
        <pt x="594" y="1124" on="0"/>
        <pt x="552" y="1124" on="1"/>
      </contour>
    </TTGlyph>
    <TTGlyph name="uni0308" xMin="400" yMin="1124" xMax="1142" yMax="1424">
      <contour>
        <pt x="510" y="1124" on="0"/>
        <pt x="440" y="1163" on="0"/>
        <pt x="400" y="1232" on="0"/>
        <pt x="400" y="1274" on="1"/>
        <pt x="400" y="1315" on="0"/>
        <pt x="440" y="1384" on="0"/>
        <pt x="510" y="1424" on="0"/>
        <pt x="552" y="1424" on="1"/>
        <pt x="593" y="1424" on="0"/>
        <pt x="662" y="1384" on="0"/>
        <pt x="702" y="1315" on="0"/>
        <pt x="702" y="1274" on="1"/>
        <pt x="702" y="1232" on="0"/>
        <pt x="662" y="1163" on="0"/>
        <pt x="594" y="1124" on="0"/>
        <pt x="552" y="1124" on="1"/>
      </contour>
      <contour>
        <pt x="950" y="1124" on="0"/>
        <pt x="880" y="1163" on="0"/>
        <pt x="840" y="1232" on="0"/>
        <pt x="840" y="1274" on="1"/>
        <pt x="840" y="1315" on="0"/>
        <pt x="880" y="1384" on="0"/>
        <pt x="950" y="1424" on="0"/>
        <pt x="992" y="1424" on="1"/>
        <pt x="1033" y="1424" on="0"/>
        <pt x="1102" y="1384" on="0"/>
        <pt x="1142" y="1315" on="0"/>
        <pt x="1142" y="1274" on="1"/>
        <pt x="1142" y="1232" on="0"/>
        <pt x="1102" y="1163" on="0"/>
        <pt x="1034" y="1124" on="0"/>
        <pt x="992" y="1124" on="1"/>
      </contour>
    </TTGlyph>
    <TTGlyph name="uni030A" xMin="400" yMin="1082" xMax="800" yMax="1482">
      <contour>
        <pt x="546" y="1082" on="0"/>
        <pt x="454" y="1137" on="0"/>
        <pt x="400" y="1230" on="0"/>
        <pt x="400" y="1284" on="1"/>
        <pt x="400" y="1337" on="0"/>
        <pt x="454" y="1428" on="0"/>
        <pt x="546" y="1482" on="0"/>
        <pt x="600" y="1482" on="1"/>
        <pt x="654" y="1482" on="0"/>
        <pt x="746" y="1428" on="0"/>
        <pt x="800" y="1337" on="0"/>
        <pt x="800" y="1284" on="1"/>
        <pt x="800" y="1229" on="0"/>
        <pt x="746" y="1136" on="0"/>
        <pt x="654" y="1082" on="0"/>
        <pt x="600" y="1082" on="1"/>
      </contour>
      <contour>
        <pt x="638" y="1192" on="0"/>
        <pt x="690" y="1245" on="0"/>
        <pt x="690" y="1284" on="1"/>
        <pt x="690" y="1320" on="0"/>
        <pt x="637" y="1372" on="0"/>
        <pt x="600" y="1372" on="1"/>
        <pt x="563" y="1372" on="0"/>
        <pt x="510" y="1320" on="0"/>
        <pt x="510" y="1284" on="1"/>
        <pt x="510" y="1245" on="0"/>
        <pt x="562" y="1192" on="0"/>
        <pt x="600" y="1192" on="1"/>
      </contour>
    </TTGlyph>
    <TTGlyph name="uni0327" xMin="400" yMin="-306" xMax="910" yMax="202">
      <contour>
        <pt x="400" y="-88" on="1"/>
        <pt x="528" y="-88" on="1"/>
        <pt x="567" y="-88" on="0"/>
        <pt x="643" y="-40" on="0"/>
        <pt x="692" y="36" on="0"/>
        <pt x="692" y="74" on="1"/>
        <pt x="692" y="202" on="1"/>
        <pt x="910" y="202" on="1"/>
        <pt x="910" y="78" on="1"/>
        <pt x="910" y="-26" on="0"/>
        <pt x="806" y="-203" on="0"/>
        <pt x="629" y="-306" on="0"/>
        <pt x="524" y="-306" on="1"/>
        <pt x="400" y="-306" on="1"/>
      </contour>
    </TTGlyph>
    <TTGlyph name="uni03BC" xMin="80" yMin="-432" xMax="1096" yMax="1000">
      <contour>
        <pt x="80" y="1000" on="1"/>
        <pt x="380" y="1000" on="1"/>
        <pt x="380" y="500" on="1"/>
        <pt x="380" y="434" on="0"/>
        <pt x="434" y="325" on="0"/>
        <pt x="534" y="262" on="0"/>
        <pt x="598" y="262" on="1"/>
        <pt x="661" y="262" on="0"/>
        <pt x="750" y="325" on="0"/>
        <pt x="796" y="433" on="0"/>
        <pt x="796" y="500" on="1"/>
        <pt x="796" y="1000" on="1"/>
        <pt x="1096" y="1000" on="1"/>
        <pt x="1096" y="0" on="1"/>
        <pt x="796" y="0" on="1"/>
        <pt x="796" y="92" on="1"/>
        <pt x="746" y="36" on="0"/>
        <pt x="621" y="-28" on="0"/>
        <pt x="544" y="-28" on="1"/>
        <pt x="500" y="-28" on="0"/>
        <pt x="418" y="-14" on="0"/>
        <pt x="380" y="0" on="1"/>
        <pt x="380" y="-432" on="1"/>
        <pt x="80" y="-432" on="1"/>
      </contour>
    </TTGlyph>
    <TTGlyph name="uni1E9E" xMin="120" yMin="0" xMax="1186" yMax="1400">
      <contour>
        <pt x="120" y="1014" on="0"/>
        <pt x="263" y="1257" on="0"/>
        <pt x="506" y="1400" on="0"/>
        <pt x="650" y="1400" on="1"/>
        <pt x="753" y="1400" on="0"/>
        <pt x="942" y="1309" on="0"/>
        <pt x="1058" y="1156" on="0"/>
        <pt x="1058" y="1068" on="1"/>
        <pt x="1058" y="1033" on="0"/>
        <pt x="1028" y="968" on="0"/>
        <pt x="977" y="902" on="0"/>
        <pt x="924" y="841" on="1"/>
        <pt x="856" y="763" on="0"/>
        <pt x="832" y="734" on="1"/>
        <pt x="917" y="751" on="0"/>
        <pt x="1082" y="663" on="0"/>
        <pt x="1186" y="503" on="0"/>
        <pt x="1186" y="422" on="1"/>
        <pt x="1186" y="292" on="0"/>
        <pt x="1046" y="101" on="0"/>
        <pt x="824" y="0" on="0"/>
        <pt x="704" y="0" on="1"/>
        <pt x="650" y="0" on="1"/>
        <pt x="590" y="254" on="1"/>
        <pt x="672" y="254" on="1"/>
        <pt x="731" y="254" on="0"/>
        <pt x="844" y="286" on="0"/>
        <pt x="920" y="362" on="0"/>
        <pt x="920" y="424" on="1"/>
        <pt x="920" y="486" on="0"/>
        <pt x="844" y="562" on="0"/>
        <pt x="731" y="594" on="0"/>
        <pt x="672" y="594" on="1"/>
        <pt x="590" y="594" on="1"/>
        <pt x="590" y="704" on="1"/>
        <pt x="590" y="773" on="0"/>
        <pt x="660" y="915" on="0"/>
        <pt x="717" y="1002" on="1"/>
        <pt x="738" y="1033" on="0"/>
        <pt x="758" y="1066" on="0"/>
        <pt x="758" y="1074" on="1"/>
        <pt x="758" y="1107" on="0"/>
        <pt x="719" y="1137" on="0"/>
        <pt x="659" y="1144" on="0"/>
        <pt x="607" y="1144" on="1"/>
        <pt x="603" y="1144" on="0"/>
        <pt x="597" y="1144" on="0"/>
        <pt x="594" y="1144" on="1"/>
        <pt x="551" y="1144" on="0"/>
        <pt x="470" y="1092" on="0"/>
        <pt x="420" y="1002" on="0"/>
        <pt x="420" y="950" on="1"/>
        <pt x="420" y="0" on="1"/>
        <pt x="120" y="0" on="1"/>
        <pt x="120" y="870" on="1"/>
      </contour>
    </TTGlyph>
    <TTGlyph name="uni2035" xMin="120" yMin="878" xMax="482" yMax="1400">
      <contour>
        <pt x="120" y="1400" on="1"/>
        <pt x="420" y="1400" on="1"/>
        <pt x="482" y="878" on="1"/>
        <pt x="282" y="878" on="1"/>
      </contour>
    </TTGlyph>
    <TTGlyph name="uni2070" xMin="72" yMin="798" xMax="576" yMax="1468">
      <contour>
        <pt x="255" y="798" on="0"/>
        <pt x="140" y="886" on="0"/>
        <pt x="72" y="1040" on="0"/>
        <pt x="72" y="1134" on="1"/>
        <pt x="72" y="1227" on="0"/>
        <pt x="140" y="1380" on="0"/>
        <pt x="255" y="1468" on="0"/>
        <pt x="324" y="1468" on="1"/>
        <pt x="393" y="1468" on="0"/>
        <pt x="508" y="1380" on="0"/>
        <pt x="576" y="1227" on="0"/>
        <pt x="576" y="1134" on="1"/>
        <pt x="576" y="1040" on="0"/>
        <pt x="508" y="886" on="0"/>
        <pt x="393" y="798" on="0"/>
        <pt x="324" y="798" on="1"/>
      </contour>
      <contour>
        <pt x="350" y="954" on="0"/>
        <pt x="388" y="1014" on="0"/>
        <pt x="408" y="1099" on="0"/>
        <pt x="408" y="1134" on="1"/>
        <pt x="408" y="1173" on="0"/>
        <pt x="387" y="1256" on="0"/>
        <pt x="349" y="1312" on="0"/>
        <pt x="324" y="1312" on="1"/>
        <pt x="296" y="1312" on="0"/>
        <pt x="258" y="1255" on="0"/>
        <pt x="240" y="1173" on="0"/>
        <pt x="240" y="1134" on="1"/>
        <pt x="240" y="1092" on="0"/>
        <pt x="260" y="1009" on="0"/>
        <pt x="298" y="954" on="0"/>
        <pt x="324" y="954" on="1"/>
      </contour>
    </TTGlyph>
</ttFont>
